<svg width="311" height="267" viewBox="0 0 311 267" fill="none" xmlns="http://www.w3.org/2000/svg">
<path d="M231.037 149.374C240.05 136.73 245.331 121.929 246.307 106.576C247.283 91.2228 243.916 75.9031 236.572 62.2768C229.228 48.6504 218.186 37.2372 204.644 29.2738C191.101 21.3104 175.574 17.1006 159.745 17.1006C143.917 17.1006 128.39 21.3104 114.847 29.2738C101.305 37.2372 90.2629 48.6504 82.9188 62.2768C75.5746 75.9031 72.208 91.2228 73.1838 106.576C74.1595 121.929 79.4404 136.73 88.4542 149.374L88.5495 149.478C90.7484 152.567 93.1607 155.507 95.7698 158.278C99.3442 163.152 109.233 169.335 110.973 175.078C114.547 186.946 121.756 201.709 121.756 201.709H197.771C197.771 201.709 204.979 186.923 208.566 175.078C210.293 169.289 220.147 163.152 223.769 158.278C226.378 155.507 228.79 152.567 230.989 149.478L231.037 149.374Z" fill="#1264D1"/>
<path d="M195.364 201.732H124.079C121.506 201.732 119.42 203.759 119.42 206.259V209.304C119.42 211.805 121.506 213.832 124.079 213.832H195.364C197.937 213.832 200.023 211.805 200.023 209.304V206.259C200.023 203.759 197.937 201.732 195.364 201.732Z" fill="white"/>
<path d="M195.364 214.422H124.067C122.675 214.419 121.342 213.88 120.359 212.922C119.376 211.965 118.825 210.668 118.825 209.316V206.259C118.825 204.907 119.376 203.61 120.359 202.653C121.342 201.695 122.675 201.156 124.067 201.153H195.364C196.757 201.156 198.091 201.695 199.076 202.652C200.061 203.609 200.615 204.906 200.618 206.259V209.316C200.615 210.669 200.061 211.966 199.076 212.923C198.091 213.88 196.757 214.419 195.364 214.422ZM124.067 202.311C122.991 202.314 121.961 202.731 121.202 203.471C120.442 204.212 120.016 205.214 120.016 206.259V209.316C120.016 210.361 120.442 211.364 121.202 212.104C121.961 212.844 122.991 213.261 124.067 213.264H195.364C196.442 213.264 197.475 212.848 198.237 212.108C198.999 211.367 199.427 210.363 199.427 209.316V206.259C199.427 205.212 198.999 204.208 198.237 203.467C197.475 202.727 196.442 202.311 195.364 202.311H124.067Z" fill="#093269"/>
<path d="M195.364 213.843H124.079C121.506 213.843 119.42 215.87 119.42 218.37V221.415C119.42 223.916 121.506 225.943 124.079 225.943H195.364C197.937 225.943 200.023 223.916 200.023 221.415V218.37C200.023 215.87 197.937 213.843 195.364 213.843Z" fill="white"/>
<path d="M195.364 226.522H124.067C122.677 226.522 121.343 225.985 120.36 225.029C119.377 224.074 118.825 222.778 118.825 221.427V218.37C118.825 217.018 119.376 215.721 120.359 214.764C121.342 213.807 122.675 213.267 124.067 213.264H195.364C196.757 213.267 198.091 213.806 199.076 214.763C200.061 215.72 200.615 217.017 200.618 218.37V221.427C200.615 222.779 200.06 224.075 199.075 225.03C198.09 225.985 196.756 226.522 195.364 226.522ZM124.067 214.422C122.991 214.425 121.961 214.842 121.202 215.583C120.442 216.323 120.016 217.325 120.016 218.37V221.427C120.016 221.944 120.121 222.456 120.324 222.934C120.528 223.411 120.826 223.845 121.202 224.211C121.579 224.576 122.025 224.866 122.517 225.064C123.008 225.262 123.535 225.364 124.067 225.364H195.364C196.44 225.364 197.471 224.949 198.233 224.211C198.994 223.473 199.424 222.472 199.427 221.427V218.37C199.427 217.323 198.999 216.319 198.237 215.578C197.475 214.838 196.442 214.422 195.364 214.422H124.067Z" fill="#093269"/>
<path d="M195.364 225.943H124.079C121.506 225.943 119.42 227.97 119.42 230.47V233.515C119.42 236.015 121.506 238.042 124.079 238.042H195.364C197.937 238.042 200.023 236.015 200.023 233.515V230.47C200.023 227.97 197.937 225.943 195.364 225.943Z" fill="white"/>
<path d="M195.364 238.633H124.067C122.675 238.63 121.342 238.09 120.359 237.133C119.376 236.176 118.825 234.879 118.825 233.527V230.47C118.825 229.118 119.376 227.821 120.359 226.863C121.342 225.906 122.675 225.367 124.067 225.364H195.364C196.757 225.367 198.091 225.906 199.076 226.863C200.061 227.82 200.615 229.117 200.618 230.47V233.527C200.615 234.88 200.061 236.177 199.076 237.134C198.091 238.091 196.757 238.63 195.364 238.633ZM124.067 226.522C122.991 226.525 121.961 226.942 121.202 227.682C120.442 228.422 120.016 229.425 120.016 230.47V233.527C120.016 234.572 120.442 235.574 121.202 236.314C121.961 237.054 122.991 237.472 124.067 237.475H195.364C196.442 237.475 197.475 237.059 198.237 236.318C198.999 235.578 199.427 234.574 199.427 233.527V230.47C199.427 229.423 198.999 228.418 198.237 227.678C197.475 226.938 196.442 226.522 195.364 226.522H124.067Z" fill="#093269"/>
<path d="M195.364 238.054H124.079C121.506 238.054 119.42 240.081 119.42 242.581V245.626C119.42 248.126 121.506 250.153 124.079 250.153H195.364C197.937 250.153 200.023 248.126 200.023 245.626V242.581C200.023 240.081 197.937 238.054 195.364 238.054Z" fill="white"/>
<path d="M195.364 250.732H124.067C122.675 250.729 121.342 250.19 120.359 249.233C119.376 248.275 118.825 246.978 118.825 245.626V242.569C118.825 241.218 119.377 239.922 120.36 238.967C121.343 238.012 122.677 237.475 124.067 237.475H195.364C196.756 237.475 198.09 238.011 199.075 238.966C200.06 239.921 200.615 241.217 200.618 242.569V245.626C200.615 246.979 200.061 248.276 199.076 249.233C198.091 250.19 196.757 250.729 195.364 250.732ZM124.067 238.633C123.535 238.633 123.008 238.735 122.517 238.932C122.025 239.13 121.579 239.42 121.202 239.786C120.826 240.151 120.528 240.585 120.324 241.063C120.121 241.541 120.016 242.052 120.016 242.569V245.626C120.016 246.671 120.442 247.674 121.202 248.414C121.961 249.154 122.991 249.571 124.067 249.574H195.364C196.442 249.574 197.475 249.158 198.237 248.418C198.999 247.678 199.427 246.673 199.427 245.626V242.569C199.424 241.524 198.994 240.523 198.233 239.785C197.471 239.047 196.44 238.633 195.364 238.633H124.067Z" fill="#093269"/>
<path d="M170.403 266.421H149.04C146.359 266.424 143.708 265.875 141.262 264.809C138.816 263.743 136.631 262.185 134.85 260.238L125.616 250.153H193.827L184.593 260.238C182.811 262.184 180.625 263.741 178.18 264.807C175.734 265.873 173.083 266.423 170.403 266.421Z" fill="#093269"/>
<path d="M170.403 267H149.04C146.275 266.999 143.541 266.43 141.017 265.33C138.494 264.231 136.238 262.626 134.397 260.62L125.163 250.535C125.088 250.453 125.038 250.351 125.021 250.242C125.005 250.133 125.021 250.022 125.068 249.922C125.116 249.819 125.192 249.732 125.29 249.67C125.387 249.609 125.5 249.575 125.616 249.574H193.827C193.942 249.575 194.054 249.608 194.149 249.67C194.244 249.731 194.319 249.819 194.363 249.922C194.414 250.021 194.431 250.133 194.414 250.243C194.397 250.353 194.346 250.455 194.268 250.535L185.034 260.62C183.196 262.626 180.942 264.231 178.421 265.331C175.899 266.43 173.167 266.999 170.403 267ZM126.891 250.732L135.231 259.856C136.959 261.74 139.077 263.247 141.447 264.279C143.816 265.31 146.384 265.843 148.98 265.842H170.343C172.94 265.842 175.507 265.308 177.876 264.277C180.246 263.245 182.364 261.739 184.093 259.856L192.433 250.732H126.891Z" fill="#093269"/>
<path d="M140.223 165.41C138.676 165.402 137.132 165.254 135.612 164.97C132.952 164.586 130.449 163.507 128.37 161.849C126.291 160.192 124.713 158.017 123.805 155.557C119.839 154.376 116.181 152.378 113.082 149.698C107.994 145.437 109.245 138.942 110.008 136.383C107.837 135.31 105.929 133.796 104.412 131.944C102.895 130.093 101.804 127.946 101.215 125.65C100.487 123.34 100.401 120.885 100.963 118.533C101.526 116.18 102.719 114.014 104.42 112.253C102.457 109.948 101.246 107.126 100.941 104.148C100.107 97.8614 105.099 93.1605 107.267 91.4122C106.076 89.5017 104.313 84.9861 107.851 78.4211C108.997 76.1673 110.74 74.2509 112.902 72.8691C115.063 71.4873 117.564 70.69 120.147 70.5593C119.424 67.0182 119.567 63.3615 120.564 59.8839C122.625 52.1263 142.499 44.8319 148.695 45.1561C151.871 45.3317 154.857 46.6872 157.035 48.9422C157.146 49.0453 157.233 49.1694 157.293 49.3068C157.352 49.4443 157.382 49.5921 157.38 49.7412V151.817C157.386 151.894 157.386 151.972 157.38 152.049C157.278 152.602 157.122 153.145 156.916 153.67C153.782 161.358 147.932 165.41 140.223 165.41ZM120.933 72.8402C118.642 72.8417 116.397 73.466 114.451 74.6424C112.506 75.8189 110.938 77.5008 109.924 79.4979C106.04 86.6997 109.603 90.7174 109.758 90.8911C109.869 91.015 109.953 91.1607 110.002 91.3185C110.052 91.4762 110.066 91.6424 110.044 91.8058C110.025 91.9695 109.971 92.1276 109.885 92.2693C109.798 92.4111 109.682 92.5333 109.543 92.6279C109.472 92.6279 102.394 97.4098 103.264 103.836C103.979 109.174 106.696 111.246 106.838 111.327C106.983 111.435 107.1 111.574 107.18 111.732C107.261 111.891 107.303 112.065 107.303 112.242C107.306 112.417 107.267 112.59 107.191 112.748C107.114 112.907 107.002 113.046 106.862 113.157C105.194 114.616 103.991 116.509 103.393 118.612C102.796 120.715 102.83 122.94 103.49 125.025C104.011 127.148 105.036 129.124 106.485 130.793C107.933 132.462 109.764 133.778 111.831 134.635C111.986 134.682 112.129 134.76 112.252 134.864C112.375 134.967 112.475 135.094 112.546 135.237C112.61 135.381 112.642 135.537 112.642 135.694C112.642 135.851 112.61 136.007 112.546 136.151C112.546 136.232 109.567 143.735 114.583 147.938C117.526 150.554 121.073 152.444 124.925 153.45C125.153 153.491 125.363 153.597 125.531 153.753C125.698 153.91 125.814 154.11 125.866 154.33C125.866 154.608 127.63 161.126 136.017 162.689C144.894 164.345 151.34 160.929 154.688 152.813C154.821 152.435 154.924 152.048 154.997 151.655V50.2274C153.259 48.5796 150.965 47.6005 148.54 47.4718C142.582 47.1939 124.424 54.4189 122.816 60.4628C121.752 64.0013 121.752 67.7619 122.816 71.3003C122.896 71.4903 122.923 71.6977 122.894 71.9012C122.865 72.1047 122.78 72.2969 122.649 72.4582C122.524 72.6145 122.36 72.737 122.172 72.8141C121.984 72.8911 121.779 72.92 121.577 72.8981C121.577 72.8981 121.315 72.8402 120.933 72.8402Z" fill="white"/>
<path d="M118.181 119.339C111.437 119.339 105.528 113.319 105.266 113.052C105.049 112.828 104.933 112.53 104.943 112.222C104.953 111.915 105.089 111.624 105.319 111.414C105.55 111.204 105.857 111.091 106.173 111.101C106.49 111.111 106.789 111.242 107.005 111.466C107.005 111.524 112.963 117.464 118.848 117.001C119.005 116.988 119.162 117.006 119.312 117.053C119.461 117.1 119.599 117.175 119.719 117.274C119.838 117.373 119.936 117.494 120.008 117.63C120.079 117.766 120.123 117.914 120.135 118.066C120.148 118.218 120.129 118.371 120.081 118.516C120.033 118.661 119.955 118.796 119.854 118.912C119.752 119.028 119.627 119.123 119.488 119.193C119.348 119.262 119.195 119.304 119.039 119.316L118.181 119.339Z" fill="white"/>
<path d="M133.146 101.925C131.649 101.92 130.159 101.726 128.714 101.347C118.336 98.6719 117.264 87.0586 117.228 86.5608C117.203 86.2537 117.304 85.9494 117.51 85.7149C117.715 85.4804 118.008 85.3348 118.324 85.3103C118.64 85.2857 118.953 85.3841 119.194 85.5839C119.436 85.7837 119.586 86.0684 119.611 86.3755C119.611 86.8039 120.6 96.7962 129.345 99.1119C131.877 99.7851 134.553 99.7465 137.063 99.0004C139.572 98.2544 141.813 96.8316 143.524 94.8973C143.62 94.7772 143.739 94.6766 143.876 94.6014C144.012 94.5263 144.162 94.4779 144.317 94.4591C144.473 94.4402 144.631 94.4514 144.782 94.4918C144.933 94.5322 145.074 94.6011 145.198 94.6947C145.321 94.7882 145.425 94.9044 145.502 95.0368C145.579 95.1691 145.629 95.315 145.648 95.4661C145.668 95.6171 145.656 95.7704 145.615 95.9172C145.573 96.0639 145.502 96.2013 145.406 96.3214C143.891 98.0501 142.013 99.4443 139.899 100.411C137.785 101.377 135.482 101.894 133.146 101.925Z" fill="white"/>
<path d="M124.27 112.184H123.304C122.988 112.184 122.685 112.062 122.462 111.845C122.239 111.628 122.113 111.333 122.113 111.026C122.113 110.869 122.145 110.714 122.209 110.569C122.273 110.425 122.366 110.295 122.483 110.186C122.6 110.078 122.738 109.994 122.89 109.939C123.041 109.885 123.203 109.86 123.364 109.868C126.676 110.03 129.19 109.278 130.834 107.622C133.432 105.005 133.11 100.93 133.11 100.883C133.097 100.731 133.115 100.578 133.162 100.433C133.21 100.287 133.286 100.152 133.388 100.036C133.489 99.9191 133.613 99.823 133.752 99.7529C133.892 99.6827 134.044 99.64 134.2 99.6271C134.357 99.6141 134.514 99.6313 134.664 99.6775C134.814 99.7238 134.952 99.7982 135.073 99.8966C135.193 99.995 135.291 100.115 135.364 100.251C135.436 100.386 135.48 100.534 135.493 100.687C135.493 100.895 135.922 105.827 132.574 109.208C131.475 110.232 130.17 111.025 128.741 111.537C127.312 112.049 125.79 112.269 124.27 112.184Z" fill="white"/>
<path d="M138.603 88.2049C138.319 88.2089 138.043 88.1143 137.825 87.9381C137.606 87.7619 137.46 87.5158 137.411 87.2439C134.85 73.2108 122.208 72.875 121.672 72.875C121.356 72.875 121.053 72.753 120.83 72.5359C120.606 72.3187 120.481 72.0242 120.481 71.7171C120.481 71.41 120.606 71.1155 120.83 70.8984C121.053 70.6813 121.356 70.5593 121.672 70.5593C121.827 70.5593 136.828 70.8835 139.735 86.8386C139.762 86.9884 139.759 87.142 139.725 87.2906C139.692 87.4391 139.628 87.5798 139.539 87.7046C139.449 87.8293 139.335 87.9356 139.203 88.0175C139.071 88.0994 138.924 88.1552 138.77 88.1817L138.603 88.2049Z" fill="white"/>
<path d="M141.117 151.643C140.801 151.643 140.498 151.521 140.274 151.304C140.051 151.087 139.925 150.793 139.925 150.486C139.687 135.526 124.83 135.086 124.198 135.075C123.882 135.075 123.579 134.953 123.356 134.736C123.132 134.518 123.007 134.224 123.007 133.917C123.007 133.61 123.132 133.315 123.356 133.098C123.579 132.881 123.882 132.759 124.198 132.759C124.377 132.759 141.998 133.234 142.273 150.439C142.273 150.746 142.147 151.041 141.924 151.258C141.7 151.475 141.397 151.597 141.081 151.597L141.117 151.643Z" fill="white"/>
<path d="M130.155 136.256C129.863 136.258 129.579 136.155 129.36 135.967C129.14 135.779 128.999 135.519 128.964 135.237C128.964 135.075 126.974 118.413 144.286 116.236C144.602 116.197 144.922 116.28 145.174 116.469C145.427 116.658 145.591 116.937 145.633 117.244C145.674 117.551 145.587 117.861 145.393 118.107C145.199 118.352 144.912 118.512 144.596 118.552C129.655 120.428 131.252 134.368 131.335 134.959C131.355 135.11 131.344 135.264 131.303 135.411C131.261 135.558 131.191 135.696 131.094 135.817C130.998 135.937 130.878 136.038 130.741 136.113C130.605 136.189 130.454 136.237 130.298 136.256H130.155Z" fill="white"/>
<path d="M156.236 78.259C155.932 78.2595 155.64 78.1471 155.418 77.9448C155.197 77.7424 155.063 77.4655 155.045 77.1706C155.045 76.9969 154.688 73.6044 149.004 72.1919C148.842 72.1642 148.688 72.1042 148.551 72.0157C148.414 71.9273 148.298 71.8122 148.209 71.6778C148.12 71.5435 148.06 71.3926 148.034 71.2349C148.008 71.0771 148.016 70.9158 148.057 70.7611C148.099 70.6065 148.172 70.4618 148.274 70.3361C148.376 70.2105 148.503 70.1067 148.648 70.0311C148.793 69.9556 148.952 69.9101 149.116 69.8974C149.28 69.8846 149.445 69.905 149.6 69.9572C157.106 71.8098 157.416 76.8348 157.428 77.0548C157.428 77.3619 157.302 77.6564 157.079 77.8735C156.856 78.0907 156.552 78.2127 156.236 78.2127V78.259Z" fill="white"/>
<path d="M139.925 59.2703C139.759 59.2699 139.595 59.2357 139.443 59.1699C139.291 59.1041 139.155 59.0081 139.044 58.8882C133.742 53.1684 127.653 55.2525 127.391 55.3451C127.094 55.4494 126.767 55.4348 126.481 55.3046C126.195 55.1743 125.974 54.939 125.866 54.6504C125.758 54.3633 125.772 54.0463 125.903 53.7686C126.035 53.491 126.274 53.2752 126.569 53.1684C126.879 53.0526 134.409 50.4243 140.867 57.3367C140.972 57.4503 141.054 57.5832 141.106 57.7276C141.159 57.872 141.181 58.0251 141.172 58.1781C141.163 58.331 141.123 58.4807 141.054 58.6185C140.986 58.7563 140.889 58.8794 140.771 58.9808C140.539 59.1807 140.235 59.2845 139.925 59.2703Z" fill="white"/>
<path d="M126.593 135.098C126.293 135.099 126.003 134.99 125.782 134.792C125.562 134.595 125.425 134.323 125.401 134.033C125.251 132.854 124.789 131.733 124.06 130.779C123.331 129.826 122.361 129.072 121.243 128.591C120.951 128.474 120.718 128.249 120.597 127.966C120.475 127.682 120.474 127.364 120.594 127.08C120.714 126.796 120.945 126.57 121.237 126.451C121.528 126.333 121.856 126.332 122.149 126.449C123.671 127.092 124.991 128.114 125.978 129.41C126.966 130.707 127.584 132.233 127.772 133.836C127.799 134.141 127.7 134.444 127.496 134.679C127.293 134.913 127.002 135.06 126.688 135.086L126.593 135.098Z" fill="white"/>
<path d="M179.22 165.41C171.511 165.41 165.661 161.358 162.539 153.67C162.343 153.142 162.192 152.6 162.087 152.049C162.081 151.972 162.081 151.894 162.087 151.817V49.7412C162.088 49.4431 162.207 49.1569 162.42 48.9422C164.616 46.6787 167.624 45.323 170.82 45.1561C176.968 44.8898 196.889 52.1032 198.95 59.8839C199.935 63.3634 200.078 67.0173 199.367 70.5593C201.95 70.6924 204.45 71.4906 206.611 72.8722C208.772 74.2537 210.515 76.1688 211.663 78.4211C215.238 84.9861 213.415 89.5017 212.235 91.4122C214.416 93.1374 219.384 97.8382 218.574 104.149C218.276 107.13 217.059 109.955 215.083 112.253C216.789 114.011 217.986 116.177 218.551 118.53C219.116 120.883 219.029 123.34 218.3 125.65C217.706 127.944 216.614 130.089 215.097 131.94C213.581 133.791 211.675 135.306 209.507 136.383C210.257 138.942 211.52 145.437 206.433 149.698C203.333 152.378 199.676 154.376 195.71 155.557C194.799 158.016 193.221 160.189 191.142 161.846C189.063 163.504 186.561 164.583 183.902 164.97C182.359 165.258 180.791 165.405 179.22 165.41ZM164.398 151.701C164.464 152.096 164.568 152.483 164.708 152.859C168.044 160.964 174.514 164.438 183.378 162.736C191.825 161.161 193.517 154.445 193.529 154.376C193.581 154.156 193.698 153.956 193.865 153.8C194.032 153.643 194.242 153.538 194.47 153.496C198.314 152.478 201.854 150.589 204.8 147.985C209.828 143.782 206.886 136.279 206.85 136.198C206.786 136.053 206.753 135.898 206.753 135.74C206.753 135.583 206.786 135.428 206.85 135.283C206.919 135.142 207.017 135.016 207.138 134.912C207.259 134.809 207.4 134.73 207.553 134.681C207.803 134.6 213.725 132.608 215.893 125.071C216.56 122.987 216.597 120.76 215.999 118.656C215.401 116.552 214.194 114.659 212.521 113.203C212.38 113.091 212.266 112.95 212.19 112.789C212.114 112.629 212.076 112.453 212.08 112.277C212.084 112.101 212.129 111.928 212.211 111.772C212.294 111.615 212.412 111.479 212.557 111.373C212.664 111.292 215.393 109.22 216.131 103.882C216.989 97.433 209.936 92.7205 209.864 92.6742C209.721 92.5813 209.6 92.4594 209.51 92.3168C209.42 92.1742 209.363 92.0143 209.342 91.8481C209.322 91.6819 209.339 91.5134 209.392 91.3542C209.445 91.195 209.533 91.0489 209.65 90.9259C209.805 90.7638 213.355 86.746 209.483 79.5442C208.418 77.4568 206.75 75.717 204.682 74.5384C202.614 73.3598 200.237 72.7937 197.842 72.9097C197.641 72.9283 197.437 72.8965 197.252 72.8175C197.066 72.7385 196.905 72.6148 196.782 72.4582C196.651 72.2969 196.566 72.1047 196.537 71.9012C196.508 71.6977 196.535 71.4903 196.615 71.3003C197.68 67.7619 197.68 64.0013 196.615 60.4628C195.9 57.823 191.671 54.5115 185.272 51.5937C179.839 49.1159 173.632 47.3444 170.891 47.4718C168.466 47.5974 166.17 48.577 164.434 50.2275L164.398 151.701Z" fill="white"/>
<path d="M201.262 119.339H200.404C200.247 119.328 200.095 119.286 199.955 119.217C199.815 119.148 199.69 119.052 199.588 118.936C199.486 118.82 199.409 118.685 199.361 118.54C199.313 118.394 199.295 118.241 199.308 118.089C199.32 117.937 199.363 117.788 199.434 117.652C199.505 117.516 199.604 117.395 199.723 117.296C199.843 117.197 199.981 117.122 200.131 117.075C200.28 117.029 200.438 117.011 200.595 117.024C206.552 117.498 212.378 111.547 212.438 111.489C212.653 111.266 212.951 111.134 213.265 111.123C213.58 111.112 213.887 111.223 214.118 111.431C214.229 111.539 214.318 111.667 214.378 111.808C214.439 111.949 214.47 112.101 214.47 112.253C214.47 112.406 214.439 112.558 214.378 112.699C214.318 112.84 214.229 112.968 214.118 113.076C213.867 113.319 208.005 119.339 201.262 119.339Z" fill="white"/>
<path d="M186.297 101.925C183.962 101.893 181.662 101.377 179.549 100.41C177.437 99.4439 175.562 98.0498 174.049 96.3214C173.953 96.2013 173.882 96.0639 173.84 95.9172C173.798 95.7704 173.787 95.6171 173.806 95.4661C173.826 95.315 173.876 95.1691 173.953 95.0368C174.03 94.9044 174.134 94.7882 174.257 94.6947C174.381 94.6011 174.522 94.5322 174.673 94.4918C174.824 94.4514 174.982 94.4402 175.138 94.4591C175.293 94.4779 175.443 94.5262 175.579 94.6014C175.715 94.6766 175.835 94.7772 175.931 94.8973C177.639 96.8361 179.879 98.2622 182.39 99.0086C184.901 99.755 187.579 99.7908 190.11 99.1119C198.855 96.7962 199.808 86.8039 199.844 86.3755C199.857 86.2235 199.9 86.0753 199.971 85.9395C200.043 85.8036 200.141 85.6828 200.26 85.5839C200.38 85.485 200.518 85.4099 200.668 85.363C200.817 85.316 200.974 85.2981 201.131 85.3103C201.287 85.3224 201.44 85.3644 201.579 85.4339C201.719 85.5033 201.844 85.5988 201.945 85.7149C202.047 85.831 202.124 85.9655 202.173 86.1106C202.221 86.2558 202.239 86.4087 202.227 86.5608C202.227 87.0586 201.119 98.6719 190.741 101.347C189.292 101.725 187.798 101.92 186.297 101.925Z" fill="white"/>
<path d="M195.162 112.184C193.634 112.272 192.104 112.05 190.668 111.534C189.232 111.018 187.923 110.218 186.821 109.185C184.73 106.83 183.681 103.767 183.902 100.663C183.916 100.511 183.96 100.363 184.032 100.228C184.104 100.092 184.203 99.9718 184.323 99.8735C184.443 99.7751 184.582 99.7006 184.731 99.6544C184.881 99.6082 185.039 99.591 185.195 99.6039C185.352 99.6168 185.504 99.6596 185.643 99.7297C185.783 99.7999 185.907 99.896 186.008 100.013C186.109 100.129 186.186 100.264 186.233 100.41C186.281 100.555 186.299 100.708 186.285 100.86C186.131 103.306 186.945 105.717 188.561 107.599C190.205 109.255 192.707 110.007 196.031 109.845C196.347 109.845 196.65 109.967 196.874 110.184C197.097 110.401 197.223 110.696 197.223 111.003C197.223 111.3 197.106 111.586 196.895 111.802C196.684 112.017 196.397 112.146 196.091 112.161L195.162 112.184Z" fill="white"/>
<path d="M180.828 88.2049H180.626C180.472 88.1783 180.324 88.1225 180.192 88.0407C180.06 87.9588 179.946 87.8524 179.857 87.7277C179.767 87.603 179.704 87.4623 179.67 87.3137C179.636 87.1651 179.633 87.0116 179.661 86.8618C182.568 70.9066 197.533 70.5824 197.711 70.5824C198.027 70.5824 198.33 70.7044 198.554 70.9216C198.777 71.1387 198.903 71.4332 198.903 71.7403C198.903 72.0474 198.777 72.3419 198.554 72.559C198.33 72.7761 198.027 72.8981 197.711 72.8981C197.163 72.8981 184.534 73.2339 181.972 87.267C181.92 87.5268 181.779 87.7616 181.571 87.9323C181.362 88.1029 181.1 88.1991 180.828 88.2049Z" fill="white"/>
<path d="M178.326 151.643C178.01 151.643 177.707 151.521 177.484 151.304C177.26 151.087 177.135 150.793 177.135 150.486C177.409 133.28 195.007 132.805 195.197 132.805C195.513 132.805 195.816 132.927 196.04 133.144C196.263 133.362 196.389 133.656 196.389 133.963C196.389 134.27 196.263 134.565 196.04 134.782C195.816 134.999 195.513 135.121 195.197 135.121C194.566 135.121 179.708 135.573 179.47 150.532C179.458 150.823 179.334 151.099 179.122 151.305C178.91 151.511 178.626 151.632 178.326 151.643Z" fill="white"/>
<path d="M189.276 136.256H189.133C188.977 136.237 188.826 136.189 188.69 136.113C188.553 136.038 188.433 135.937 188.337 135.817C188.241 135.696 188.17 135.558 188.128 135.411C188.087 135.264 188.076 135.11 188.096 134.959C188.168 134.368 189.776 120.428 174.835 118.552C174.679 118.532 174.528 118.483 174.391 118.406C174.254 118.33 174.134 118.228 174.038 118.107C173.844 117.861 173.758 117.551 173.799 117.244C173.84 116.937 174.005 116.658 174.257 116.469C174.51 116.28 174.829 116.197 175.145 116.236C192.421 118.448 190.479 135.075 190.455 135.237C190.42 135.517 190.281 135.776 190.064 135.963C189.847 136.151 189.566 136.255 189.276 136.256Z" fill="white"/>
<path d="M163.206 78.259C162.89 78.259 162.587 78.137 162.364 77.9199C162.141 77.7027 162.015 77.4082 162.015 77.1011C162.015 76.8812 162.337 71.8561 169.843 70.0035C170.136 69.959 170.436 70.0224 170.683 70.1813C170.931 70.3402 171.109 70.5831 171.182 70.8626C171.255 71.142 171.218 71.4379 171.078 71.6923C170.939 71.9468 170.706 72.1414 170.427 72.2382C164.624 73.6855 164.398 77.1706 164.398 77.2053C164.371 77.494 164.234 77.7624 164.013 77.9575C163.793 78.1526 163.505 78.2602 163.206 78.259Z" fill="white"/>
<path d="M179.506 59.2702C179.275 59.2697 179.05 59.2044 178.858 59.0821C178.665 58.9599 178.512 58.786 178.419 58.5815C178.326 58.3769 178.296 58.1505 178.332 57.9296C178.368 57.7087 178.47 57.5027 178.624 57.3366C185.034 50.3895 192.552 53.0526 192.922 53.1684C193.069 53.2212 193.204 53.3018 193.319 53.4056C193.434 53.5094 193.527 53.6343 193.593 53.7731C193.658 53.9119 193.694 54.0619 193.7 54.2145C193.705 54.367 193.68 54.5191 193.624 54.662C193.57 54.8052 193.487 54.9366 193.38 55.0485C193.274 55.1604 193.145 55.2508 193.002 55.3142C192.859 55.3777 192.705 55.4131 192.548 55.4184C192.391 55.4237 192.235 55.3988 192.088 55.3451C191.837 55.2525 185.737 53.1684 180.447 58.8881C180.329 59.0156 180.183 59.116 180.021 59.182C179.858 59.2481 179.682 59.2782 179.506 59.2702Z" fill="white"/>
<path d="M192.85 135.086H192.743C192.429 135.06 192.138 134.913 191.935 134.679C191.732 134.444 191.632 134.141 191.659 133.836C191.843 132.234 192.459 130.707 193.445 129.41C194.43 128.114 195.749 127.092 197.27 126.449C197.416 126.39 197.572 126.36 197.729 126.361C197.887 126.361 198.042 126.392 198.187 126.451C198.333 126.51 198.464 126.597 198.575 126.706C198.685 126.815 198.772 126.944 198.831 127.085C198.949 127.37 198.946 127.688 198.824 127.97C198.701 128.252 198.468 128.475 198.176 128.591C197.058 129.07 196.089 129.824 195.362 130.778C194.635 131.732 194.176 132.854 194.03 134.033C194.003 134.319 193.867 134.586 193.649 134.781C193.431 134.976 193.146 135.085 192.85 135.086Z" fill="white"/>
<path d="M303.942 79.081C300.844 69.4477 282.972 64.9553 253.412 66.4489C248.837 66.6805 244.071 67.0664 239.115 67.6068L239.627 68.7646C247.787 67.9013 255.987 67.4453 264.195 67.3983C285.868 67.3983 300.129 71.3698 302.715 79.5442C306.718 92.2805 281.662 111.86 241.116 130.49C218.281 140.816 194.722 149.56 170.617 156.657C150.358 162.749 129.756 167.706 108.912 171.501C94.7409 174.105 80.4147 175.833 66.0189 176.676C37.5311 178.112 19.5519 173.816 16.752 164.889C12.8678 152.639 36.149 133.894 74.2996 115.808C74.2996 115.403 74.1685 114.998 74.097 114.581C65.3517 118.714 57.2855 122.952 50.0533 127.213C24.7467 142.08 12.5104 155.592 15.5009 165.248C18.1698 173.677 32.1814 178.181 55.4268 178.181C58.7748 178.181 62.3135 178.077 66.0308 177.892C80.6853 177.044 95.2677 175.273 109.686 172.589C130.391 168.813 150.854 163.88 170.975 157.815C194.743 150.814 217.977 142.206 240.509 132.053C250.403 127.577 260.055 122.611 269.425 117.174C294.732 102.238 306.98 88.7491 303.942 79.081Z" fill="#093269"/>
<path d="M269.437 127.178C262.193 122.917 254.139 118.68 245.394 114.546C245.322 114.963 245.239 115.368 245.179 115.773C283.306 133.859 306.623 152.604 302.739 164.855C299.903 173.782 281.948 178.077 253.472 176.641C239.076 175.8 224.75 174.071 210.579 171.466C189.719 167.684 169.101 162.739 148.826 156.657C124.703 149.551 101.131 140.783 78.291 130.42C68.8274 126.121 59.5973 121.352 50.6372 116.132C26.2599 101.752 13.8686 88.3439 16.7043 79.4516C19.2779 71.2772 33.5278 67.3057 55.2124 67.3057C63.4241 67.3489 71.6282 67.801 79.7923 68.6604C79.9591 68.2899 80.1259 67.9078 80.3046 67.5026C75.3719 66.9931 70.6061 66.6072 66.007 66.3447C36.4945 64.9553 18.5511 69.4477 15.501 79.0811C12.4508 88.7144 24.699 102.238 50.0534 117.128C59.4201 122.565 69.0678 127.531 78.9582 132.006C101.477 142.173 124.699 150.797 148.456 157.815C168.577 163.881 189.04 168.814 209.745 172.589C224.167 175.273 238.754 177.045 253.412 177.892C257.13 178.077 260.656 178.181 264.016 178.181C287.226 178.181 301.273 173.677 303.942 165.248C306.98 155.557 294.732 142.045 269.437 127.178Z" fill="#093269"/>
<path d="M99.1416 188.093L87.918 194.345C86.9392 193.987 85.902 193.802 84.856 193.801H43.1548C40.8322 193.801 38.6048 194.697 36.9625 196.293C35.3202 197.889 34.3975 200.054 34.3975 202.311V223.488C34.3975 225.745 35.3202 227.91 36.9625 229.506C38.6048 231.102 40.8322 231.998 43.1548 231.998H84.856C87.1785 231.998 89.406 231.102 91.0483 229.506C92.6906 227.91 93.6132 225.745 93.6132 223.488V202.311C93.6077 201.113 93.3439 199.93 92.8387 198.837L99.1416 188.093Z" fill="white"/>
<path d="M84.8559 232.577H43.1547C40.6751 232.574 38.298 231.615 36.5447 229.912C34.7913 228.208 33.8049 225.898 33.8018 223.488V202.311C33.8049 199.901 34.7913 197.591 36.5447 195.887C38.298 194.183 40.6751 193.225 43.1547 193.222H84.8559C85.8775 193.222 86.8919 193.387 87.8584 193.708L98.8437 187.595C98.9563 187.53 99.088 187.504 99.2176 187.521C99.3472 187.538 99.4673 187.596 99.5586 187.687C99.6504 187.777 99.7095 187.894 99.7267 188.019C99.7439 188.145 99.7183 188.272 99.6539 188.382L93.494 198.803C93.9687 199.902 94.2118 201.084 94.2089 202.276V223.453C94.212 224.649 93.9725 225.834 93.504 226.94C93.0355 228.046 92.3473 229.052 91.4786 229.899C90.61 230.747 89.5779 231.419 88.4416 231.879C87.3052 232.338 86.0867 232.576 84.8559 232.577ZM43.1547 194.368C40.9911 194.371 38.9171 195.208 37.3872 196.695C35.8573 198.181 34.9964 200.197 34.9932 202.299V223.476C34.9932 225.58 35.8531 227.597 37.3837 229.085C38.9143 230.572 40.9902 231.408 43.1547 231.408H84.8559C87.0205 231.408 89.0964 230.572 90.627 229.085C92.1576 227.597 93.0174 225.58 93.0174 223.476V202.311C93.0211 201.188 92.7731 200.078 92.2907 199.057C92.2468 198.975 92.2239 198.884 92.2239 198.791C92.2239 198.698 92.2468 198.607 92.2907 198.525L97.5092 189.656L88.2158 194.866C88.135 194.9 88.0478 194.918 87.9597 194.918C87.8715 194.918 87.7844 194.9 87.7035 194.866C86.7933 194.532 85.8288 194.36 84.8559 194.357L43.1547 194.368Z" fill="#D5E6FB"/>
<path d="M257.952 193.801C251.317 193.735 244.745 195.045 238.674 197.645L224.805 190.489L229.356 203.874C226.489 206.662 224.831 210.412 224.722 214.353C224.722 225.711 239.567 234.916 257.868 234.916C276.169 234.916 291.003 225.653 291.003 214.353C291.003 203.052 276.193 193.801 257.952 193.801Z" fill="white"/>
<path d="M257.952 235.495C239.341 235.495 224.209 226.012 224.209 214.353C224.304 210.382 225.933 206.591 228.773 203.735L224.245 190.675C224.206 190.565 224.201 190.446 224.233 190.335C224.265 190.223 224.332 190.123 224.424 190.049C224.515 189.974 224.627 189.927 224.746 189.915C224.865 189.902 224.986 189.925 225.091 189.98L238.698 196.996C244.774 194.446 251.333 193.16 257.952 193.222C276.55 193.222 291.682 202.705 291.682 214.353C291.682 226.001 276.491 235.495 257.952 235.495ZM225.782 191.682L229.94 203.689C229.976 203.788 229.982 203.894 229.959 203.996C229.936 204.098 229.884 204.192 229.809 204.268C227.042 206.948 225.438 210.557 225.329 214.353C225.329 225.375 239.937 234.337 257.88 234.337C275.824 234.337 290.419 225.375 290.419 214.353C290.419 203.33 275.824 194.38 257.952 194.38C251.392 194.308 244.893 195.599 238.888 198.166C238.805 198.206 238.713 198.226 238.62 198.226C238.527 198.226 238.435 198.206 238.352 198.166L225.782 191.682Z" fill="#D5E6FB"/>
<path d="M79.9352 4.15662H33.9567V43.3267H73.3702L79.9233 49.3012L77.8621 43.3267H79.9233L79.9352 4.15662Z" fill="white"/>
<path d="M79.9352 49.8801C79.7841 49.8769 79.6397 49.8191 79.5301 49.718L73.1557 43.9288H33.9566C33.7986 43.9288 33.6471 43.8678 33.5354 43.7592C33.4237 43.6506 33.3609 43.5034 33.3609 43.3498V4.15662C33.3609 4.00308 33.4237 3.85583 33.5354 3.74726C33.6471 3.63869 33.7986 3.5777 33.9566 3.5777H79.9233C80.0813 3.5777 80.2328 3.63869 80.3445 3.74726C80.4562 3.85583 80.519 4.00308 80.519 4.15662V43.3267C80.519 43.4802 80.4562 43.6275 80.3445 43.736C80.2328 43.8446 80.0813 43.9056 79.9233 43.9056H78.7318L80.5309 49.1159C80.5587 49.2036 80.565 49.2963 80.5495 49.3867C80.534 49.4771 80.4971 49.5628 80.4416 49.637C80.3861 49.7111 80.3136 49.7717 80.2298 49.8139C80.1461 49.8561 80.0533 49.8788 79.959 49.8801H79.9352ZM34.5643 42.7477H73.3821C73.5371 42.7492 73.6859 42.807 73.7991 42.9098L78.6246 47.3097L77.3139 43.5119C77.2838 43.4252 77.2752 43.3327 77.289 43.2421C77.3028 43.1515 77.3384 43.0654 77.3931 42.9908C77.4477 42.9162 77.5198 42.8553 77.6034 42.8131C77.687 42.7708 77.7797 42.7484 77.8739 42.7477H79.3394V4.73555H34.5643V42.7477Z" fill="#D5E6FB"/>
<path d="M56.9519 150.335C52.9248 150.335 52.9248 156.425 56.9519 156.425C60.9791 156.425 60.991 150.335 56.9519 150.335Z" fill="#D5E6FB"/>
<path d="M3.1693 105.098C3.11367 104.895 3.00248 104.711 2.8476 104.565L2.14464 103.871C2.03263 103.758 1.89335 103.674 1.73954 103.627C1.59072 103.547 1.42087 103.511 1.25105 103.523C1.0851 103.512 0.919319 103.548 0.774458 103.627C0.620649 103.674 0.481373 103.758 0.369357 103.871L0.178727 104.125C0.0612145 104.31 -0.000709705 104.522 6.13672e-06 104.739V105.063C0.0597284 105.264 0.170329 105.447 0.321697 105.596L1.02466 106.279C1.13598 106.395 1.27515 106.483 1.42976 106.534C1.58317 106.602 1.74968 106.637 1.91826 106.638C2.08326 106.639 2.24635 106.604 2.39485 106.534C2.54945 106.483 2.68862 106.395 2.79994 106.279L2.99058 106.036C3.10809 105.852 3.17002 105.639 3.1693 105.422V105.098Z" fill="#D5E6FB"/>
<path d="M56.6898 88.506C56.6372 88.3557 56.5472 88.2205 56.4277 88.1123C56.3178 87.9971 56.1778 87.9131 56.0226 87.8691C55.878 87.789 55.712 87.7527 55.546 87.7649H55.2124C55.004 87.819 54.8145 87.927 54.6643 88.0776L54.4618 88.3323C54.3528 88.5195 54.2954 88.7309 54.295 88.9459V89.6291C54.3093 89.9483 54.4403 90.2521 54.6643 90.4859C54.7691 90.604 54.905 90.692 55.0575 90.7406C55.2109 90.8085 55.3774 90.8441 55.546 90.8448H55.8796C56.0881 90.7908 56.2775 90.6827 56.4277 90.5322L56.6302 90.289C56.7382 90.1015 56.7956 89.8903 56.7971 89.6754V88.9923C56.798 88.8245 56.7614 88.6586 56.6898 88.506Z" fill="#D5E6FB"/>
<path d="M268.46 157.873C264.433 157.873 264.433 163.963 268.46 163.963C272.488 163.963 272.499 157.873 268.46 157.873Z" fill="#D5E6FB"/>
<path d="M307.993 116.132C303.966 116.132 303.954 122.211 307.993 122.211C312.032 122.211 311.973 116.132 307.993 116.132Z" fill="#D5E6FB"/>
<path d="M216.596 212.234C216.507 212.017 216.373 211.82 216.203 211.655C216.033 211.489 215.83 211.359 215.607 211.273C215.382 211.161 215.133 211.105 214.88 211.111L214.38 211.18C214.067 211.264 213.783 211.428 213.558 211.655L213.26 212.014C213.092 212.295 213.001 212.614 212.998 212.94V213.623C212.992 213.868 213.049 214.111 213.165 214.329C213.24 214.556 213.376 214.76 213.558 214.92C213.922 215.241 214.389 215.429 214.88 215.453L215.381 215.383C215.693 215.304 215.977 215.144 216.203 214.92L216.501 214.549C216.67 214.268 216.761 213.949 216.763 213.623V212.94C216.769 212.695 216.711 212.452 216.596 212.234Z" fill="#D5E6FB"/>
<path d="M281.781 18.8729C279.98 18.9184 278.208 19.3303 276.581 20.0822C274.953 20.834 273.506 21.9091 272.333 23.238C266.493 19.1117 259.218 17.3817 252.078 18.4213C248.878 18.6753 245.839 19.8891 243.38 21.8949C242.57 22.6359 239.186 29.5135 239.567 29.4209C235.254 30.4745 232.514 35.2101 233.133 39.4479C233.548 41.5752 234.529 43.56 235.977 45.2052C237.426 46.8504 239.292 48.0988 241.39 48.8265C242.775 49.3179 244.198 49.705 245.644 49.9843C243.693 52.6233 241.272 54.9016 238.495 56.7114C240.804 56.6773 243.08 56.1722 245.176 55.2287C247.272 54.2853 249.14 52.9246 250.66 51.2348C252.745 51.9874 254.651 53.1452 256.701 53.9673C261.717 56.0051 267.424 55.982 272.726 54.9746C276.579 54.384 280.222 52.8765 283.33 50.5864C284.872 49.4326 286.114 47.9432 286.957 46.2379C287.799 44.5326 288.218 42.659 288.179 40.7678C292.945 42.0762 297.627 37.2943 297.568 32.4776C297.484 24.1527 289.478 18.5371 281.781 18.8729Z" fill="white"/>
<path d="M238.531 57.244C238.403 57.2448 238.279 57.2058 238.176 57.1329C238.073 57.0599 237.997 56.9569 237.959 56.8388C237.924 56.7201 237.928 56.5936 237.971 56.4773C238.013 56.361 238.093 56.2607 238.197 56.1904C240.65 54.5827 242.815 52.5958 244.607 50.3085C243.438 50.072 242.287 49.7547 241.164 49.3591C238.964 48.5982 237.009 47.2883 235.495 45.5608C233.98 43.8333 232.961 41.749 232.538 39.5173C231.871 34.9554 234.813 30.2545 239.019 28.9578C239.451 27.7678 239.965 26.6073 240.556 25.4842C241.21 24.0525 242.008 22.6873 242.939 21.4086C245.503 19.3289 248.666 18.0711 251.994 17.8077C259.108 16.7571 266.364 18.4163 272.249 22.4391C273.471 21.1603 274.943 20.1326 276.581 19.4167C278.218 18.7007 279.986 18.3111 281.781 18.2708C286.193 18.1438 290.478 19.7218 293.695 22.6591C295.087 23.912 296.204 25.4258 296.978 27.1092C297.752 28.7926 298.168 30.6109 298.199 32.4545C298.177 33.9049 297.818 35.3317 297.15 36.6287C296.481 37.9257 295.521 39.0595 294.339 39.9457C293.579 40.5553 292.698 41.0058 291.751 41.2688C290.804 41.5318 289.811 41.6017 288.834 41.4741C288.737 43.3253 288.233 45.1348 287.355 46.7806C286.478 48.4264 285.247 49.8703 283.747 51.0148C280.569 53.3752 276.833 54.9238 272.881 55.5188C266.637 56.6767 261.133 56.3525 256.51 54.4883C255.569 54.1063 254.663 53.6663 253.793 53.2263C252.924 52.7863 251.863 52.2884 250.862 51.8947C249.292 53.5592 247.388 54.8942 245.267 55.818C243.147 56.7419 240.854 57.235 238.531 57.2672V57.244ZM239.722 29.9651C235.874 30.9145 233.133 35.2101 233.765 39.3552C234.155 41.3831 235.088 43.2751 236.471 44.8404C237.854 46.4057 239.637 47.5889 241.64 48.2707C242.994 48.7598 244.384 49.1469 245.799 49.4285C245.895 49.446 245.985 49.4871 246.06 49.5479C246.135 49.6087 246.193 49.6872 246.228 49.7759C246.266 49.8661 246.28 49.9641 246.27 50.0611C246.259 50.158 246.224 50.251 246.168 50.3317C244.573 52.4392 242.684 54.3213 240.556 55.9241C244.311 55.374 247.746 53.5534 250.255 50.7832C250.335 50.6954 250.44 50.6338 250.558 50.6069C250.675 50.5799 250.798 50.589 250.91 50.6327C252.098 51.0756 253.256 51.5899 254.377 52.1726C255.235 52.5895 256.117 53.0294 257.01 53.3305C261.419 55.1136 266.685 55.4378 272.702 54.2915C276.425 53.7484 279.953 52.3206 282.972 50.1348C284.435 49.0348 285.615 47.6188 286.417 45.999C287.22 44.3792 287.623 42.6001 287.595 40.8026C287.59 40.7092 287.606 40.6158 287.643 40.5295C287.68 40.4432 287.737 40.3663 287.81 40.3047C287.885 40.2486 287.972 40.2101 288.065 40.192C288.158 40.1739 288.254 40.1768 288.346 40.2005C289.251 40.4288 290.2 40.4429 291.112 40.2414C292.024 40.04 292.873 39.6289 293.588 39.0426C294.627 38.2678 295.472 37.2749 296.06 36.138C296.648 35.0012 296.964 33.7498 296.984 32.4776C296.957 30.7898 296.579 29.1248 295.872 27.5827C295.166 26.0406 294.146 24.6533 292.873 23.5043C291.401 22.1525 289.669 21.0966 287.775 20.3971C285.882 19.6977 283.865 19.3686 281.84 19.4287C280.12 19.4702 278.428 19.8627 276.875 20.5808C275.321 21.2989 273.94 22.3265 272.821 23.5969C272.722 23.7079 272.583 23.778 272.432 23.793C272.282 23.8081 272.131 23.7669 272.011 23.678C266.293 19.615 259.149 17.9242 252.149 18.9771C249.081 19.242 246.171 20.4138 243.809 22.3349C242.366 24.5388 241.138 26.8684 240.139 29.2935C240.168 29.4362 240.137 29.5839 240.055 29.7051C239.972 29.8262 239.844 29.9113 239.698 29.9419L239.722 29.9651Z" fill="#D5E6FB"/>
<path d="M265.565 91.4585C264.72 91.4539 263.895 91.2062 263.195 90.7467C262.495 90.2872 261.95 89.6364 261.63 88.8765C261.31 88.1166 261.229 87.2815 261.397 86.4768C261.564 85.672 261.974 84.9335 262.573 84.3545C263.172 83.7755 263.934 83.3819 264.763 83.2234C265.592 83.0648 266.451 83.1485 267.231 83.4638C268.011 83.7791 268.678 84.3118 269.147 84.9949C269.616 85.6779 269.866 86.4807 269.866 87.3018C269.866 87.8496 269.755 88.392 269.538 88.8978C269.322 89.4037 269.005 89.8629 268.605 90.2492C268.205 90.6355 267.731 90.9412 267.209 91.1487C266.688 91.3563 266.129 91.4615 265.565 91.4585ZM265.565 84.303C264.956 84.3075 264.361 84.4873 263.857 84.8196C263.353 85.1519 262.961 85.6218 262.731 86.1701C262.501 86.7185 262.443 87.3207 262.565 87.9009C262.687 88.4811 262.983 89.0133 263.415 89.4303C263.848 89.8474 264.398 90.1307 264.996 90.2446C265.593 90.3584 266.213 90.2977 266.775 90.0701C267.338 89.8424 267.818 89.4581 268.156 88.9654C268.494 88.4728 268.675 87.8939 268.675 87.3018C268.675 86.906 268.594 86.5142 268.438 86.1488C268.281 85.7835 268.052 85.4518 267.763 85.1731C267.473 84.8943 267.13 84.6739 266.753 84.5246C266.376 84.3752 265.972 84.2999 265.565 84.303Z" fill="#D5E6FB"/>
<path d="M166.674 8.3133C165.829 8.30872 165.004 8.06105 164.304 7.60154C163.604 7.14203 163.059 6.49125 162.739 5.73133C162.419 4.9714 162.338 4.13637 162.505 3.33159C162.673 2.5268 163.082 1.78832 163.681 1.20931C164.281 0.630301 165.043 0.236713 165.872 0.0781948C166.701 -0.0803236 167.56 0.00332985 168.34 0.318608C169.12 0.633886 169.787 1.16666 170.256 1.84971C170.725 2.53276 170.975 3.33549 170.975 4.15662C170.975 4.70443 170.863 5.24685 170.647 5.75267C170.431 6.2585 170.113 6.71776 169.714 7.10405C169.314 7.49034 168.84 7.79603 168.318 8.00356C167.796 8.21108 167.237 8.31635 166.674 8.3133ZM166.674 1.15779C166.064 1.16236 165.47 1.34212 164.966 1.6744C164.461 2.00668 164.07 2.47662 163.84 3.02497C163.61 3.57332 163.552 4.17554 163.674 4.75573C163.796 5.33591 164.091 5.86808 164.524 6.28516C164.956 6.70224 165.506 6.98556 166.104 7.09941C166.702 7.21325 167.321 7.15253 167.884 6.92489C168.446 6.69725 168.927 6.31288 169.265 5.82024C169.603 5.3276 169.783 4.74874 169.783 4.15662C169.783 3.76085 169.703 3.36899 169.546 3.00364C169.39 2.63829 169.16 2.30666 168.871 2.02789C168.582 1.74912 168.239 1.52871 167.862 1.37938C167.485 1.23004 167.081 1.15473 166.674 1.15779Z" fill="#D5E6FB"/>
<path d="M31.6809 122.744C31.0743 122.746 30.4807 122.573 29.9753 122.247C29.4699 121.921 29.0756 121.456 28.8424 120.912C28.6091 120.368 28.5475 119.769 28.6653 119.19C28.783 118.612 29.0749 118.081 29.5039 117.664C29.9328 117.247 30.4795 116.963 31.0746 116.849C31.6697 116.734 32.2863 116.794 32.8463 117.021C33.4063 117.248 33.8845 117.631 34.22 118.122C34.5556 118.613 34.7334 119.19 34.7311 119.779C34.7311 120.566 34.4097 121.32 33.8377 121.875C33.2657 122.431 32.4899 122.744 31.6809 122.744ZM31.6809 117.962C31.3105 117.959 30.9477 118.064 30.6385 118.262C30.3293 118.461 30.0877 118.744 29.9443 119.076C29.8009 119.408 29.7621 119.774 29.8329 120.127C29.9038 120.48 30.081 120.805 30.3421 121.061C30.6032 121.316 30.9365 121.49 31.2997 121.561C31.6629 121.633 32.0396 121.597 32.3821 121.46C32.7246 121.323 33.0175 121.09 33.2235 120.791C33.4296 120.491 33.5396 120.139 33.5396 119.779C33.5412 119.541 33.4943 119.305 33.4016 119.085C33.3089 118.864 33.1722 118.664 32.9995 118.495C32.8267 118.326 32.6213 118.192 32.395 118.1C32.1687 118.009 31.926 117.962 31.6809 117.962Z" fill="#D5E6FB"/>
<path d="M207.124 11.0227C206.792 11.0227 206.474 11.1507 206.239 11.3787C206.005 11.6067 205.873 11.916 205.873 12.2384C205.873 12.5608 206.005 12.8701 206.239 13.0981C206.474 13.3261 206.792 13.4541 207.124 13.4541C207.456 13.4541 207.774 13.3261 208.009 13.0981C208.243 12.8701 208.375 12.5608 208.375 12.2384C208.375 11.916 208.243 11.6067 208.009 11.3787C207.774 11.1507 207.456 11.0227 207.124 11.0227Z" fill="#D5E6FB"/>
<path d="M107.72 12.551C104.491 12.551 104.491 17.414 107.72 17.414C110.949 17.414 110.949 12.551 107.72 12.551Z" fill="#D5E6FB"/>
<path d="M82.068 208.367H49.4457C49.2877 208.367 49.1362 208.306 49.0245 208.197C48.9127 208.088 48.85 207.941 48.85 207.788C48.853 207.635 48.9168 207.489 49.0278 207.382C49.1389 207.274 49.2887 207.212 49.4457 207.209H82.1037C82.2617 207.209 82.4132 207.27 82.5249 207.378C82.6367 207.487 82.6994 207.634 82.6994 207.788C82.6996 207.867 82.683 207.945 82.6509 208.017C82.6188 208.09 82.5717 208.156 82.5125 208.21C82.4533 208.264 82.3834 208.306 82.3069 208.333C82.2305 208.36 82.1491 208.371 82.068 208.367Z" fill="#D5E6FB"/>
<path d="M73.0009 218.266H49.4457C49.2877 218.266 49.1362 218.205 49.0245 218.097C48.9127 217.988 48.85 217.841 48.85 217.687C48.853 217.535 48.9168 217.389 49.0278 217.281C49.1389 217.173 49.2887 217.111 49.4457 217.108H73.0367C73.1947 217.108 73.3462 217.169 73.4579 217.278C73.5696 217.386 73.6324 217.534 73.6324 217.687C73.6325 217.766 73.616 217.844 73.5839 217.917C73.5517 217.99 73.5046 218.055 73.4455 218.109C73.3863 218.164 73.3163 218.205 73.2399 218.232C73.1634 218.259 73.0821 218.271 73.0009 218.266Z" fill="#D5E6FB"/>
<path d="M276.753 209.791H239.508C239.35 209.791 239.198 209.73 239.087 209.621C238.975 209.513 238.912 209.365 238.912 209.212C238.915 209.059 238.979 208.914 239.09 208.806C239.201 208.698 239.351 208.636 239.508 208.633H276.753C276.91 208.636 277.06 208.698 277.171 208.806C277.282 208.914 277.346 209.059 277.349 209.212C277.349 209.365 277.286 209.513 277.174 209.621C277.062 209.73 276.911 209.791 276.753 209.791Z" fill="#D5E6FB"/>
<path d="M270.545 220.478H239.508C239.351 220.475 239.201 220.413 239.09 220.305C238.979 220.197 238.915 220.051 238.912 219.899C238.912 219.745 238.975 219.598 239.087 219.489C239.198 219.381 239.35 219.32 239.508 219.32H270.545C270.703 219.32 270.855 219.381 270.967 219.489C271.078 219.598 271.141 219.745 271.141 219.899C271.138 220.051 271.074 220.197 270.963 220.305C270.852 220.413 270.702 220.475 270.545 220.478Z" fill="#D5E6FB"/>
<path d="M71.6069 13.0836H41.9871C41.8291 13.0836 41.6776 13.0226 41.5658 12.9141C41.4541 12.8055 41.3914 12.6582 41.3914 12.5047C41.3914 12.3512 41.4541 12.2039 41.5658 12.0953C41.6776 11.9868 41.8291 11.9258 41.9871 11.9258H71.6069C71.7649 11.9258 71.9164 11.9868 72.0281 12.0953C72.1398 12.2039 72.2026 12.3512 72.2026 12.5047C72.2026 12.6582 72.1398 12.8055 72.0281 12.9141C71.9164 13.0226 71.7649 13.0836 71.6069 13.0836Z" fill="#D5E6FB"/>
<path d="M71.6069 20.216H41.9871C41.8291 20.216 41.6776 20.155 41.5658 20.0464C41.4541 19.9379 41.3914 19.7906 41.3914 19.6371C41.3914 19.4835 41.4541 19.3363 41.5658 19.2277C41.6776 19.1191 41.8291 19.0581 41.9871 19.0581H71.6069C71.7649 19.0581 71.9164 19.1191 72.0281 19.2277C72.1398 19.3363 72.2026 19.4835 72.2026 19.6371C72.2026 19.7906 72.1398 19.9379 72.0281 20.0464C71.9164 20.155 71.7649 20.216 71.6069 20.216Z" fill="#D5E6FB"/>
<path d="M71.6069 27.3136H41.9871C41.8291 27.3136 41.6776 27.2526 41.5658 27.144C41.4541 27.0355 41.3914 26.8882 41.3914 26.7347C41.3914 26.5811 41.4541 26.4339 41.5658 26.3253C41.6776 26.2168 41.8291 26.1558 41.9871 26.1558H71.6069C71.7649 26.1558 71.9164 26.2168 72.0281 26.3253C72.1398 26.4339 72.2026 26.5811 72.2026 26.7347C72.2026 26.8882 72.1398 27.0355 72.0281 27.144C71.9164 27.2526 71.7649 27.3136 71.6069 27.3136Z" fill="#D5E6FB"/>
<path d="M64.6249 34.4112H41.9871C41.8291 34.4112 41.6776 34.3502 41.5658 34.2417C41.4541 34.1331 41.3914 33.9858 41.3914 33.8323C41.3914 33.6788 41.4541 33.5315 41.5658 33.4229C41.6776 33.3144 41.8291 33.2534 41.9871 33.2534H64.6249C64.7829 33.2534 64.9344 33.3144 65.0461 33.4229C65.1578 33.5315 65.2206 33.6788 65.2206 33.8323C65.2176 33.9849 65.1538 34.1304 65.0427 34.2384C64.9317 34.3463 64.7819 34.4083 64.6249 34.4112Z" fill="#D5E6FB"/>
<path d="M252.483 35.708C252.167 35.708 251.864 35.83 251.64 36.0471C251.417 36.2643 251.291 36.5588 251.291 36.8659C251.291 37.1729 251.417 37.4674 251.64 37.6846C251.864 37.9017 252.167 38.0237 252.483 38.0237C252.799 38.0237 253.102 37.9017 253.325 37.6846C253.549 37.4674 253.674 37.1729 253.674 36.8659C253.674 36.5588 253.549 36.2643 253.325 36.0471C253.102 35.83 252.799 35.708 252.483 35.708Z" fill="#D5E6FB"/>
<path d="M264.409 35.708C264.093 35.708 263.79 35.83 263.567 36.0471C263.343 36.2643 263.218 36.5588 263.218 36.8659C263.218 37.1729 263.343 37.4674 263.567 37.6846C263.79 37.9017 264.093 38.0237 264.409 38.0237C264.725 38.0237 265.028 37.9017 265.252 37.6846C265.475 37.4674 265.601 37.1729 265.601 36.8659C265.601 36.5588 265.475 36.2643 265.252 36.0471C265.028 35.83 264.725 35.708 264.409 35.708Z" fill="#D5E6FB"/>
<path d="M276.336 35.708C276.02 35.708 275.717 35.83 275.493 36.0471C275.27 36.2643 275.144 36.5588 275.144 36.8659C275.144 37.1729 275.27 37.4674 275.493 37.6846C275.717 37.9017 276.02 38.0237 276.336 38.0237C276.652 38.0237 276.955 37.9017 277.178 37.6846C277.402 37.4674 277.527 37.1729 277.527 36.8659C277.527 36.5588 277.402 36.2643 277.178 36.0471C276.955 35.83 276.652 35.708 276.336 35.708Z" fill="#D5E6FB"/>
</svg>
