<svg width="279" height="246" viewBox="0 0 279 246" fill="none" xmlns="http://www.w3.org/2000/svg">
<path d="M210.443 150.22L188.873 228.69C188.873 228.69 171.873 232.69 172.203 233.75C172.533 234.81 199.043 238.41 199.043 238.41L225.923 157.09" fill="white"/>
<path d="M199.043 238.92H198.983C172.193 235.3 171.853 234.29 171.723 233.92C171.698 233.835 171.69 233.746 171.7 233.659C171.711 233.571 171.739 233.486 171.783 233.41C172.483 232.15 183.453 229.46 188.463 228.29L209.963 150.11C209.998 149.983 210.082 149.875 210.196 149.81C210.31 149.744 210.446 149.726 210.573 149.76C210.637 149.777 210.697 149.807 210.749 149.848C210.801 149.888 210.845 149.939 210.878 149.997C210.91 150.054 210.931 150.118 210.939 150.184C210.947 150.25 210.941 150.316 210.923 150.38L189.353 228.84C189.33 228.928 189.283 229.008 189.218 229.071C189.153 229.135 189.072 229.179 188.983 229.2C182.233 230.77 174.983 232.74 173.063 233.66C175.953 234.59 189.733 236.66 198.703 237.88L225.443 156.95C225.486 156.826 225.576 156.723 225.694 156.663C225.811 156.604 225.947 156.592 226.073 156.63C226.136 156.65 226.195 156.683 226.246 156.726C226.297 156.77 226.338 156.823 226.368 156.883C226.398 156.942 226.415 157.007 226.42 157.074C226.424 157.14 226.415 157.207 226.393 157.27L199.523 238.59C199.488 238.688 199.422 238.773 199.336 238.832C199.25 238.891 199.147 238.922 199.043 238.92Z" fill="#093269"/>
<path d="M256.513 146.94L262.133 238.43C262.133 238.43 235.523 244.2 235.423 243.51C235.323 242.82 249.763 232.56 249.763 232.56L238.893 148.07" fill="white"/>
<path d="M235.583 244C235.243 244 235.173 244 235.123 243.92C235.009 243.831 234.93 243.703 234.903 243.56C234.843 243.19 234.753 242.56 249.193 232.3L238.373 148.1C238.356 147.967 238.392 147.833 238.474 147.727C238.555 147.621 238.675 147.552 238.808 147.535C238.941 147.518 239.075 147.554 239.181 147.635C239.287 147.717 239.356 147.837 239.373 147.97L250.243 232.46C250.254 232.551 250.24 232.644 250.203 232.728C250.166 232.813 250.107 232.886 250.033 232.94C245.593 236.09 238.793 241.06 236.563 242.94C240.313 242.45 253.123 239.81 261.563 237.94L256.013 147C256.009 146.934 256.018 146.868 256.039 146.806C256.061 146.744 256.094 146.687 256.138 146.637C256.182 146.588 256.235 146.548 256.294 146.519C256.353 146.491 256.417 146.474 256.483 146.47C256.615 146.464 256.744 146.51 256.843 146.598C256.942 146.686 257.003 146.808 257.013 146.94L262.603 238.43C262.613 238.549 262.579 238.668 262.507 238.764C262.435 238.86 262.33 238.926 262.213 238.95C241.663 243.37 236.823 244 235.583 244Z" fill="#093269"/>
<path d="M213.453 70.6301C212.093 71.0601 210.723 71.4701 209.343 71.8301C198.4 74.8442 187.083 76.2853 175.733 76.1101C171.943 76.0101 166.883 76.1101 163.413 74.4901C160.713 73.2101 158.173 70.9701 155.683 69.3201C155.043 68.9001 154.013 68.5501 153.683 69.2201C153.403 69.7301 153.823 70.3301 154.223 70.7401C155.664 72.2101 157.234 73.5488 158.913 74.7401C155.676 74.1825 152.398 73.8882 149.113 73.8601C148.967 73.8431 148.819 73.8748 148.693 73.95C148.323 74.2301 148.803 74.77 149.233 74.95C150.231 75.3672 151.261 75.7017 152.313 75.95C151.339 75.65 150.331 75.4753 149.313 75.4301C148.853 75.4301 148.313 75.43 148.103 75.88C147.833 76.47 148.543 77.0201 149.153 77.2601C150.134 77.6493 151.135 77.9832 152.153 78.2601C150.971 78.2395 149.792 78.3911 148.653 78.7101C148.454 78.7437 148.271 78.8421 148.133 78.9901C148.04 79.143 148.002 79.3225 148.023 79.5001C148.136 79.9717 148.386 80.3993 148.742 80.7287C149.098 81.058 149.544 81.2743 150.023 81.3501C150.988 81.4731 151.946 81.6467 152.893 81.8701C152.013 81.9301 151.143 81.6101 150.273 81.6701C149.403 81.7301 148.423 82.4401 148.613 83.3001C148.803 84.1601 149.613 84.3001 150.413 84.5201C165.123 87.8237 180.217 89.0955 195.273 88.3001C202.798 87.9111 210.288 87.0191 217.693 85.6301C224.383 84.3701 231.233 83.2901 235.763 77.7C236.12 77.2817 236.454 76.8444 236.763 76.3901C237.866 74.9448 238.358 73.1243 238.133 71.3201C237.023 65.9101 229.793 66.3901 225.673 67.1801C221.537 68.0967 217.457 69.2486 213.453 70.6301Z" fill="white"/>
<path d="M186.493 89C174.302 89.0197 162.146 87.6781 150.253 85C149.423 84.81 148.253 84.44 148.073 83.39C148.027 83.167 148.031 82.9366 148.084 82.7152C148.138 82.4939 148.24 82.2872 148.383 82.11C148.558 81.8744 148.779 81.677 149.033 81.53C148.618 81.3628 148.255 81.0904 147.978 80.7397C147.701 80.389 147.52 79.972 147.453 79.53C147.41 79.2284 147.481 78.9217 147.653 78.67C147.857 78.4307 148.135 78.2655 148.443 78.2C148.803 78.1 149.173 78.02 149.543 77.95L148.903 77.7C148.329 77.4966 147.851 77.0866 147.563 76.55C147.501 76.408 147.47 76.2548 147.47 76.1C147.47 75.9452 147.501 75.792 147.563 75.65C147.641 75.4869 147.754 75.3431 147.894 75.2289C148.034 75.1148 148.198 75.0332 148.373 74.99C148.182 74.809 148.055 74.5701 148.013 74.31C147.992 74.1662 148.011 74.0195 148.068 73.8856C148.124 73.7517 148.216 73.6357 148.333 73.55C148.547 73.4113 148.799 73.3447 149.053 73.36C151.703 73.3833 154.348 73.5771 156.973 73.94C155.86 73.0438 154.802 72.0821 153.803 71.06C152.863 70.06 152.943 69.38 153.183 68.95C153.261 68.8019 153.37 68.6725 153.503 68.5707C153.636 68.4688 153.79 68.397 153.953 68.36C154.66 68.2702 155.375 68.4525 155.953 68.87C156.813 69.44 157.683 70.08 158.523 70.71C160.123 71.9624 161.833 73.0669 163.633 74.01C166.583 75.4 170.893 75.48 174.343 75.55H175.743C187.046 75.7344 198.317 74.2999 209.213 71.29C210.413 70.97 211.673 70.6 213.303 70.1L215.643 69.36C218.891 68.2491 222.204 67.3374 225.563 66.63C229.073 65.95 237.363 65.05 238.563 71.16C238.903 72.8 238.393 74.64 237.053 76.62C236.743 77.0833 236.409 77.5305 236.053 77.96C231.593 83.47 224.953 84.71 218.523 85.96L217.693 86.12C210.265 87.5159 202.751 88.4113 195.203 88.8C192.31 88.9334 189.406 89 186.493 89ZM150.443 82.15H150.253C150.045 82.165 149.843 82.2214 149.657 82.3159C149.472 82.4103 149.307 82.5409 149.173 82.7C149.117 82.7632 149.077 82.8387 149.056 82.9205C149.035 83.0022 149.034 83.0878 149.053 83.17C149.133 83.54 149.593 83.82 150.473 84.02C165.141 87.3151 180.191 88.5802 195.203 87.78C202.704 87.3936 210.171 86.5049 217.553 85.12L218.393 84.96C224.643 83.79 231.103 82.58 235.333 77.36C235.663 76.96 235.973 76.53 236.263 76.1C236.791 75.4444 237.184 74.6906 237.42 73.8822C237.655 73.0737 237.727 72.2267 237.633 71.39C236.563 66.16 228.963 67.02 225.753 67.64C222.435 68.34 219.162 69.2417 215.953 70.34L213.603 71.08C211.963 71.59 210.683 71.96 209.473 72.28C198.487 75.3214 187.121 76.7695 175.723 76.58H174.323C170.773 76.51 166.323 76.43 163.203 74.94C161.341 73.9789 159.576 72.8403 157.933 71.54C157.063 70.9 156.233 70.29 155.403 69.74C155.068 69.4753 154.649 69.3403 154.223 69.36C154.194 69.3659 154.166 69.3778 154.142 69.395C154.118 69.4123 154.098 69.4344 154.083 69.46C153.993 69.64 154.173 70 154.553 70.4C155.973 71.866 157.519 73.2045 159.173 74.4C159.264 74.4657 159.331 74.5603 159.362 74.6685C159.393 74.7767 159.387 74.8922 159.344 74.9963C159.301 75.1005 159.224 75.1871 159.126 75.2422C159.028 75.2973 158.914 75.3177 158.803 75.3C155.627 74.7608 152.414 74.4699 149.193 74.43C149.254 74.4794 149.321 74.5198 149.393 74.55C150.048 74.8196 150.715 75.0566 151.393 75.26C151.733 75.34 152.063 75.43 152.393 75.53C152.517 75.5651 152.623 75.6477 152.686 75.7601C152.75 75.8724 152.767 76.0054 152.733 76.13C152.698 76.2552 152.616 76.3622 152.505 76.4292C152.393 76.4961 152.26 76.5178 152.133 76.49C151.803 76.41 151.473 76.33 151.133 76.23C150.474 76.0917 149.805 76.0048 149.133 75.97C148.733 75.97 148.453 75.97 148.393 76.14C148.383 76.176 148.383 76.2141 148.393 76.25C148.582 76.5262 148.856 76.7333 149.173 76.84C150.129 77.2315 151.107 77.5655 152.103 77.84C152.22 77.8748 152.321 77.9504 152.387 78.0532C152.453 78.156 152.48 78.279 152.463 78.4C152.444 78.5183 152.383 78.6258 152.291 78.7029C152.199 78.78 152.083 78.8216 151.963 78.82C150.831 78.7971 149.702 78.942 148.613 79.25C148.521 79.2661 148.432 79.3001 148.353 79.35C148.34 79.4026 148.34 79.4575 148.353 79.51C148.423 80.23 149.233 80.74 149.993 80.92C150.376 81.0052 150.763 81.0686 151.153 81.11C151.754 81.1596 152.348 81.277 152.923 81.46C153.031 81.4997 153.122 81.5746 153.182 81.6727C153.242 81.7707 153.267 81.886 153.253 82C153.233 82.1137 153.177 82.2176 153.092 82.2954C153.007 82.3733 152.898 82.4206 152.783 82.43C152.308 82.4426 151.832 82.4091 151.363 82.33C151.06 82.2602 150.753 82.2101 150.443 82.18V82.15Z" fill="#093269"/>
<path d="M183.243 228.36L186.843 233.84L200.843 235.5L199.473 240.87C199.473 240.87 168.593 237.01 167.883 234.18C167.173 231.35 183.243 228.36 183.243 228.36Z" fill="#093269"/>
<path d="M221.013 62.48C221.013 62.48 211.313 64.79 208.393 70.79C205.473 76.79 208.963 108.97 208.963 108.97L251.963 110.81C251.963 110.81 256.373 87.11 254.213 76.95C252.053 66.79 243.483 53.25 221.013 62.48Z" fill="#1264D1"/>
<path d="M222.273 57L219.513 66C219.513 66 219.573 71.32 225.463 70.71C227.203 70.5107 228.877 69.9262 230.363 68.9991C231.849 68.0719 233.109 66.8254 234.053 65.35L236.153 49.25C235.237 48.4947 234.634 47.4252 234.463 46.25C234.308 45.3634 234.308 44.4566 234.463 43.57C234.523 43.23 234.903 41.24 235.293 41.17C234.175 41.3487 233.031 41.2537 231.958 40.8932C230.885 40.5326 229.916 39.9173 229.133 39.1C228.314 38.1363 227.64 37.0583 227.133 35.9C226.667 35.1964 226.485 34.3425 226.623 33.51C224.776 34.6833 222.986 35.9433 221.253 37.29C220.294 37.9879 219.424 38.8006 218.663 39.71C217.413 41.33 217.073 43.56 216.783 45.53C216.4 47.8697 216.236 50.2399 216.293 52.61C216.423 57.12 222.273 57 222.273 57Z" fill="white"/>
<path d="M224.543 71.27C223.184 71.3346 221.851 70.8807 220.813 70C219.742 68.9627 219.114 67.5504 219.063 66.06C219.053 66.0138 219.053 65.9662 219.063 65.92L221.643 57.48C219.373 57.33 215.913 56.2 215.783 52.63C215.728 50.233 215.896 47.8361 216.283 45.47C216.563 43.55 216.913 41.16 218.283 39.47C219.065 38.5279 219.962 37.688 220.953 36.97C222.693 35.62 224.513 34.34 226.363 33.16C226.44 33.1088 226.531 33.0815 226.623 33.0815C226.716 33.0815 226.806 33.1088 226.883 33.16C226.958 33.2171 227.013 33.2956 227.041 33.3849C227.07 33.4743 227.071 33.5703 227.043 33.66C226.948 34.3822 227.118 35.1144 227.523 35.72C228.034 36.8431 228.708 37.8843 229.523 38.81C230.257 39.5695 231.162 40.1427 232.162 40.4819C233.162 40.8211 234.229 40.9164 235.273 40.76C235.333 40.75 235.394 40.7519 235.453 40.7656C235.512 40.7793 235.568 40.8045 235.617 40.8399C235.666 40.8752 235.708 40.9199 235.74 40.9714C235.772 41.0229 235.793 41.0802 235.803 41.14C235.817 41.2387 235.8 41.3394 235.753 41.4275C235.706 41.5155 235.633 41.5865 235.543 41.63C235.263 42.2886 235.071 42.9812 234.973 43.69C234.828 44.5237 234.828 45.3763 234.973 46.21C235.122 47.2788 235.655 48.2566 236.473 48.96C236.541 49.0072 236.595 49.0723 236.629 49.1482C236.662 49.2241 236.674 49.3078 236.663 49.39L234.573 65.49C234.564 65.5499 234.543 65.6075 234.513 65.66C233.538 67.2038 232.226 68.5075 230.676 69.4737C229.127 70.4398 227.379 71.0436 225.563 71.24C225.133 71.25 224.853 71.27 224.543 71.27ZM219.973 66.11C220.043 67.3253 220.56 68.472 221.423 69.33C221.98 69.7715 222.625 70.0891 223.315 70.2615C224.005 70.434 224.724 70.4573 225.423 70.33C227.072 70.1447 228.66 69.6011 230.076 68.7374C231.493 67.8737 232.703 66.7108 233.623 65.33L235.623 49.57C234.727 48.7408 234.145 47.6284 233.973 46.42C233.808 45.4805 233.808 44.5195 233.973 43.58C234.067 42.9767 234.207 42.3816 234.393 41.8C233.344 41.8318 232.299 41.6426 231.328 41.2446C230.356 40.8467 229.479 40.2489 228.753 39.49C227.892 38.4952 227.182 37.3801 226.643 36.18C226.344 35.6416 226.138 35.0568 226.033 34.45C224.466 35.4767 222.94 36.5667 221.453 37.72C220.544 38.3777 219.718 39.1433 218.993 40C217.803 41.54 217.483 43.7 217.203 45.61C216.829 47.9238 216.665 50.2667 216.713 52.61C216.853 56.61 222.063 56.61 222.263 56.61C222.335 56.6084 222.406 56.6239 222.47 56.6552C222.534 56.6865 222.59 56.7327 222.633 56.79C222.677 56.8476 222.707 56.9145 222.721 56.9856C222.735 57.0568 222.732 57.1301 222.713 57.2L219.973 66.11Z" fill="#093269"/>
<path d="M232.983 48C233.244 47.3379 233.715 46.7795 234.323 46.41C234.899 46.0862 235.529 45.8694 236.183 45.77C236.535 45.6851 236.901 45.6851 237.253 45.77C237.498 45.8398 237.726 45.9589 237.923 46.12C238.413 46.4605 238.768 46.9635 238.923 47.54C238.993 48.0195 238.952 48.5087 238.803 48.97C238.67 49.48 238.472 49.9707 238.213 50.43C237.664 51.3365 236.777 51.9879 235.747 52.241C234.718 52.4942 233.63 52.3283 232.723 51.78" fill="white"/>
<path d="M234.843 52.66C234.035 52.6624 233.243 52.4409 232.553 52.02C232.463 51.964 232.399 51.8756 232.373 51.7731C232.346 51.6706 232.361 51.562 232.413 51.47C232.44 51.4243 232.475 51.3846 232.518 51.3531C232.56 51.3217 232.609 51.2992 232.66 51.287C232.712 51.2748 232.765 51.2733 232.817 51.2824C232.869 51.2915 232.919 51.3111 232.963 51.34C233.367 51.5866 233.816 51.7508 234.283 51.8229C234.751 51.8951 235.228 51.8738 235.688 51.7604C236.147 51.6469 236.579 51.4436 236.96 51.162C237.34 50.8804 237.661 50.5262 237.903 50.12C238.14 49.6916 238.322 49.2345 238.443 48.76C238.586 48.3632 238.627 47.9368 238.563 47.52C238.418 47.0353 238.106 46.6175 237.683 46.34C237.528 46.2081 237.348 46.1094 237.153 46.05C236.856 46.0069 236.552 46.0274 236.263 46.11C235.653 46.2034 235.064 46.4031 234.523 46.7C233.994 47.026 233.584 47.5133 233.353 48.09C233.335 48.139 233.308 48.184 233.272 48.2223C233.237 48.2605 233.194 48.2913 233.147 48.3128C233.099 48.3342 233.048 48.3459 232.996 48.3471C232.943 48.3484 232.892 48.3391 232.843 48.32C232.794 48.3011 232.748 48.2727 232.71 48.2363C232.672 48.1999 232.641 48.1563 232.62 48.1079C232.598 48.0596 232.587 48.0075 232.586 47.9546C232.584 47.9017 232.594 47.8492 232.613 47.8C232.906 47.0477 233.44 46.4143 234.133 46C234.755 45.656 235.432 45.4225 236.133 45.31C236.544 45.2095 236.972 45.2095 237.383 45.31C237.677 45.398 237.952 45.5405 238.193 45.73C238.772 46.1206 239.19 46.7062 239.373 47.38C239.458 47.9227 239.414 48.4778 239.243 49C239.103 49.5455 238.891 50.07 238.613 50.56C238.316 51.0543 237.925 51.4853 237.462 51.8285C236.999 52.1717 236.472 52.4202 235.913 52.56C235.562 52.6349 235.202 52.6685 234.843 52.66Z" fill="#093269"/>
<path d="M220.893 61.21C221.931 61.4711 223.012 61.5063 224.065 61.313C225.117 61.1198 226.116 60.7027 226.993 60.09C227.786 59.5668 228.456 58.8787 228.958 58.0728C229.46 57.2668 229.783 56.362 229.903 55.42C229.903 55.42 225.443 58.25 221.803 56.99L220.893 61.21Z" fill="#093269"/>
<path d="M222.753 61.88C222.078 61.8871 221.405 61.803 220.753 61.63C220.647 61.5975 220.556 61.5257 220.501 61.4292C220.445 61.3326 220.428 61.2186 220.453 61.11L221.363 56.9C221.378 56.8393 221.405 56.7822 221.443 56.7324C221.481 56.6825 221.529 56.6409 221.583 56.61C221.64 56.5853 221.701 56.5725 221.763 56.5725C221.825 56.5725 221.886 56.5853 221.943 56.61C225.333 57.78 229.613 55.11 229.653 55.08C229.721 55.0385 229.799 55.0165 229.878 55.0165C229.958 55.0165 230.035 55.0385 230.103 55.08C230.174 55.1172 230.233 55.1734 230.274 55.2423C230.314 55.3112 230.335 55.3901 230.333 55.47C230.211 56.4776 229.872 57.4467 229.338 58.3101C228.805 59.1734 228.09 59.9105 227.243 60.47C225.936 61.4096 224.362 61.904 222.753 61.88ZM221.413 60.88C222.33 61.0533 223.271 61.0418 224.183 60.846C225.095 60.6502 225.959 60.2742 226.723 59.74C227.945 58.9043 228.85 57.6822 229.293 56.27C227.873 57.01 224.883 58.27 222.133 57.56L221.413 60.88Z" fill="#093269"/>
<path d="M225.863 41.58C225.863 41.58 222.133 45.51 222.713 46.4C223.293 47.29 225.353 47.12 225.353 47.12" fill="white"/>
<path d="M224.923 47.58C224.203 47.58 222.863 47.46 222.343 46.64C221.703 45.64 223.733 43.18 225.543 41.27C225.624 41.1851 225.735 41.1359 225.852 41.1331C225.97 41.1302 226.083 41.1741 226.168 41.255C226.253 41.3359 226.302 41.4472 226.305 41.5644C226.308 41.6816 226.264 41.7951 226.183 41.88C224.443 43.72 222.993 45.73 223.093 46.19C223.403 46.66 224.723 46.73 225.313 46.68C225.371 46.6754 225.429 46.6822 225.484 46.7001C225.539 46.718 225.59 46.7465 225.634 46.7841C225.678 46.8217 225.715 46.8677 225.741 46.9193C225.767 46.9709 225.783 47.0272 225.788 47.085C225.793 47.1428 225.786 47.2009 225.768 47.256C225.75 47.3112 225.721 47.3623 225.684 47.4064C225.646 47.4505 225.6 47.4868 225.549 47.5131C225.497 47.5395 225.441 47.5554 225.383 47.56C225.23 47.5767 225.077 47.5834 224.923 47.58Z" fill="#093269"/>
<path d="M231.456 42.925C231.673 42.387 231.537 41.8255 231.152 41.6709C230.768 41.5163 230.281 41.827 230.065 42.365C229.848 42.903 229.984 43.4645 230.368 43.6191C230.753 43.7737 231.24 43.4629 231.456 42.925Z" fill="#093269"/>
<path d="M222.197 42.4114C222.413 41.8734 222.277 41.312 221.893 41.1574C221.509 41.0027 221.022 41.3135 220.805 41.8515C220.589 42.3894 220.725 42.9509 221.109 43.1055C221.493 43.2602 221.98 42.9494 222.197 42.4114Z" fill="#093269"/>
<path d="M220.233 49.45L227.613 49.16C227.613 49.16 227.413 54.16 223.113 54.56C218.813 54.96 220.233 49.45 220.233 49.45Z" fill="#093269"/>
<path d="M247.663 110.4C247.663 110.4 258.043 121.96 260.943 134.7C267.033 161.5 267.213 202.5 267.213 202.5L188.373 196.87L207.133 108.27L247.663 110.4Z" fill="#093269"/>
<path d="M262.133 104.35C260.558 104.355 258.994 104.098 257.503 103.59C257.437 103.568 257.377 103.533 257.325 103.487C257.273 103.441 257.23 103.386 257.199 103.323C257.169 103.261 257.151 103.194 257.146 103.124C257.142 103.055 257.151 102.986 257.173 102.92C257.195 102.854 257.23 102.794 257.276 102.742C257.322 102.69 257.377 102.647 257.44 102.616C257.502 102.586 257.57 102.568 257.639 102.563C257.708 102.559 257.777 102.568 257.843 102.59C260.669 103.47 263.694 103.485 266.529 102.633C269.364 101.781 271.88 100.102 273.753 97.81C275.551 95.4427 276.705 92.6495 277.101 89.7032C277.497 86.7569 277.122 83.7582 276.013 81C273.753 75.4 268.903 71.32 264.213 67.37C263.393 66.68 262.563 65.98 261.763 65.28C255.893 60.21 252.763 55.22 251.173 48.6C249.723 42.4 248.023 35.96 244.653 31.26C241.853 27.36 235.003 22.85 229.943 24.93C228.372 25.6588 226.922 26.6233 225.643 27.79C225.585 27.8346 225.519 27.8673 225.449 27.8862C225.379 27.9051 225.305 27.9098 225.233 27.9C222.491 27.4285 219.691 27.4083 216.943 27.84C214.235 28.2794 211.798 29.7394 210.133 31.92C208.715 34.2119 208.1 36.91 208.383 39.59C208.433 40.37 208.703 41.31 209.303 41.38C209.438 41.3976 209.56 41.467 209.644 41.5735C209.728 41.68 209.767 41.8151 209.753 41.95C209.746 42.0182 209.725 42.0841 209.691 42.1439C209.658 42.2037 209.613 42.2562 209.559 42.2982C209.504 42.3402 209.442 42.3709 209.376 42.3884C209.31 42.4059 209.241 42.4098 209.173 42.4C208.173 42.28 207.463 41.25 207.353 39.65C207.039 36.7371 207.723 33.8038 209.293 31.33C211.103 28.9389 213.763 27.335 216.723 26.85C219.508 26.3937 222.348 26.3937 225.133 26.85C226.445 25.6753 227.929 24.7076 229.533 23.98C235.153 21.67 242.403 26.38 245.473 30.66C248.953 35.51 250.683 42.06 252.163 48.36C253.643 54.66 256.723 59.58 262.413 64.5C263.213 65.2 264.033 65.89 264.863 66.58C269.643 70.58 274.593 74.78 276.953 80.58C278.153 83.5057 278.561 86.6959 278.137 89.8295C277.712 92.9631 276.469 95.9295 274.533 98.43C273.026 100.265 271.134 101.746 268.991 102.769C266.849 103.792 264.507 104.332 262.133 104.35Z" fill="#093269"/>
<path d="M264.583 239.67L263.773 234.15L247.523 238.63L244.363 234.46C244.363 234.46 232.463 243.09 234.133 245C235.803 246.91 253.313 243.42 264.583 239.67Z" fill="#093269"/>
<path d="M187.133 150.89C187.053 150.891 186.973 150.873 186.902 150.836C186.83 150.8 186.769 150.746 186.723 150.68L171.933 129.36C171.859 129.249 171.831 129.114 171.856 128.984C171.88 128.853 171.954 128.737 172.063 128.66C172.117 128.622 172.177 128.596 172.241 128.582C172.305 128.568 172.371 128.567 172.436 128.579C172.5 128.592 172.561 128.616 172.616 128.653C172.67 128.689 172.717 128.735 172.753 128.79L187.563 150.11C187.601 150.164 187.627 150.224 187.641 150.288C187.655 150.352 187.656 150.418 187.644 150.482C187.632 150.547 187.607 150.608 187.571 150.663C187.534 150.717 187.488 150.764 187.433 150.8C187.346 150.863 187.24 150.895 187.133 150.89Z" fill="#D5E6FB"/>
<path d="M187.573 28.6899C187.479 28.694 187.385 28.6706 187.303 28.6226C187.222 28.5746 187.156 28.5041 187.114 28.4195C187.072 28.335 187.055 28.24 187.065 28.146C187.076 28.052 187.113 27.9631 187.173 27.8899L203.173 7.15995C203.211 7.10345 203.261 7.0554 203.318 7.01875C203.376 6.9821 203.44 6.95762 203.508 6.94684C203.575 6.93605 203.644 6.93917 203.71 6.95602C203.776 6.97287 203.838 7.00309 203.892 7.0448C203.946 7.08652 203.991 7.13885 204.024 7.19858C204.057 7.25832 204.078 7.32418 204.084 7.39211C204.091 7.46005 204.084 7.52862 204.063 7.5936C204.042 7.65858 204.008 7.7186 203.963 7.76995L187.963 28.4999C187.916 28.5583 187.857 28.6056 187.789 28.6385C187.722 28.6713 187.648 28.6889 187.573 28.6899Z" fill="#D5E6FB"/>
<path d="M63.963 121.96L89.593 230.33L67.333 235.66L42.843 148.11L35.733 237.94L12.633 236.75L11.843 111.3L63.963 121.96Z" fill="#093269"/>
<path d="M57.0031 66.1899C56.8531 66.7799 102.003 73.2899 102.003 73.2899L98.7431 87.6599C98.7431 87.6599 69.1331 84.3999 53.4431 81.8799L57.0031 66.1899Z" fill="white"/>
<path d="M98.7531 88.16H98.7031C98.4031 88.16 68.8931 84.87 53.3731 82.38C53.3046 82.3715 53.2389 82.3483 53.1802 82.3121C53.1215 82.2759 53.0713 82.2274 53.0331 82.17C52.9592 82.0544 52.934 81.9142 52.9631 81.78L56.5131 66.09C56.5439 65.9616 56.6244 65.8506 56.7368 65.7813C56.8492 65.712 56.9845 65.69 57.1131 65.72C57.186 65.7391 57.2541 65.7731 57.3131 65.82C59.1531 66.48 84.9631 70.35 102.073 72.82C102.141 72.8304 102.206 72.8543 102.264 72.8904C102.323 72.9264 102.373 72.974 102.413 73.03C102.453 73.0858 102.481 73.1494 102.494 73.2166C102.508 73.2837 102.508 73.3531 102.493 73.42L99.2331 87.79C99.2046 87.8958 99.1422 87.9892 99.0555 88.0561C98.9688 88.1229 98.8626 88.1594 98.7531 88.16ZM54.0531 81.47C68.6231 83.78 94.6531 86.7 98.3631 87.11L101.363 73.71C67.8531 68.87 59.4931 67.36 57.3631 66.8L54.0531 81.47Z" fill="#093269"/>
<path d="M31.1331 60.41C31.3131 59.85 58.6731 65.69 58.6731 65.69L57.6731 86.22L38.9231 79.51C38.9231 79.51 29.9131 64.16 31.1331 60.41Z" fill="#1264D1"/>
<path d="M49.1331 72.7C48.7231 71.59 43.5431 60.13 28.4431 59.76C13.3431 59.39 7.08308 58.76 3.93308 77.76C0.583084 97.85 11.0331 133.03 11.0331 133.03L68.6131 120.03C68.6131 120.03 53.1331 83.49 49.1331 72.7Z" fill="#1264D1"/>
<path d="M139.733 45.15L160.943 46.08C158.593 54.08 160.423 60.68 166.173 65C169.123 67.1637 172.651 68.3984 176.306 68.5462C179.962 68.6941 183.578 67.7484 186.693 65.83C192.693 62.07 195.043 55.6 193.433 47.5L210.433 48.24L207.353 118.84L136.673 115.76C136.673 115.21 136.673 114.65 136.753 114.1C137.043 107.25 137.363 100.4 137.613 93.55C137.661 92.5048 137.498 91.4607 137.133 90.48C136.994 90.0986 136.774 89.7522 136.487 89.465C136.201 89.1778 135.855 88.9569 135.473 88.8178C135.092 88.6786 134.685 88.6246 134.281 88.6596C133.876 88.6945 133.485 88.8175 133.133 89.02C130.735 90.0753 128.053 90.296 125.515 89.647C122.977 88.998 120.73 87.5167 119.133 85.44C117.506 83.3389 116.633 80.7515 116.655 78.0942C116.677 75.4369 117.592 72.8642 119.253 70.79C120.85 68.7468 123.102 67.3169 125.631 66.7412C128.159 66.1656 130.809 66.4795 133.133 67.63C136.453 69.26 138.723 67.97 138.923 64.25C139.233 58.25 139.453 52.34 139.723 46.39C139.693 46 139.713 45.67 139.733 45.15Z" fill="white"/>
<path d="M207.333 119.34L136.653 116.26C136.519 116.25 136.394 116.189 136.303 116.09C136.259 116.042 136.225 115.985 136.202 115.923C136.18 115.861 136.17 115.796 136.173 115.73L136.473 109.06C136.693 103.89 136.923 98.71 137.113 93.53C137.158 92.5528 137.005 91.5765 136.663 90.66C136.561 90.3627 136.398 90.09 136.184 89.8593C135.971 89.6285 135.712 89.4449 135.423 89.32C135.081 89.2002 134.719 89.1517 134.358 89.1775C133.996 89.2033 133.644 89.3029 133.323 89.47C130.832 90.5607 128.047 90.7871 125.413 90.113C122.778 89.4389 120.444 87.9032 118.783 85.75C117.091 83.5581 116.184 80.8615 116.208 78.0926C116.231 75.3237 117.184 72.6429 118.913 70.48C120.577 68.3639 122.916 66.8821 125.54 66.2816C128.164 65.6811 130.915 65.9982 133.333 67.18C134.813 67.9 136.063 68.02 136.943 67.5C137.823 66.98 138.313 65.86 138.403 64.22C138.623 60.05 138.803 55.8 138.973 51.7C139.043 49.92 139.123 48.14 139.203 46.37V45.13C139.21 44.9972 139.267 44.872 139.363 44.78C139.463 44.6934 139.591 44.647 139.723 44.65L160.933 45.58C161.01 45.5803 161.086 45.5996 161.154 45.6362C161.222 45.6728 161.28 45.7257 161.323 45.79C161.366 45.8518 161.395 45.9226 161.407 45.997C161.419 46.0715 161.415 46.1477 161.393 46.22C159.133 54 160.883 60.39 166.473 64.6C169.348 66.7093 172.788 67.9122 176.351 68.0547C179.914 68.1972 183.439 67.2729 186.473 65.4C192.233 61.77 194.543 55.4 192.983 47.59C192.966 47.5163 192.968 47.4397 192.987 47.3666C193.006 47.2935 193.042 47.226 193.093 47.17C193.139 47.1095 193.201 47.062 193.271 47.0322C193.341 47.0024 193.417 46.9913 193.493 47L210.493 47.74C210.559 47.7411 210.625 47.7559 210.685 47.7834C210.745 47.811 210.799 47.8507 210.843 47.9C210.888 47.9483 210.922 48.005 210.945 48.0668C210.967 48.1287 210.977 48.1944 210.973 48.26L207.893 118.86C207.892 118.926 207.877 118.992 207.85 119.052C207.822 119.112 207.782 119.166 207.733 119.21C207.679 119.259 207.616 119.296 207.547 119.318C207.478 119.341 207.405 119.348 207.333 119.34ZM137.133 115.28L206.823 118.28L209.823 48.67L194.033 48C195.443 56 192.943 62.45 186.963 66.23C183.76 68.197 180.044 69.1666 176.289 69.0152C172.533 68.8638 168.907 67.5984 165.873 65.38C160.063 61 158.133 54.52 160.293 46.55L140.213 45.67V46.41C140.143 48.19 140.063 49.96 139.993 51.74C139.823 55.85 139.643 60.1 139.423 64.27C139.313 66.27 138.643 67.68 137.423 68.37C136.203 69.06 134.673 68.96 132.873 68.07C130.662 66.9851 128.145 66.6911 125.743 67.2371C123.341 67.783 121.198 69.1358 119.673 71.07C118.089 73.0535 117.216 75.5111 117.195 78.0493C117.173 80.5876 118.003 83.0597 119.553 85.07C121.074 87.047 123.211 88.4592 125.626 89.0825C128.042 89.7057 130.596 89.5043 132.883 88.51C133.326 88.281 133.812 88.1467 134.309 88.1157C134.807 88.0848 135.305 88.1577 135.773 88.33C136.191 88.5036 136.567 88.7635 136.877 89.0927C137.187 89.4218 137.425 89.8128 137.573 90.24C137.964 91.284 138.141 92.3962 138.093 93.51C137.903 98.69 137.673 103.87 137.443 109.05L137.133 115.28Z" fill="#093269"/>
<path d="M123.783 45.6501L125.953 63C117.773 61.9001 111.203 64.91 107.813 71.2901C106.123 74.5046 105.445 78.1551 105.868 81.7621C106.291 85.369 107.795 88.7637 110.183 91.5001C115.183 97.0701 122.323 98.5001 130.003 95.5001L132.613 116.39L55.3331 126L46.5131 55.3001L70.9731 52.3001C71.7359 52.2111 72.4709 51.9602 73.1288 51.5641C73.7868 51.168 74.3525 50.6358 74.788 50.0033C75.2236 49.3708 75.519 48.6525 75.6544 47.8965C75.7898 47.1406 75.762 46.3644 75.5731 45.6201C75.2806 44.5482 74.8785 43.5094 74.3731 42.52C73.1287 40.3022 72.6341 37.7417 72.963 35.2199C73.2919 32.6982 74.4267 30.3501 76.1984 28.5257C77.97 26.7012 80.2837 25.4979 82.7947 25.0951C85.3057 24.6922 87.8796 25.1113 90.1331 26.2901C92.4145 27.4667 94.2585 29.3439 95.3943 31.6459C96.53 33.948 96.8976 36.5536 96.4431 39.0801C96.2731 40.0801 96.0431 41.0801 95.8931 42.0801C95.3731 45.4301 98.3331 49.2701 102.393 48.4301C106.453 47.5901 119.603 46.1701 123.783 45.6501Z" fill="white"/>
<path d="M55.333 126.48C55.2242 126.484 55.1177 126.448 55.033 126.38C54.9789 126.34 54.9339 126.289 54.9012 126.231C54.8684 126.172 54.8486 126.107 54.843 126.04L46.013 55.35C46.0047 55.2842 46.0095 55.2175 46.0271 55.1536C46.0448 55.0897 46.0749 55.03 46.1159 54.9779C46.1568 54.9258 46.2077 54.8823 46.2656 54.8501C46.3235 54.8178 46.3872 54.7974 46.453 54.79L48.163 54.57L70.913 51.73C71.6172 51.6412 72.2944 51.4036 72.8995 51.0329C73.5047 50.6622 74.0241 50.1669 74.423 49.58C74.8074 49.0158 75.0654 48.3752 75.1793 47.7021C75.2932 47.029 75.2604 46.3392 75.083 45.68C74.8036 44.6417 74.4148 43.6361 73.923 42.68C72.6608 40.3695 72.1732 37.7151 72.5319 35.1069C72.8906 32.4987 74.0767 30.0745 75.9158 28.1906C77.7549 26.3067 80.1499 25.0627 82.7487 24.6413C85.3475 24.22 88.0129 24.6436 90.353 25.85C92.7263 27.0783 94.6443 29.0339 95.8264 31.4305C97.0086 33.8272 97.3928 36.5392 96.923 39.17C96.853 39.61 96.763 40.04 96.683 40.47C96.603 40.9 96.463 41.57 96.373 42.13C96.2723 42.9653 96.3681 43.8125 96.6528 44.6042C96.9375 45.396 97.4033 46.1102 98.013 46.69C98.5681 47.231 99.2488 47.6257 99.9941 47.8387C100.739 48.0516 101.526 48.0761 102.283 47.91C105.283 47.29 113.283 46.37 119.133 45.7L123.723 45.16C123.854 45.1456 123.985 45.1823 124.089 45.2624C124.194 45.3425 124.263 45.4599 124.283 45.59L126.443 62.94C126.455 63.0162 126.449 63.0942 126.425 63.1676C126.401 63.241 126.36 63.3078 126.305 63.3624C126.251 63.4169 126.184 63.4579 126.111 63.4818C126.037 63.5057 125.959 63.5119 125.883 63.5C117.953 62.44 111.533 65.36 108.263 71.5C106.63 74.6272 105.975 78.1732 106.384 81.6774C106.792 85.1816 108.245 88.482 110.553 91.15C115.363 96.53 122.393 97.92 129.823 94.96C129.894 94.9298 129.97 94.9166 130.047 94.9215C130.124 94.9264 130.198 94.9492 130.264 94.9882C130.33 95.0271 130.386 95.081 130.428 95.1456C130.469 95.2102 130.495 95.2836 130.503 95.36L133.103 116.26C133.112 116.325 133.107 116.391 133.09 116.455C133.073 116.518 133.043 116.578 133.003 116.63C132.963 116.681 132.913 116.723 132.856 116.754C132.8 116.785 132.737 116.804 132.673 116.81L55.393 126.46L55.333 126.48ZM47.073 55.72L55.773 125.42L132.053 115.9L129.583 96.14C121.963 98.96 114.783 97.41 109.803 91.83C107.362 89.0089 105.825 85.5192 105.391 81.8138C104.958 78.1083 105.649 74.3582 107.373 71.05C110.763 64.66 117.303 61.54 125.373 62.42L123.373 46.2L119.273 46.68C113.763 47.31 105.433 48.27 102.513 48.88C101.597 49.0817 100.645 49.053 99.7428 48.7965C98.8405 48.5399 98.0159 48.0635 97.343 47.41C96.6122 46.7272 96.0535 45.8809 95.7128 44.9405C95.3721 44.0002 95.2591 42.9924 95.383 42C95.473 41.43 95.583 40.86 95.703 40.29L95.943 39.02C96.3742 36.5983 96.0196 34.1023 94.9311 31.8965C93.8427 29.6908 92.0773 27.8909 89.893 26.76C87.7407 25.6499 85.2887 25.2608 82.8984 25.6498C80.5082 26.0388 78.3061 27.1854 76.6168 28.9206C74.9276 30.6558 73.8404 32.8878 73.5157 35.2877C73.1909 37.6875 73.6457 40.1282 74.813 42.25C75.3399 43.2691 75.7556 44.3419 76.053 45.45C76.2653 46.2481 76.3037 47.0826 76.1656 47.8968C76.0276 48.7111 75.7164 49.4863 75.253 50.17C74.7745 50.8741 74.1516 51.4683 73.4257 51.9131C72.6999 52.3579 71.8877 52.6432 71.043 52.75L48.293 55.6L47.073 55.72Z" fill="#093269"/>
<path d="M35.5231 67.5V60.77C35.5231 60.77 45.2431 62.77 44.0031 51.77C42.7631 40.77 38.5831 36.34 37.8631 36.56L24.2531 40.63L22.9431 66.37C22.9431 66.37 29.6931 76.89 35.5231 67.5Z" fill="white"/>
<path d="M30.133 71.9C25.983 71.9 22.703 66.85 22.563 66.64C22.5032 66.552 22.475 66.4462 22.483 66.34L23.7531 40.6C23.7593 40.497 23.7972 40.3985 23.8617 40.3179C23.9261 40.2374 24.014 40.1787 24.1131 40.15L37.7131 36.08C37.8591 36.0485 38.0104 36.0501 38.1557 36.0847C38.3011 36.1193 38.4369 36.186 38.553 36.28C40.303 37.44 43.473 42.66 44.553 51.72C44.953 55.32 44.2531 57.98 42.4631 59.62C40.3431 61.57 37.3431 61.49 36.0731 61.35V67.5C36.0758 67.5948 36.0515 67.6885 36.0031 67.77C34.3131 70.49 32.3531 71.88 30.1831 71.9H30.133ZM23.493 66.22C23.983 67 26.833 70.9 30.133 70.9C31.913 70.9 33.5531 69.69 35.0331 67.36V60.77C35.0327 60.6962 35.0497 60.6233 35.0827 60.5573C35.1157 60.4913 35.1638 60.434 35.223 60.39C35.2795 60.3433 35.3453 60.3093 35.4161 60.2903C35.4868 60.2714 35.5608 60.2678 35.633 60.28C35.633 60.28 39.4431 61.01 41.7531 58.88C43.2931 57.46 43.883 55.09 43.513 51.88C42.393 41.97 38.8431 37.48 37.923 37.11L24.733 41L23.493 66.22Z" fill="#093269"/>
<path d="M24.8231 47.81C24.3631 45.73 21.2631 45 19.7331 46.48C19.3853 46.8767 19.1211 47.3396 18.9565 47.8408C18.7919 48.3421 18.7301 48.8714 18.7749 49.3971C18.8197 49.9228 18.9702 50.4341 19.2173 50.9002C19.4645 51.3664 19.8032 51.7778 20.2131 52.11C21.0855 52.7426 22.1355 53.0833 23.2131 53.0833C24.2907 53.0833 25.3408 52.7426 26.2131 52.11" fill="white"/>
<path d="M23.0531 53.5501C21.9201 53.5834 20.8094 53.2308 19.9031 52.5501C19.4106 52.1411 19.0094 51.6335 18.7252 51.0599C18.441 50.4864 18.2802 49.8596 18.2531 49.22C18.2244 48.6691 18.3099 48.1182 18.5044 47.6019C18.6989 47.0856 18.998 46.6151 19.3831 46.22C19.8657 45.792 20.4523 45.4983 21.0841 45.3685C21.7159 45.2386 22.3708 45.2771 22.9831 45.4801C23.5427 45.6223 24.0536 45.9129 24.4619 46.3212C24.8702 46.7295 25.1608 47.2404 25.3031 47.8001C25.3175 47.8657 25.3189 47.9336 25.3071 47.9998C25.2954 48.066 25.2706 48.1292 25.2344 48.1858C25.1982 48.2425 25.1512 48.2914 25.0961 48.3299C25.0409 48.3684 24.9788 48.3956 24.9131 48.4101C24.8474 48.4245 24.7796 48.4259 24.7134 48.4141C24.6472 48.4023 24.584 48.3776 24.5273 48.3414C24.4707 48.3052 24.4217 48.2581 24.3833 48.203C24.3448 48.1479 24.3175 48.0857 24.3031 48.02C24.1947 47.6337 23.9858 47.283 23.6977 47.0037C23.4096 46.7244 23.0526 46.5265 22.6631 46.43C22.2213 46.2806 21.7481 46.249 21.2904 46.3385C20.8326 46.4279 20.4062 46.6353 20.0531 46.9401C19.7594 47.2384 19.5333 47.5964 19.3901 47.9898C19.2469 48.3831 19.1899 48.8027 19.2231 49.22C19.2411 49.7167 19.3635 50.204 19.5823 50.6503C19.8011 51.0965 20.1115 51.4917 20.4931 51.81C21.2813 52.36 22.2217 52.6499 23.1827 52.6392C24.1438 52.6284 25.0774 52.3175 25.8531 51.75C25.9053 51.7012 25.9674 51.6642 26.0352 51.6414C26.1029 51.6187 26.1748 51.6107 26.2459 51.618C26.317 51.6254 26.3857 51.6479 26.4474 51.6841C26.509 51.7202 26.5622 51.7692 26.6034 51.8276C26.6445 51.8861 26.6726 51.9527 26.6858 52.023C26.6991 52.0932 26.6971 52.1655 26.68 52.2349C26.6629 52.3043 26.6311 52.3692 26.5868 52.4253C26.5425 52.4814 26.4867 52.5274 26.4231 52.56C25.4258 53.2234 24.2507 53.5686 23.0531 53.5501Z" fill="#093269"/>
<path d="M33.853 45.28C34.6676 46.3275 35.4286 47.4155 36.133 48.54C36.3355 48.7809 36.4818 49.0638 36.5614 49.3682C36.641 49.6726 36.6518 49.9909 36.593 50.3C36.4671 50.5482 36.2832 50.7623 36.0569 50.9242C35.8306 51.0861 35.5685 51.191 35.293 51.23C35.0735 51.3092 34.8349 51.319 34.6096 51.2582C34.3842 51.1974 34.183 51.0689 34.033 50.89" fill="white"/>
<path d="M34.9131 51.7201C34.675 51.7359 34.4369 51.6888 34.2227 51.5834C34.0086 51.4781 33.8259 51.3183 33.6931 51.1201C33.6345 51.0177 33.6184 50.8964 33.6484 50.7823C33.6783 50.6683 33.7518 50.5705 33.8531 50.5101C33.9554 50.4515 34.0767 50.4354 34.1908 50.4653C34.3049 50.4952 34.4027 50.5688 34.4631 50.6701C34.5631 50.8501 34.9431 50.8601 35.2431 50.7901C35.5431 50.7201 36.0531 50.5701 36.2431 50.1501C36.4331 49.7301 36.1131 49.2301 35.8331 48.7801C35.1223 47.6647 34.3546 46.5866 33.5331 45.5501C33.497 45.5048 33.4701 45.4528 33.4541 45.3971C33.4381 45.3414 33.4332 45.2831 33.4397 45.2256C33.4462 45.168 33.464 45.1123 33.492 45.0616C33.52 45.0109 33.5578 44.9662 33.6031 44.9301C33.6484 44.8939 33.7004 44.8671 33.756 44.8511C33.8117 44.835 33.87 44.8301 33.9276 44.8366C33.9851 44.8431 34.0409 44.8609 34.0916 44.889C34.1423 44.917 34.187 44.9547 34.2231 45.0001C35.0646 46.0609 35.8491 47.1658 36.5731 48.3101C36.8188 48.6043 36.9921 48.9521 37.0789 49.3256C37.1658 49.699 37.1638 50.0876 37.0731 50.4601C36.9255 50.7781 36.7011 51.0543 36.42 51.2638C36.1389 51.4734 35.81 51.6095 35.4631 51.6601C35.2826 51.7008 35.0981 51.721 34.9131 51.7201Z" fill="#093269"/>
<path d="M30.8788 45.3839C31.1992 45.3836 31.4585 45.0162 31.458 44.5633C31.4575 44.1104 31.1974 43.7436 30.8771 43.7439C30.5568 43.7442 30.2975 44.1116 30.298 44.5645C30.2985 45.0174 30.5585 45.3842 30.8788 45.3839Z" fill="#093269"/>
<path d="M37.4349 44.8001C37.7539 44.7717 37.9801 44.3831 37.94 43.932C37.8999 43.4809 37.6087 43.1382 37.2896 43.1665C36.9706 43.1949 36.7444 43.5836 36.7845 44.0347C36.8246 44.4858 37.1158 44.8285 37.4349 44.8001Z" fill="#093269"/>
<path d="M16.6931 49.24C16.0131 49.24 15.1131 48.84 14.2231 47.24C13.2401 45.7113 12.5422 44.0173 12.1631 42.24C11.9862 41.3168 12.0212 40.3655 12.2654 39.4578C12.5097 38.5501 12.9568 37.7097 13.5731 37C14.1344 36.4204 14.8487 36.0122 15.6329 35.8227C16.4172 35.6333 17.2391 35.6705 18.0031 35.93C17.8821 33.4536 18.712 31.0246 20.3231 29.14C22.1577 27.0964 24.3854 25.4435 26.8731 24.28C29.8107 22.7729 32.8844 21.5475 36.0531 20.62C38.0631 19.8683 40.2479 19.7155 42.3431 20.18C45.8831 21.24 47.6931 25.18 47.8731 28.29C47.9926 30.6084 47.5013 32.9176 46.4483 34.9866C45.3954 37.0556 43.8177 38.812 41.8731 40.08C41.7573 40.1515 41.6181 40.1748 41.4854 40.1449C41.3527 40.115 41.2369 40.0342 41.1631 39.92C41.1263 39.863 41.1013 39.7993 41.0895 39.7326C41.0776 39.6659 41.0792 39.5975 41.0941 39.5314C41.109 39.4653 41.1369 39.4028 41.1762 39.3476C41.2155 39.2924 41.2655 39.2456 41.3231 39.21C43.1062 38.0321 44.5543 36.413 45.5268 34.5101C46.4993 32.6072 46.9631 30.4851 46.8731 28.35C46.7131 25.53 45.1431 22.08 42.0831 21.17C40.1767 20.7694 38.1956 20.9221 36.3731 21.61C33.2658 22.5179 30.2521 23.72 27.3731 25.2C25.0109 26.2862 22.8895 27.8331 21.1331 29.75C20.2996 30.6929 19.6917 31.8133 19.3556 33.0262C19.0194 34.239 18.9639 35.5124 19.1931 36.75C19.2212 36.8556 19.214 36.9676 19.1724 37.0687C19.1309 37.1699 19.0574 37.2546 18.9631 37.3099C18.875 37.3757 18.768 37.4112 18.6581 37.4112C18.5481 37.4112 18.4412 37.3757 18.3531 37.3099C17.7459 36.891 17.009 36.7031 16.2754 36.7801C15.5418 36.8571 14.8599 37.194 14.3531 37.73C13.8342 38.3322 13.4621 39.0467 13.266 39.8171C13.0699 40.5875 13.0552 41.3929 13.2231 42.17C13.5865 43.803 14.2329 45.3598 15.1331 46.7699C15.5531 47.4999 16.2031 48.34 16.8831 48.19C17.017 48.16 17.1572 48.1842 17.2734 48.2573C17.3895 48.3303 17.4721 48.4463 17.5031 48.58C17.5177 48.6463 17.5188 48.7149 17.5065 48.7818C17.4942 48.8486 17.4687 48.9123 17.4314 48.9691C17.3942 49.026 17.3459 49.0748 17.2895 49.1127C17.2331 49.1506 17.1697 49.1769 17.1031 49.19C16.9691 49.2243 16.8313 49.2411 16.6931 49.24Z" fill="#093269"/>
<path d="M35.523 60.7701C33.1281 60.1694 30.8219 59.2584 28.663 58.0601C28.663 58.0601 28.533 62.5601 35.443 64.7101L35.523 60.7701Z" fill="#093269"/>
<path d="M35.443 65.1499H35.313C28.163 62.9299 28.223 58.2699 28.223 58.0699C28.2269 57.9926 28.2512 57.9177 28.2933 57.8527C28.3355 57.7877 28.394 57.735 28.463 57.6999C28.5296 57.6603 28.6056 57.6394 28.683 57.6394C28.7605 57.6394 28.8365 57.6603 28.903 57.6999C31.0233 58.8709 33.2852 59.7648 35.633 60.3599C35.729 60.3829 35.8142 60.4381 35.8743 60.5164C35.9344 60.5947 35.9657 60.6913 35.963 60.7899L35.883 64.7299C35.8796 64.7974 35.8607 64.8632 35.8277 64.9221C35.7948 64.9811 35.7487 65.0317 35.693 65.0699C35.6219 65.1255 35.5332 65.1538 35.443 65.1499ZM29.223 58.8999C29.533 60.1599 30.693 62.5999 35.013 64.0999L35.073 61.0999C33.0506 60.5758 31.0896 59.8384 29.223 58.8999Z" fill="#093269"/>
<path d="M17.5731 93.53C17.5731 93.53 41.4531 120.97 56.2631 114.16C71.0731 107.35 92.9831 80.4 92.9831 80.4C92.9831 80.4 99.8931 73.19 98.5131 72.8C97.1331 72.41 92.5831 76.8 92.5831 76.8C92.5831 76.8 97.7231 70.68 95.7431 70.68C93.7631 70.68 90.0231 75.22 90.0231 75.22C90.0231 75.22 96.1431 68.31 93.5731 68.7C91.0031 69.09 87.8531 72.85 87.8531 72.85C87.8531 72.85 93.9731 66.93 91.6031 67.13C89.2331 67.33 82.9131 73.24 82.9131 73.24C82.9131 73.24 85.4831 67.32 83.5031 67.52C81.5231 67.72 81.1331 73 78.1331 75.76C75.1331 78.52 56.0231 96.88 52.4731 96.69C48.9231 96.5 33.1331 79.51 33.1331 79.51" fill="white"/>
<path d="M51.0231 115.76C45.5131 115.76 38.8331 112.76 31.0231 106.76C26.03 102.865 21.3888 98.5379 17.1531 93.83C17.0609 93.7348 17.0093 93.6075 17.0093 93.475C17.0093 93.3425 17.0609 93.2151 17.1531 93.12C17.1987 93.0734 17.2532 93.0364 17.3133 93.0112C17.3734 92.9859 17.4379 92.9729 17.5031 92.9729C17.5683 92.9729 17.6328 92.9859 17.6929 93.0112C17.753 93.0364 17.8075 93.0734 17.8531 93.12C18.0931 93.39 41.6631 120.2 55.9631 113.62C70.4931 106.94 92.2831 80.27 92.5031 80C95.0031 77.4 97.6531 74.25 98.0531 73.2C97.1331 73.38 94.7431 75.2 92.8431 77.03C92.7506 77.1165 92.6287 77.1648 92.5021 77.1649C92.3754 77.1651 92.2534 77.1171 92.1607 77.0308C92.068 76.9444 92.0115 76.8261 92.0027 76.6998C91.9939 76.5734 92.0333 76.4484 92.1131 76.35C94.0031 74.09 95.5331 71.76 95.6131 71.06C94.4831 71.15 92.4931 72.98 91.0731 74.54L90.3031 75.42C90.2096 75.5116 90.084 75.5629 89.9531 75.5629C89.8223 75.5629 89.6966 75.5116 89.6031 75.42C89.5053 75.3332 89.4445 75.2122 89.4334 75.082C89.4222 74.9517 89.4615 74.8221 89.5431 74.72C89.6331 74.61 89.8731 74.32 90.2231 73.94C91.9231 71.94 93.4931 69.74 93.6131 69.01C92.2482 69.3893 91.0068 70.1203 90.0131 71.13C89.4131 71.78 88.7731 72.42 88.1531 73.02C88.0606 73.1065 87.9387 73.1548 87.8121 73.1549C87.6854 73.1551 87.5634 73.1071 87.4707 73.0208C87.378 72.9344 87.3215 72.8161 87.3127 72.6898C87.3039 72.5634 87.3433 72.4384 87.4231 72.34C87.9819 71.7037 88.5727 71.0963 89.1931 70.52C90.1251 69.6084 90.9261 68.5718 91.5731 67.44C89.7531 67.63 84.9331 71.81 83.2131 73.44C83.1292 73.517 83.0216 73.5631 82.9079 73.5707C82.7943 73.5782 82.6815 73.5467 82.5882 73.4814C82.4948 73.4161 82.4266 73.3208 82.3948 73.2115C82.363 73.1021 82.3694 72.9852 82.4131 72.88C83.2931 70.88 83.9831 68.36 83.6231 67.88C83.6231 67.88 83.6231 67.88 83.5131 67.88C82.8131 67.95 82.2231 69.34 81.6031 70.82C80.9332 72.7583 79.8673 74.536 78.4731 76.04L77.4731 77.04C62.7831 90.89 54.8731 97.28 52.4731 97.15C48.8231 96.94 34.4731 81.57 32.7931 79.81C32.7466 79.7644 32.7096 79.7099 32.6843 79.6498C32.6591 79.5897 32.646 79.5252 32.646 79.46C32.646 79.3948 32.6591 79.3303 32.6843 79.2702C32.7096 79.2101 32.7466 79.1556 32.7931 79.11C32.8396 79.0631 32.8949 79.0259 32.9558 79.0005C33.0168 78.9752 33.0821 78.9621 33.1481 78.9621C33.2141 78.9621 33.2795 78.9752 33.3404 79.0005C33.4013 79.0259 33.4566 79.0631 33.5031 79.11C39.7931 85.88 50.0531 95.99 52.5031 96.11C53.9131 96.18 59.2331 92.8 76.7831 76.27L77.7831 75.32C79.0746 73.9115 80.0588 72.2496 80.6731 70.44C81.4731 68.53 82.1131 67.02 83.4031 66.89C83.592 66.8666 83.7836 66.8931 83.9591 66.9668C84.1345 67.0405 84.2876 67.1588 84.4031 67.31C84.9631 68.08 84.5531 69.87 84.0531 71.31C86.1431 69.49 89.7031 66.61 91.4931 66.46C91.6883 66.416 91.8926 66.4384 92.0737 66.5235C92.2548 66.6086 92.4024 66.7516 92.4931 66.93C92.6531 67.28 92.4931 67.82 92.1031 68.46C92.5223 68.2615 92.9663 68.1203 93.4231 68.04C93.6254 67.9749 93.844 67.9811 94.0423 68.0575C94.2406 68.1339 94.4068 68.276 94.5131 68.46C94.7531 68.9 94.5131 69.68 93.9631 70.61C94.4691 70.2679 95.0545 70.0613 95.6631 70.01C95.8403 69.9967 96.0175 70.0361 96.1723 70.1233C96.3271 70.2105 96.4527 70.3416 96.5331 70.5C96.8031 71.09 96.2931 72.22 95.5331 73.44C96.7031 72.61 97.8731 72 98.5331 72.2C98.6585 72.2319 98.773 72.2971 98.8645 72.3886C98.956 72.4801 99.0212 72.5946 99.0531 72.72C99.3931 73.97 95.5531 78.21 93.2331 80.63C92.3631 81.7 71.1031 107.71 56.3631 114.49C54.6959 115.294 52.874 115.728 51.0231 115.76Z" fill="#093269"/>
<path d="M38.4731 55.64C38.3795 55.8014 38.2689 55.9523 38.1431 56.09C35.4031 59.3 32.2231 56.32 30.4231 53.93C30.6031 54.18 34.2731 53.11 34.6431 53.04L39.1631 52.04C39.3022 52.6553 39.3127 53.2926 39.1939 53.9121C39.0752 54.5316 38.8298 55.1198 38.4731 55.64Z" fill="#093269"/>
<path d="M67.333 234.78L68.073 243.17C68.073 243.17 107.013 237.69 105.383 236.06C103.753 234.43 89.593 230.33 89.593 230.33" fill="white"/>
<path d="M68.0731 243.67C67.9604 243.669 67.8514 243.63 67.7631 243.56C67.6567 243.472 67.5885 243.347 67.5731 243.21L66.8331 234.82C66.8211 234.687 66.8624 234.555 66.9477 234.453C67.033 234.351 67.1555 234.287 67.2881 234.275C67.4207 234.263 67.5526 234.304 67.6548 234.39C67.757 234.475 67.8211 234.597 67.8331 234.73L68.5231 242.6C81.5231 240.76 101.683 237.55 104.683 236.15C102.683 234.89 94.6831 232.33 89.4531 230.81C89.3904 230.793 89.3318 230.763 89.2807 230.723C89.2296 230.683 89.187 230.633 89.1553 230.576C89.1237 230.519 89.1037 230.457 89.0964 230.392C89.0892 230.328 89.0948 230.262 89.1131 230.2C89.1504 230.072 89.2361 229.964 89.3519 229.899C89.4677 229.833 89.6045 229.816 89.7331 229.85C91.1931 230.28 104.063 234.03 105.733 235.71C105.82 235.793 105.881 235.9 105.91 236.017C105.938 236.134 105.932 236.256 105.893 236.37C105.283 238.18 81.9731 241.71 68.1331 243.66L68.0731 243.67Z" fill="#093269"/>
<path d="M35.733 237.94V244.75L0.493042 245C0.493042 245 6.71304 239.08 12.633 236.71" fill="white"/>
<path d="M0.493062 245.54C0.393982 245.539 0.297545 245.508 0.215993 245.452C0.13444 245.395 0.071451 245.316 0.0350199 245.224C-0.00141125 245.132 -0.0096407 245.031 0.0113764 244.934C0.0323934 244.837 0.0817079 244.749 0.153062 244.68C0.403062 244.44 6.50306 238.68 12.4531 236.29C12.5141 236.266 12.5794 236.254 12.6451 236.254C12.7108 236.255 12.7758 236.269 12.8361 236.295C12.8965 236.321 12.9511 236.359 12.997 236.406C13.0428 236.453 13.0788 236.509 13.1031 236.57C13.1496 236.694 13.1464 236.83 13.0942 236.951C13.0419 237.073 12.9448 237.169 12.8231 237.22C8.41306 238.98 3.76306 242.81 1.82306 244.53L35.2531 244.25V237.94C35.2531 237.807 35.3057 237.68 35.3995 237.586C35.4933 237.493 35.6205 237.44 35.7531 237.44C35.8857 237.44 36.0128 237.493 36.1066 237.586C36.2004 237.68 36.2531 237.807 36.2531 237.94V244.75C36.2505 244.882 36.197 245.007 36.1038 245.101C36.0106 245.194 35.8849 245.247 35.7531 245.25L0.523061 245.54H0.493062Z" fill="#093269"/>
<path d="M38.4831 147.52C35.8431 147.52 34.1531 147.43 34.1231 147.43C33.9923 147.417 33.8711 147.356 33.7839 147.257C33.6967 147.159 33.65 147.031 33.6531 146.9C33.6569 146.834 33.6737 146.77 33.7024 146.711C33.7311 146.652 33.7713 146.599 33.8205 146.555C33.8698 146.511 33.9271 146.478 33.9894 146.456C34.0516 146.435 34.1174 146.426 34.1831 146.43C39.0296 146.64 43.8849 146.51 48.7131 146.04C48.7777 146.032 48.8434 146.037 48.9061 146.054C48.9688 146.072 49.0271 146.103 49.0777 146.144C49.1282 146.185 49.1698 146.236 49.2 146.294C49.2301 146.352 49.2482 146.415 49.2531 146.48C49.2672 146.611 49.2288 146.743 49.1464 146.846C49.064 146.949 48.9442 147.015 48.8131 147.03C44.8531 147.42 41.1331 147.52 38.4831 147.52Z" fill="white"/>
<path d="M88.3831 149.55C88.2699 149.552 88.1598 149.513 88.0731 149.44C87.9707 149.357 87.9042 149.239 87.8875 149.108C87.8707 148.978 87.905 148.846 87.9831 148.74L98.0531 135.74C98.1371 135.64 98.2558 135.575 98.3855 135.558C98.5152 135.541 98.6465 135.574 98.7531 135.65C98.8583 135.733 98.9267 135.854 98.9436 135.987C98.9604 136.119 98.9243 136.254 98.8431 136.36L88.7831 149.36C88.735 149.42 88.674 149.468 88.6048 149.501C88.5355 149.534 88.4598 149.55 88.3831 149.55Z" fill="#D5E6FB"/>
<path d="M141.543 190.62C141.416 190.62 141.295 190.571 141.203 190.484C141.112 190.396 141.058 190.276 141.053 190.15L138.053 137.44C138.048 137.306 138.095 137.176 138.185 137.077C138.274 136.978 138.4 136.918 138.533 136.91C138.598 136.906 138.664 136.915 138.725 136.937C138.787 136.958 138.844 136.992 138.892 137.036C138.94 137.079 138.98 137.132 139.007 137.192C139.035 137.251 139.05 137.315 139.053 137.38L142.053 190.09C142.057 190.156 142.048 190.222 142.027 190.284C142.005 190.346 141.972 190.403 141.928 190.453C141.884 190.502 141.831 190.542 141.772 190.571C141.713 190.599 141.649 190.616 141.583 190.62H141.543Z" fill="#D5E6FB"/>
<path d="M236.073 69.11C235.491 70.0767 234.97 71.0786 234.513 72.11C230.133 81.32 224.463 92.66 213.133 94.3C205.183 95.45 197.003 93.91 189.503 91.3C187.17 90.5219 184.963 89.4068 182.953 87.99C180.573 86.18 178.563 83.46 176.463 81.32C175.933 80.77 175.003 80.22 174.463 80.8C173.923 81.38 174.363 81.91 174.673 82.4C175.772 84.1471 177.024 85.7935 178.413 87.32C176.723 86.64 174.993 86.04 173.243 85.51C171.726 84.957 170.168 84.5257 168.583 84.22C168.288 84.2221 168.001 84.3165 167.763 84.49C167.648 84.582 167.569 84.7109 167.538 84.8548C167.507 84.9987 167.526 85.1489 167.593 85.28C167.674 85.3956 167.78 85.4914 167.903 85.56C169.088 86.3395 170.387 86.9299 171.753 87.31C170.577 86.7248 169.295 86.3846 167.983 86.31C167.413 86.31 166.703 86.39 166.513 86.93C166.323 87.47 166.883 88.04 167.403 88.36C168.569 89.0801 169.823 89.648 171.133 90.05C170.107 89.535 169.044 89.0971 167.953 88.74C167.273 88.52 166.393 88.38 165.953 88.96C165.828 89.1518 165.761 89.3759 165.761 89.605C165.761 89.8341 165.828 90.0582 165.953 90.25C166.214 90.6218 166.556 90.9296 166.953 91.15C168.001 91.8015 169.126 92.3189 170.303 92.69L167.133 91.59C166.906 91.4733 166.654 91.4124 166.398 91.4124C166.142 91.4124 165.891 91.4733 165.663 91.59C165.153 92 165.353 92.84 165.743 93.38C166.558 94.248 167.565 94.9125 168.683 95.32C170.153 96.021 171.658 96.6452 173.193 97.19C183.403 101.19 192.313 106.86 203.513 107.79C215.883 108.79 229.763 105.47 238.983 96.79C244.563 91.54 250.333 82.49 249.333 74.38C249.003 71.73 248.593 68.07 246.263 66.38C243.773 64.53 239.263 65.44 237.263 67.55C236.817 68.0308 236.419 68.5531 236.073 69.11Z" fill="white"/>
<path d="M208.043 108.5C206.543 108.5 205.043 108.44 203.493 108.31C195.423 107.63 188.673 104.58 181.493 101.31C178.743 100.06 175.893 98.77 172.983 97.64L171.983 97.28C170.761 96.836 169.563 96.3286 168.393 95.76L167.803 95.47C166.825 95.0873 165.958 94.4649 165.283 93.66C164.972 93.3237 164.8 92.8828 164.8 92.425C164.8 91.9672 164.972 91.5262 165.283 91.19C165.469 91.0441 165.689 90.9477 165.923 90.91C165.772 90.772 165.641 90.6139 165.533 90.44C165.349 90.1664 165.251 89.8444 165.251 89.515C165.251 89.1855 165.349 88.8635 165.533 88.59C165.726 88.3287 166.001 88.1388 166.313 88.05C166.148 87.8717 166.032 87.6532 165.978 87.4164C165.924 87.1795 165.932 86.9325 166.003 86.7C166.114 86.428 166.301 86.1943 166.543 86.0273C166.785 85.8604 167.07 85.7675 167.363 85.76C167.234 85.6579 167.13 85.528 167.058 85.38C166.986 85.2319 166.949 85.0695 166.949 84.905C166.949 84.7405 166.986 84.5781 167.058 84.43C167.13 84.282 167.234 84.152 167.363 84.05C167.683 83.8015 168.078 83.6677 168.483 83.67C169.853 83.834 171.197 84.17 172.483 84.67L173.313 84.93C174.443 85.27 175.563 85.64 176.683 86.05C175.777 84.9437 174.942 83.7814 174.183 82.57C173.463 81.43 173.693 80.75 174.013 80.38C174.12 80.2493 174.254 80.1438 174.406 80.0712C174.558 79.9985 174.724 79.9606 174.893 79.96C175.595 80.0164 176.247 80.3426 176.713 80.87C177.433 81.6 178.153 82.42 178.843 83.2C180.138 84.7652 181.578 86.2049 183.143 87.5C185.113 88.8802 187.272 89.9682 189.553 90.73C198.093 93.73 205.963 94.73 212.953 93.73C224.353 92.08 230.123 79.87 233.953 71.79C234.417 70.7563 234.948 69.7541 235.543 68.79C235.911 68.1964 236.336 67.6403 236.813 67.13C238.933 64.9 243.723 63.86 246.483 65.9C248.943 67.73 249.403 71.43 249.733 74.14V74.29C250.733 82.29 245.173 91.54 239.223 97.13C231.673 104.41 220.213 108.5 208.043 108.5ZM166.303 91.92C166.198 91.9178 166.094 91.9456 166.003 92C165.773 92.19 165.913 92.73 166.183 93.1C166.76 93.7727 167.501 94.2858 168.333 94.59L168.943 94.9C170.081 95.4489 171.246 95.9395 172.433 96.37L173.433 96.74C176.363 97.88 179.223 99.18 181.983 100.43C189.043 103.63 195.703 106.65 203.613 107.31C217.153 108.44 230.273 104.39 238.703 96.46C244.463 91.04 249.843 82.14 248.893 74.46V74.31C248.573 71.79 248.153 68.31 246.033 66.76C243.733 65.05 239.523 65.94 237.683 67.87C237.255 68.3339 236.87 68.836 236.533 69.37C235.962 70.3103 235.451 71.2855 235.003 72.29C231.093 80.56 225.183 93.06 213.253 94.79C206.103 95.79 198.073 94.79 189.383 91.73C187.006 90.9221 184.754 89.7844 182.693 88.35C181.077 87.0203 179.59 85.5404 178.253 83.93C177.533 83.11 176.853 82.35 176.153 81.63C175.876 81.311 175.499 81.0959 175.083 81.02C175.053 81.0188 175.023 81.0245 174.995 81.0366C174.967 81.0487 174.943 81.067 174.923 81.09C174.793 81.24 174.923 81.63 175.193 82.09C176.262 83.8289 177.48 85.4717 178.833 87C178.91 87.0825 178.957 87.1887 178.966 87.3013C178.975 87.4138 178.946 87.5262 178.883 87.62C178.819 87.7139 178.724 87.7829 178.615 87.8156C178.506 87.8483 178.389 87.8428 178.283 87.8C176.603 87.13 174.873 86.53 173.143 86.01L172.293 85.74C171.113 85.3057 169.899 84.9712 168.663 84.74C168.479 84.7412 168.299 84.7931 168.143 84.89C168.119 84.9091 168.101 84.9336 168.089 84.9615C168.076 84.9893 168.071 85.0197 168.073 85.05C168.118 85.0937 168.168 85.1307 168.223 85.16C168.76 85.5178 169.326 85.8321 169.913 86.1C170.646 86.2869 171.357 86.5517 172.033 86.89C172.144 86.9442 172.23 87.0382 172.274 87.1531C172.319 87.268 172.318 87.3954 172.273 87.51C172.226 87.6246 172.14 87.7188 172.03 87.7756C171.92 87.8325 171.794 87.8482 171.673 87.82C170.957 87.6203 170.258 87.3628 169.583 87.05C169.064 86.9287 168.535 86.8518 168.003 86.82C167.583 86.82 167.123 86.88 167.003 87.1C166.883 87.32 167.283 87.7 167.683 87.95C167.913 88.1 168.163 88.24 168.403 88.37C169.429 88.7174 170.431 89.1317 171.403 89.61C171.513 89.6678 171.598 89.7637 171.642 89.8797C171.686 89.9957 171.687 90.1238 171.643 90.24C171.594 90.3549 171.506 90.4484 171.394 90.5035C171.282 90.5585 171.154 90.5715 171.033 90.54C169.995 90.2212 168.99 89.8026 168.033 89.29L167.833 89.22C167.493 89.11 166.683 88.9 166.413 89.22C166.354 89.335 166.328 89.4645 166.338 89.5936C166.349 89.7227 166.396 89.8462 166.473 89.95C166.695 90.2596 166.986 90.513 167.323 90.69C168.295 91.2953 169.336 91.782 170.423 92.14L170.563 92.19C170.679 92.2379 170.772 92.3273 170.825 92.4407C170.878 92.5541 170.886 92.6832 170.849 92.8025C170.811 92.9218 170.73 93.0227 170.621 93.0851C170.513 93.1476 170.385 93.1672 170.263 93.14H170.113L166.993 92.14C166.774 92.0357 166.542 91.9616 166.303 91.92Z" fill="#093269"/>
<path d="M133.753 32C133.62 32 133.493 31.9473 133.4 31.8536C133.306 31.7598 133.253 31.6326 133.253 31.5V0.5C133.253 0.367392 133.306 0.240214 133.4 0.146446C133.493 0.052678 133.62 0 133.753 0C133.886 0 134.013 0.052678 134.107 0.146446C134.2 0.240214 134.253 0.367392 134.253 0.5V31.5C134.253 31.6326 134.2 31.7598 134.107 31.8536C134.013 31.9473 133.886 32 133.753 32Z" fill="#D5E6FB"/>
<path d="M72.9331 26.93C72.8556 26.9292 72.7793 26.9108 72.71 26.8762C72.6407 26.8415 72.5801 26.7915 72.5331 26.73L63.5331 14.34C63.4943 14.2868 63.4664 14.2265 63.451 14.1626C63.4356 14.0986 63.4329 14.0322 63.4431 13.9672C63.4637 13.8359 63.5356 13.7182 63.6431 13.64C63.7505 13.5618 63.8846 13.5294 64.0158 13.55C64.1471 13.5707 64.2648 13.6426 64.3431 13.75L73.3431 26.14C73.419 26.2482 73.45 26.3816 73.4295 26.5122C73.409 26.6428 73.3385 26.7603 73.2331 26.84C73.1444 26.8995 73.0398 26.9309 72.9331 26.93Z" fill="#D5E6FB"/>
<path d="M15.1331 91.44C15.0556 91.4393 14.9793 91.4209 14.91 91.3862C14.8407 91.3516 14.7802 91.3016 14.7331 91.24C10.9031 86.15 7.8331 81.37 7.8031 81.32C7.76819 81.2643 7.74463 81.2021 7.73378 81.1372C7.72292 81.0723 7.72499 81.0059 7.73985 80.9418C7.75472 80.8777 7.78209 80.8172 7.8204 80.7637C7.85871 80.7102 7.9072 80.6648 7.9631 80.63C8.01847 80.5938 8.08062 80.5691 8.14579 80.5575C8.21096 80.5459 8.27781 80.5476 8.34229 80.5626C8.40677 80.5775 8.46756 80.6054 8.52098 80.6445C8.5744 80.6836 8.61934 80.7331 8.6531 80.79C8.6531 80.79 11.7231 85.58 15.5331 90.64C15.5725 90.6926 15.6012 90.7523 15.6175 90.816C15.6338 90.8796 15.6374 90.9458 15.6281 91.0108C15.6188 91.0758 15.5968 91.1383 15.5633 91.1948C15.5299 91.2513 15.4856 91.3006 15.4331 91.34C15.3477 91.407 15.2416 91.4424 15.1331 91.44Z" fill="#093269"/>
<path d="M258.953 184.23C258.831 184.229 258.713 184.184 258.621 184.103C258.529 184.022 258.47 183.911 258.453 183.79C258.453 183.42 253.933 146.92 252.083 138.03C252.057 137.897 252.084 137.76 252.159 137.647C252.234 137.535 252.35 137.456 252.483 137.43C252.616 137.403 252.753 137.431 252.866 137.506C252.978 137.581 253.057 137.697 253.083 137.83C254.943 146.76 259.433 183.3 259.473 183.67C259.481 183.734 259.477 183.8 259.46 183.862C259.443 183.925 259.413 183.984 259.373 184.035C259.333 184.086 259.283 184.129 259.227 184.161C259.17 184.192 259.108 184.213 259.043 184.22L258.953 184.23Z" fill="white"/>
</svg>
