<svg width="327" height="228" viewBox="0 0 327 228" fill="none" xmlns="http://www.w3.org/2000/svg">
<path d="M155.39 227.587C241.21 227.587 310.78 222.447 310.78 216.107C310.78 209.766 241.21 204.627 155.39 204.627C69.5705 204.627 0 209.766 0 216.107C0 222.447 69.5705 227.587 155.39 227.587Z" fill="#D5E6FB"/>
<path d="M258.12 61.3965C260.408 61.3582 262.681 61.7712 264.81 62.6121C266.938 63.453 268.879 64.7052 270.523 66.2971C272.167 67.889 273.481 69.7894 274.39 71.8895C275.299 73.9897 275.785 76.2484 275.82 78.5365V198.147C275.752 202.114 274.114 205.893 271.265 208.656C268.416 211.419 264.588 212.94 260.62 212.887H92.11C88.1419 212.94 84.3143 211.419 81.4654 208.656C78.6165 205.893 76.9784 202.114 76.91 198.147V58.0465C76.9784 54.0787 78.6165 50.2996 81.4654 47.5369C84.3143 44.7742 88.1419 43.253 92.11 43.3065H157.11C167.42 43.3065 175.77 51.4165 175.77 61.4065H258.12V61.3965Z" fill="#093269"/>
<path d="M260.59 213.387H92.11C88.0085 213.443 84.0522 211.87 81.109 209.013C78.1657 206.156 76.4758 202.248 76.41 198.147V58.0466C76.4758 53.9453 78.1657 50.0375 81.109 47.1805C84.0522 44.3235 88.0085 42.7505 92.11 42.8066H157.11C167.5 42.8066 175.99 50.8866 176.26 60.9166H258.12C268.12 60.9166 276.28 68.8266 276.28 78.5466V198.147C276.214 202.246 274.526 206.152 271.585 209.009C268.644 211.866 264.69 213.44 260.59 213.387ZM92.11 43.7966C88.272 43.7405 84.5686 45.2094 81.8126 47.8811C79.0565 50.5527 77.4732 54.2087 77.41 58.0466V198.147C77.4758 201.983 79.0603 205.636 81.816 208.306C84.5718 210.975 88.2737 212.443 92.11 212.387H260.59C264.426 212.443 268.128 210.975 270.884 208.306C273.64 205.636 275.224 201.983 275.29 198.147V78.5366C275.29 69.3666 267.59 61.8966 258.12 61.8966H175.82C175.687 61.8966 175.56 61.8439 175.466 61.7502C175.373 61.6564 175.32 61.5292 175.32 61.3966C175.32 51.6966 167.17 43.7966 157.16 43.7966H92.11Z" fill="#093269"/>
<path d="M104.32 193.267V7.0166H228.49L257.51 36.0466V190.037L104.32 193.267Z" fill="#1264D1"/>
<path d="M242.14 45.6765H117.04C116.975 45.6765 116.91 45.6635 116.85 45.6383C116.79 45.613 116.736 45.576 116.69 45.5295C116.644 45.4829 116.608 45.4277 116.584 45.3671C116.56 45.3065 116.549 45.2417 116.55 45.1765C116.55 45.0456 116.601 44.9199 116.693 44.8265C116.785 44.733 116.909 44.6791 117.04 44.6765H242.14C242.271 44.6791 242.396 44.733 242.487 44.8265C242.579 44.9199 242.63 45.0456 242.63 45.1765C242.631 45.2417 242.62 45.3065 242.596 45.3671C242.572 45.4277 242.536 45.4829 242.49 45.5295C242.444 45.576 242.39 45.613 242.33 45.6383C242.27 45.6635 242.205 45.6765 242.14 45.6765Z" fill="white"/>
<path d="M242.14 65.6566H117.04C116.907 65.6566 116.78 65.6039 116.686 65.5102C116.593 65.4164 116.54 65.2892 116.54 65.1566C116.54 65.024 116.593 64.8968 116.686 64.8031C116.78 64.7093 116.907 64.6566 117.04 64.6566H242.14C242.273 64.6566 242.4 64.7093 242.494 64.8031C242.587 64.8968 242.64 65.024 242.64 65.1566C242.64 65.2892 242.587 65.4164 242.494 65.5102C242.4 65.6039 242.273 65.6566 242.14 65.6566Z" fill="white"/>
<path d="M242.14 85.6366H117.04C116.909 85.634 116.785 85.5801 116.693 85.4867C116.601 85.3932 116.55 85.2675 116.55 85.1366C116.549 85.0714 116.56 85.0066 116.584 84.946C116.608 84.8854 116.644 84.8302 116.69 84.7836C116.736 84.7371 116.79 84.7001 116.85 84.6748C116.91 84.6496 116.975 84.6366 117.04 84.6366H242.14C242.205 84.6366 242.27 84.6496 242.33 84.6748C242.39 84.7001 242.444 84.7371 242.49 84.7836C242.536 84.8302 242.572 84.8854 242.596 84.946C242.62 85.0066 242.631 85.0714 242.63 85.1366C242.63 85.2675 242.579 85.3932 242.487 85.4867C242.396 85.5801 242.271 85.634 242.14 85.6366Z" fill="white"/>
<path d="M242.14 105.607H117.04C116.907 105.607 116.78 105.554 116.686 105.46C116.593 105.366 116.54 105.239 116.54 105.107C116.54 104.974 116.593 104.847 116.686 104.753C116.78 104.659 116.907 104.607 117.04 104.607H242.14C242.273 104.607 242.4 104.659 242.494 104.753C242.587 104.847 242.64 104.974 242.64 105.107C242.64 105.239 242.587 105.366 242.494 105.46C242.4 105.554 242.273 105.607 242.14 105.607Z" fill="white"/>
<path d="M133.89 21.6665H117.4C117.267 21.6665 117.14 21.6138 117.046 21.5201C116.953 21.4263 116.9 21.2991 116.9 21.1665C116.903 21.0347 116.956 20.909 117.049 20.8158C117.142 20.7226 117.268 20.6691 117.4 20.6665H133.89C134.021 20.6691 134.145 20.723 134.237 20.8164C134.329 20.9099 134.38 21.0356 134.38 21.1665C134.381 21.2317 134.37 21.2965 134.346 21.3571C134.322 21.4177 134.286 21.4729 134.24 21.5195C134.194 21.566 134.14 21.603 134.08 21.6283C134.02 21.6535 133.955 21.6665 133.89 21.6665Z" fill="white"/>
<path d="M60.54 96.4666C58.45 97.2666 55 98.0166 54.11 95.1066C53.9669 94.5895 53.9228 94.0501 53.98 93.5166C54.0542 92.7328 54.1947 91.9567 54.4 91.1966C54.9565 89.0571 55.6959 86.9694 56.61 84.9566C56.83 84.4466 57.26 83.8366 57.78 84.0166C58.3 84.1966 58.3 84.7566 58.29 85.2166C58.29 86.5366 58.07 87.8666 58.1 89.2166C60.88 88.5066 62.63 85.5666 65.27 84.9366C66.02 84.7566 66.92 84.7066 67 85.6666C67.1 86.8566 64.95 87.7966 64.23 88.4166C65.0328 87.7208 65.9587 87.1816 66.96 86.8266C67.2388 86.7012 67.5462 86.6529 67.85 86.6866C68.0011 86.705 68.1418 86.7728 68.2504 86.8795C68.3589 86.9863 68.4291 87.1259 68.45 87.2766C68.4308 87.5292 68.3164 87.7651 68.13 87.9366C67.7213 88.4023 67.2655 88.8245 66.77 89.1966C67.2659 88.6162 67.9418 88.2184 68.69 88.0666C68.8748 88.005 69.0735 87.9986 69.2618 88.0484C69.4501 88.0981 69.6198 88.2018 69.75 88.3466C70.05 88.8566 69.46 89.4166 68.95 89.7066C69.358 89.3456 69.8552 89.1004 70.39 88.9966C70.657 88.9515 70.9311 89.0103 71.1561 89.161C71.3811 89.3116 71.5399 89.5426 71.6 89.8066C71.5873 90.0168 71.5299 90.2219 71.4316 90.4081C71.3333 90.5944 71.1964 90.7575 71.03 90.8866C68.29 93.5566 64.06 95.1066 60.54 96.4666Z" fill="white"/>
<path d="M57.19 97.6865C56.5418 97.7013 55.8988 97.5679 55.31 97.2965C54.9054 97.0995 54.5468 96.8197 54.2574 96.4751C53.968 96.1306 53.7542 95.729 53.63 95.2965C53.4681 94.718 53.4172 94.114 53.48 93.5165C53.5615 92.7067 53.7053 91.9043 53.91 91.1165C54.479 88.951 55.2283 86.837 56.15 84.7965C56.57 83.7965 57.26 83.3565 57.94 83.5865C58.34 83.7165 58.82 84.1265 58.79 85.2765C58.79 85.8365 58.79 86.4065 58.7 86.9765C58.61 87.5465 58.62 87.9765 58.6 88.5365C59.6336 88.0522 60.5905 87.4188 61.44 86.6565C62.495 85.6552 63.7635 84.9063 65.15 84.4665C65.4482 84.3602 65.7656 84.3186 66.0812 84.3444C66.3967 84.3703 66.7031 84.463 66.98 84.6165C67.1336 84.7359 67.2596 84.8871 67.3494 85.0597C67.4391 85.2323 67.4905 85.4222 67.5 85.6165C67.5158 85.8053 67.4954 85.9954 67.44 86.1765C67.6057 86.1516 67.7743 86.1516 67.94 86.1765C68.2006 86.2174 68.4402 86.3437 68.6212 86.5355C68.8022 86.7274 68.9144 86.974 68.94 87.2365C68.9457 87.3264 68.9457 87.4166 68.94 87.5065C69.1796 87.4777 69.4224 87.5146 69.6426 87.6132C69.8628 87.7119 70.052 87.8686 70.19 88.0665C70.2602 88.194 70.3076 88.3327 70.33 88.4765C70.7853 88.43 71.2409 88.5627 71.6 88.8465C71.7361 88.9568 71.8487 89.0933 71.9312 89.2479C72.0136 89.4025 72.0642 89.572 72.08 89.7465C72.0798 90.0306 72.016 90.311 71.8931 90.5671C71.7702 90.8233 71.5915 91.0486 71.37 91.2265C68.68 93.8765 64.7 95.4065 61.18 96.7565L60.71 96.9365C59.5897 97.3908 58.3982 97.6446 57.19 97.6865ZM57.6 84.4865C57.48 84.4865 57.24 84.7565 57.07 85.1465C56.1697 87.1353 55.4372 89.1958 54.88 91.3065C54.6894 92.0457 54.5524 92.7976 54.47 93.5565C54.4219 94.0266 54.4626 94.5015 54.59 94.9565C54.6654 95.2672 54.8084 95.5573 55.0089 95.8063C55.2095 96.0552 55.4625 96.2568 55.75 96.3965C57.12 97.0665 59.23 96.3965 60.36 95.9965L60.83 95.8165C64.26 94.4965 68.14 93.0065 70.68 90.5065C70.87 90.3165 71.12 90.0465 71.1 89.8265C71.0945 89.7843 71.08 89.7437 71.0576 89.7075C71.0352 89.6713 71.0053 89.6403 70.97 89.6165C70.8966 89.5562 70.812 89.511 70.721 89.4835C70.63 89.4561 70.5345 89.4469 70.44 89.4565C70.1687 89.5041 69.9121 89.6136 69.69 89.7765C69.5343 89.9005 69.3706 90.0141 69.2 90.1165C69.0885 90.1784 68.9579 90.1963 68.8339 90.1667C68.7099 90.1371 68.6015 90.0621 68.53 89.9565C68.4611 89.8488 68.4352 89.7191 68.4574 89.5931C68.4796 89.4672 68.5484 89.3542 68.65 89.2765L69.08 88.9665C69.1934 88.8829 69.2803 88.7683 69.33 88.6365C69.28 88.5165 69.08 88.4665 68.79 88.5265C68.4799 88.5852 68.1822 88.6968 67.91 88.8565C67.64 89.1065 67.36 89.3465 67.07 89.5665C66.9727 89.6468 66.8486 89.6874 66.7226 89.68C66.5966 89.6726 66.4781 89.6179 66.3908 89.5268C66.3035 89.4357 66.2538 89.315 66.2518 89.1888C66.2498 89.0626 66.2956 88.9403 66.38 88.8465C66.6454 88.5386 66.9555 88.2723 67.3 88.0565C67.46 87.9065 67.61 87.7465 67.76 87.5765C67.91 87.4065 67.95 87.2965 67.95 87.2765C67.95 87.2565 67.87 87.1665 67.76 87.1465C67.5403 87.1371 67.3214 87.1782 67.12 87.2665C66.7772 87.3906 66.4431 87.5376 66.12 87.7065C65.85 87.9065 65.57 88.0865 65.3 88.2565C65.0476 88.4096 64.8039 88.5765 64.57 88.7565C64.4663 88.8388 64.335 88.8784 64.2031 88.8672C64.0712 88.8561 63.9485 88.795 63.86 88.6965C63.7684 88.6031 63.7171 88.4774 63.7171 88.3465C63.7171 88.2156 63.7684 88.09 63.86 87.9965C64.3711 87.5538 64.9315 87.1712 65.53 86.8565C66.05 86.4765 66.53 86.0465 66.46 85.6665C66.46 85.4465 66.37 85.3865 66.35 85.3765C66.33 85.3665 66.04 85.2165 65.35 85.3765C64.111 85.7873 62.9799 86.4708 62.04 87.3765C60.9418 88.4077 59.6311 89.1859 58.2 89.6565C58.1262 89.6745 58.0492 89.6758 57.9748 89.6602C57.9004 89.6446 57.8304 89.6126 57.77 89.5665C57.711 89.5215 57.6626 89.4642 57.6281 89.3986C57.5935 89.333 57.5737 89.2606 57.57 89.1865C57.5627 88.4053 57.5961 87.6243 57.67 86.8465C57.67 86.2965 57.75 85.7465 57.76 85.1965C57.77 84.6465 57.68 84.5065 57.59 84.4865C57.5 84.4665 57.61 84.4865 57.6 84.4865Z" fill="#093269"/>
<path d="M58.23 89.3065C58.8631 90.0715 59.2161 91.0296 59.2306 92.0224C59.2452 93.0153 58.9204 93.9833 58.31 94.7665H58.59" fill="white"/>
<path d="M58.31 95.2666C58.2154 95.2683 58.1223 95.2426 58.042 95.1926C57.9617 95.1426 57.8976 95.0704 57.8574 94.9848C57.8172 94.8991 57.8027 94.8037 57.8156 94.7099C57.8285 94.6162 57.8682 94.5282 57.93 94.4566C58.4636 93.763 58.747 92.9094 58.7343 92.0344C58.7216 91.1594 58.4135 90.3144 57.86 89.6366C57.7677 89.5414 57.7162 89.4141 57.7162 89.2816C57.7162 89.1491 57.7677 89.0217 57.86 88.9266C57.9089 88.8831 57.9659 88.8499 58.0279 88.8288C58.0898 88.8078 58.1553 88.7993 58.2205 88.804C58.2858 88.8086 58.3494 88.8263 58.4077 88.856C58.466 88.8856 58.5178 88.9266 58.56 88.9766C59.2064 89.7501 59.5968 90.7052 59.6774 91.71C59.758 92.7148 59.5248 93.7199 59.01 94.5866C59.0203 94.6327 59.0203 94.6805 59.01 94.7266C59.0156 94.8586 58.9697 94.9876 58.882 95.0865C58.7943 95.1854 58.6717 95.2463 58.54 95.2566H58.23L58.31 95.2666Z" fill="#093269"/>
<path d="M197.492 67.0116L63.0889 54.1174L53.7501 151.46L188.153 164.355L197.492 67.0116Z" fill="white"/>
<path d="M188.17 164.877L53.71 151.987C53.5736 151.971 53.4488 151.903 53.3626 151.796C53.2765 151.69 53.236 151.553 53.25 151.417L62.58 54.0466C62.5927 53.9103 62.6586 53.7845 62.7635 53.6965C62.8683 53.6085 63.0036 53.5654 63.14 53.5765L197.55 66.4665C197.618 66.4715 197.684 66.4901 197.744 66.5212C197.804 66.5524 197.857 66.5955 197.9 66.6479C197.943 66.7002 197.975 66.7608 197.994 66.8259C198.013 66.891 198.018 66.9593 198.01 67.0266L188.68 164.377C188.675 164.445 188.655 164.511 188.622 164.572C188.589 164.632 188.544 164.685 188.49 164.727C188.404 164.812 188.291 164.865 188.17 164.877ZM54.32 151.047L187.7 163.837L196.94 67.5065L63.56 54.6865L54.32 151.047Z" fill="#093269"/>
<path d="M177.65 155.597H177.6L65.82 144.877C65.7529 144.87 65.6877 144.851 65.6282 144.819C65.5687 144.788 65.516 144.745 65.4732 144.692C65.4305 144.64 65.3984 144.58 65.379 144.516C65.3596 144.451 65.3531 144.384 65.36 144.317L73.12 63.3166C73.1254 63.2482 73.1451 63.1817 73.1779 63.1214C73.2106 63.0611 73.2556 63.0084 73.31 62.9666C73.3605 62.9229 73.4193 62.8897 73.4829 62.8691C73.5464 62.8485 73.6134 62.8408 73.68 62.8466L185.48 73.5666C185.547 73.5728 185.612 73.5923 185.672 73.6239C185.731 73.6555 185.784 73.6986 185.827 73.7507C185.87 73.8027 185.902 73.8628 185.921 73.9273C185.94 73.9918 185.947 74.0595 185.94 74.1266L178.18 155.127C178.175 155.195 178.156 155.262 178.123 155.322C178.09 155.383 178.045 155.435 177.99 155.477C177.896 155.558 177.774 155.601 177.65 155.597ZM66.42 143.897L177.18 154.517L184.82 74.5766L74.08 63.9566L66.42 143.897Z" fill="#D5E6FB"/>
<path d="M12.36 210.387L11.51 216.607C11.51 216.607 28.83 218.407 28.17 216.907C26.8935 214.747 25.498 212.661 23.99 210.657" fill="white"/>
<path d="M24.49 218.047C20.75 218.047 15.26 217.557 11.49 217.157C11.4229 217.152 11.3577 217.132 11.2989 217.099C11.2402 217.066 11.1893 217.021 11.15 216.967C11.1071 216.916 11.0759 216.857 11.0586 216.793C11.0414 216.729 11.0384 216.662 11.05 216.597L11.9 210.367C11.9174 210.235 11.9862 210.116 12.0911 210.036C12.1961 209.955 12.3288 209.919 12.46 209.937C12.5912 209.954 12.7101 210.023 12.7907 210.128C12.8713 210.233 12.907 210.365 12.89 210.497L12.11 216.217C18.86 216.897 26.11 217.307 27.61 216.887C26.72 215.217 23.61 211.057 23.61 211.007C23.5624 210.955 23.5262 210.894 23.5038 210.827C23.4813 210.761 23.4732 210.69 23.4799 210.62C23.4866 210.55 23.5079 210.482 23.5426 210.421C23.5772 210.36 23.6243 210.307 23.6809 210.265C23.7374 210.224 23.8021 210.194 23.8708 210.179C23.9394 210.164 24.0104 210.164 24.0792 210.178C24.148 210.192 24.213 210.221 24.27 210.262C24.327 210.303 24.3747 210.356 24.41 210.417C25.9437 212.445 27.3561 214.562 28.64 216.757C28.6938 216.865 28.7158 216.986 28.7034 217.107C28.691 217.227 28.6448 217.341 28.57 217.437C28.23 217.827 26.66 218.047 24.49 218.047Z" fill="#093269"/>
<path d="M55.08 97.2765C55.08 97.2765 66.31 104.757 70.67 102.517C73.25 101.187 75.31 99.2866 77.67 97.6566C79.9122 96.1853 82.0629 94.579 84.11 92.8466C84.3443 92.6504 84.5526 92.4253 84.73 92.1766C84.8804 91.9106 85.0011 91.6289 85.09 91.3366C85.4721 90.1963 85.947 89.0892 86.51 88.0266C86.7044 87.5986 87.0349 87.247 87.45 87.0266C89.76 86.1166 88.31 90.9066 87.84 91.7566C89.62 90.0866 91.46 88.4066 93.4 86.8966C93.4934 86.8023 93.6061 86.7293 93.7304 86.6827C93.8547 86.6361 93.9876 86.617 94.12 86.6266C94.2572 86.6824 94.3694 86.7863 94.4356 86.9187C94.5019 87.0512 94.5176 87.2033 94.48 87.3466C94.4008 87.6305 94.2492 87.8889 94.04 88.0966L90.94 91.7465C91.8242 90.6733 92.7905 89.6703 93.83 88.7465C94.2 88.4065 95.25 87.4066 95.83 87.8066C96.76 88.5066 93.44 92.2665 92.83 92.8865C93.7079 91.6834 94.74 90.6008 95.9 89.6666C96.2074 89.3607 96.6169 89.1791 97.05 89.1566C97.28 89.3866 97.05 89.7766 96.86 90.0266L94.7 92.5166C95.79 91.3166 97 90.0465 98.59 89.7465C98.67 90.0065 98.48 90.2666 98.3 90.4766C95.12 94.1866 91.93 97.8466 88.58 101.397C84.12 106.117 79.28 111.567 72.93 113.397C65.4 115.597 58.66 111.137 52.47 107.307" fill="white"/>
<path d="M68.87 114.417C63.07 114.417 57.74 111.107 52.93 108.127L52.2 107.677C52.0873 107.606 52.0071 107.494 51.9771 107.365C51.9471 107.235 51.9697 107.099 52.04 106.987C52.1103 106.874 52.2225 106.794 52.3519 106.764C52.4813 106.734 52.6173 106.756 52.73 106.827L53.46 107.277C59.46 111.027 65.76 114.907 72.78 112.857C78.63 111.137 83.31 106.167 87.43 101.787L88.21 100.957C91.51 97.4665 94.69 93.8065 97.42 90.6265C96.5343 91.2185 95.7394 91.936 95.06 92.7565C95.0135 92.8034 94.9582 92.8406 94.8973 92.866C94.8363 92.8914 94.771 92.9044 94.705 92.9044C94.639 92.9044 94.5736 92.8914 94.5127 92.866C94.4518 92.8406 94.3965 92.8034 94.35 92.7565C94.2584 92.6631 94.2071 92.5374 94.2071 92.4065C94.2071 92.2757 94.2584 92.15 94.35 92.0565L96.08 90.0565C95.6288 90.4261 95.1982 90.82 94.79 91.2365C94.22 91.9765 93.62 92.6565 93.23 93.0865C93.137 93.1752 93.0135 93.2246 92.885 93.2246C92.7565 93.2246 92.633 93.1752 92.54 93.0865C92.4431 93.0047 92.3802 92.8897 92.3636 92.7639C92.347 92.6382 92.3778 92.5108 92.45 92.4065C92.9254 91.7596 93.4432 91.1449 94 90.5665C94.7015 89.8361 95.2101 88.9426 95.48 87.9665C95.0245 88.203 94.6094 88.5102 94.25 88.8765C93.5004 89.5493 92.7893 90.2638 92.12 91.0165L91.35 91.9265C91.3085 91.9772 91.2573 92.0191 91.1993 92.0496C91.1414 92.0802 91.0779 92.0988 91.0127 92.1044C90.9474 92.11 90.8817 92.1024 90.8194 92.0822C90.7571 92.0619 90.6995 92.0294 90.65 91.9865C90.5485 91.9026 90.4842 91.782 90.4711 91.6509C90.458 91.5199 90.4971 91.3889 90.58 91.2865C90.84 90.9765 91.1 90.6565 91.37 90.3565L93.69 87.6365C93.8385 87.487 93.9513 87.3058 94.02 87.1065C94.0376 87.0581 94.0376 87.005 94.02 86.9565C94.02 86.9565 93.96 86.9565 93.76 87.1465C91.76 88.7165 89.84 90.4665 88.23 91.9765C88.1432 92.0552 88.0314 92.1009 87.9144 92.1057C87.7973 92.1104 87.6822 92.0738 87.5893 92.0024C87.4964 91.9309 87.4316 91.8291 87.4061 91.7147C87.3807 91.6003 87.3962 91.4806 87.45 91.3765C87.87 90.6165 88.6 87.8565 88.13 87.3165C88.05 87.2265 87.76 87.3165 87.68 87.3165C87.373 87.5002 87.137 87.7821 87.01 88.1165C86.4597 89.1584 85.9916 90.2417 85.61 91.3565C85.5212 91.7075 85.3831 92.0442 85.2 92.3565C85.0022 92.6465 84.763 92.906 84.49 93.1265C82.6079 94.738 80.6274 96.2309 78.56 97.5965L78.01 97.9765C77.22 98.5265 76.45 99.1165 75.7 99.6865C74.2175 100.885 72.6312 101.949 70.96 102.867C66.39 105.217 55.33 97.9165 54.87 97.5965C54.8147 97.5611 54.767 97.515 54.7299 97.4608C54.6927 97.4066 54.6669 97.3456 54.6538 97.2812C54.6408 97.2168 54.6408 97.1505 54.6539 97.0861C54.6669 97.0218 54.6928 96.9607 54.73 96.9065C54.8033 96.7969 54.9169 96.7207 55.0462 96.6945C55.1754 96.6683 55.3098 96.6942 55.42 96.7665C58.48 98.7665 67.14 103.707 70.51 101.977C72.1298 101.087 73.666 100.052 75.1 98.8865C75.85 98.3065 76.63 97.7165 77.44 97.1565L77.99 96.7765C80.0224 95.4318 81.9695 93.9624 83.82 92.3765C84.0252 92.2159 84.2069 92.0274 84.36 91.8165C84.4817 91.6014 84.579 91.3733 84.65 91.1365C85.0481 89.956 85.5397 88.809 86.12 87.7065C86.3527 87.1516 86.7792 86.7003 87.32 86.4365C87.5679 86.2935 87.8569 86.2383 88.14 86.2801C88.4232 86.3218 88.6839 86.458 88.88 86.6665C89.45 87.3165 89.3 88.7165 89 89.9065C90.28 88.7365 91.68 87.5065 93.15 86.3665C93.2983 86.2215 93.4792 86.114 93.6775 86.0531C93.8758 85.9922 94.0858 85.9797 94.29 86.0165C94.5253 86.0887 94.729 86.239 94.8672 86.4427C95.0054 86.6464 95.0699 86.8912 95.05 87.1365C95.2235 87.0542 95.4157 87.0191 95.6071 87.0349C95.7985 87.0507 95.9823 87.1168 96.14 87.2265C96.245 87.3031 96.3318 87.402 96.394 87.5161C96.4563 87.6303 96.4925 87.7568 96.5 87.8865C96.5144 88.1357 96.4734 88.385 96.38 88.6165C96.6186 88.51 96.8791 88.462 97.14 88.4765C97.2614 88.4859 97.3751 88.5392 97.46 88.6265C97.5512 88.7147 97.6205 88.8231 97.6622 88.9429C97.7039 89.0628 97.7168 89.1908 97.7 89.3165C97.9747 89.2063 98.2593 89.1226 98.55 89.0665C98.6725 89.0469 98.798 89.0726 98.903 89.1389C99.0079 89.2052 99.0851 89.3074 99.12 89.4265C99.1595 89.6417 99.1445 89.8633 99.0764 90.0711C99.0083 90.279 98.8892 90.4665 98.73 90.6165C95.89 93.9365 92.51 97.8365 88.99 101.557L88.22 102.377C84.01 106.857 79.22 111.937 73.12 113.727C71.7439 114.16 70.3125 114.392 68.87 114.417Z" fill="#093269"/>
<path d="M51.11 126.077L62.13 211.487L50.3 211.177L35.59 150.807L25.11 211.327L11.83 210.387L19.29 122.047L51.11 126.077Z" fill="#093269"/>
<path d="M31.82 93.8366C32.15 86.7066 30.71 72.2466 30.71 72.2466C30.71 72.2466 39.79 72.7666 42.85 68.3966C46.59 71.3266 47.36 79.5866 46.68 82.0566C45.32 86.9266 38.99 85.8566 38.99 85.8566L39.8 94.7766L31.82 93.8366Z" fill="white"/>
<path d="M39.82 95.2766H39.76L31.76 94.3266C31.6345 94.3116 31.5194 94.2496 31.4378 94.1531C31.3561 94.0567 31.3141 93.9328 31.32 93.8066C31.65 86.8066 30.23 72.4366 30.21 72.2966C30.2046 72.2239 30.2142 72.1508 30.2383 72.082C30.2624 72.0132 30.3004 71.9501 30.35 71.8966C30.4011 71.846 30.4621 71.8065 30.5293 71.7807C30.5964 71.7549 30.6682 71.7433 30.74 71.7466C30.83 71.7466 39.58 72.1966 42.44 68.1166C42.4783 68.0592 42.5284 68.0108 42.5871 67.9746C42.6458 67.9383 42.7116 67.9151 42.78 67.9066C42.9149 67.889 43.0513 67.9249 43.16 68.0066C47.08 71.0766 47.88 79.5766 47.16 82.1866C45.97 86.4766 41.27 86.5466 39.54 86.4166L40.3 94.7266C40.3056 94.8017 40.295 94.8771 40.2692 94.9478C40.2433 95.0185 40.2027 95.0828 40.15 95.1366C40.0611 95.2225 39.9435 95.2723 39.82 95.2766ZM32.36 93.3966L39.27 94.2066L38.51 85.9066C38.5044 85.8307 38.5158 85.7544 38.5435 85.6835C38.5712 85.6125 38.6144 85.5487 38.67 85.4966C38.7241 85.4424 38.7907 85.4021 38.8639 85.3795C38.9371 85.3568 39.0147 85.3524 39.09 85.3666C39.33 85.3666 45 86.2966 46.21 81.9266C46.79 79.8366 46.21 72.2266 42.94 69.1266C39.94 72.6366 33.3 72.7966 31.28 72.7666C31.53 75.4466 32.57 87.0466 32.35 93.3966H32.36Z" fill="#093269"/>
<path d="M39 85.8566C37.5728 85.6852 36.2202 85.1248 35.09 84.2366C35.09 84.2366 36.81 88.5566 39.48 89.2366L39 85.8566Z" fill="#093269"/>
<path d="M39.48 89.6565H39.37C36.51 88.9665 34.74 84.5965 34.66 84.4165C34.6205 84.3183 34.6169 84.2093 34.6499 84.1088C34.6828 84.0082 34.7501 83.9224 34.84 83.8665C34.9265 83.8068 35.0315 83.78 35.1361 83.791C35.2407 83.802 35.3378 83.8501 35.41 83.9265C36.4705 84.7424 37.7315 85.2571 39.06 85.4165C39.1591 85.4291 39.2511 85.4742 39.3217 85.5448C39.3924 85.6154 39.4375 85.7075 39.45 85.8065L39.93 89.1465C39.9404 89.2195 39.9332 89.294 39.9088 89.3636C39.8844 89.4332 39.8437 89.496 39.79 89.5465C39.7033 89.6193 39.5932 89.6584 39.48 89.6565ZM36.25 85.5465C36.8573 86.7662 37.779 87.8018 38.92 88.5465L38.6 86.2965C37.7899 86.1397 37.0011 85.888 36.25 85.5465Z" fill="#093269"/>
<path d="M45.82 90.1665L66.56 101.537L61.56 116.047C61.56 116.047 35.5 102.247 35.32 98.5165C35.14 94.7865 45.82 90.1665 45.82 90.1665Z" fill="#1264D1"/>
<path d="M52.44 133.967C52.44 133.967 53.29 115.237 51.44 103.967C50.65 99.1665 50.96 95.7965 49.37 93.1965C44.03 84.4765 23.23 87.0765 20.21 93.1265C17.19 99.1765 14.82 134.147 14.82 134.147L52.44 133.967Z" fill="#1264D1"/>
<path d="M32.2 77.3166C32.0861 76.7561 31.8194 76.2381 31.4293 75.8198C31.0393 75.4015 30.5411 75.0993 29.99 74.9466C29.743 74.8651 29.4814 74.8372 29.2228 74.8648C28.9641 74.8924 28.7143 74.9748 28.49 75.1066C28.23 75.3301 28.0317 75.6167 27.9144 75.939C27.7971 76.2612 27.7646 76.6082 27.82 76.9466C27.9059 78.0282 28.3949 79.0382 29.19 79.7766C29.9913 80.5036 31.0382 80.9002 32.12 80.8866" fill="white"/>
<path d="M32.05 81.3866C30.8496 81.3897 29.6928 80.9372 28.813 80.1206C27.9333 79.3039 27.3961 78.1839 27.31 76.9866C27.2468 76.5595 27.2966 76.1233 27.4546 75.7215C27.6125 75.3197 27.8729 74.9663 28.21 74.6966C28.4919 74.5203 28.8087 74.4076 29.1386 74.3661C29.4684 74.3247 29.8033 74.3556 30.12 74.4566C30.7601 74.6371 31.3383 74.9899 31.7915 75.4766C32.2448 75.9634 32.5556 76.5652 32.69 77.2166C32.7031 77.2809 32.7035 77.3472 32.691 77.4117C32.6785 77.4762 32.6534 77.5376 32.6172 77.5924C32.581 77.6472 32.5343 77.6943 32.4799 77.731C32.4255 77.7678 32.3644 77.7935 32.3 77.8066C32.1689 77.8302 32.0338 77.8015 31.9235 77.7268C31.8133 77.652 31.7366 77.5371 31.71 77.4066C31.6126 76.9365 31.3889 76.5019 31.0629 76.1495C30.7369 75.7971 30.3211 75.5402 29.86 75.4066C29.6835 75.3438 29.4955 75.3203 29.309 75.3376C29.1225 75.3548 28.942 75.4125 28.78 75.5066C28.5978 75.6849 28.4603 75.9038 28.3786 76.1453C28.2969 76.3868 28.2734 76.6442 28.31 76.8966C28.3849 77.8495 28.8171 78.7388 29.52 79.3866C30.2258 80.0289 31.1456 80.3854 32.1 80.3866C32.2318 80.3891 32.3575 80.4426 32.4507 80.5359C32.5439 80.6291 32.5974 80.7548 32.6 80.8866C32.6 81.0192 32.5473 81.1464 32.4535 81.2401C32.3598 81.3339 32.2326 81.3866 32.1 81.3866H32.05Z" fill="#093269"/>
<path d="M43.393 73.8235C43.625 73.7511 43.705 73.3462 43.5718 72.9192C43.4385 72.4921 43.1425 72.2046 42.9105 72.277C42.6785 72.3494 42.5985 72.7543 42.7317 73.1813C42.865 73.6084 43.1611 73.8959 43.393 73.8235Z" fill="#093269"/>
<path d="M50.3 211.177C50.3 211.177 49.97 216.337 50.64 217.177C51.31 218.017 67.92 219.047 67.09 217.047C66.26 215.047 61.09 210.817 61.09 210.817" fill="white"/>
<path d="M61.02 218.707C56.36 218.707 50.77 218.137 50.25 217.477C49.52 216.567 49.72 212.407 49.8 211.147C49.8127 211.014 49.8758 210.891 49.9762 210.804C50.0767 210.716 50.2069 210.671 50.34 210.677C50.4057 210.682 50.4698 210.7 50.5286 210.73C50.5873 210.759 50.6396 210.801 50.6823 210.851C50.7251 210.901 50.7575 210.959 50.7777 211.022C50.7979 211.085 50.8055 211.151 50.8 211.217C50.65 213.607 50.7 216.447 51.03 216.857C53.6189 217.37 56.2508 217.634 58.89 217.647C63.78 217.817 66.1 217.457 66.58 217.137C65.83 215.557 62.19 212.337 60.82 211.207C60.7683 211.165 60.7254 211.113 60.6938 211.055C60.6622 210.997 60.6426 210.932 60.6361 210.866C60.6296 210.8 60.6363 210.733 60.6558 210.67C60.6754 210.607 60.7074 210.548 60.75 210.497C60.8339 210.395 60.9545 210.331 61.0856 210.318C61.2167 210.305 61.3476 210.344 61.45 210.427C61.67 210.607 66.68 214.767 67.55 216.857C67.6347 217.069 67.6341 217.306 67.5484 217.519C67.4628 217.731 67.2986 217.902 67.09 217.997C66.23 218.507 63.82 218.707 61.02 218.707Z" fill="#093269"/>
<path d="M45.13 73.2666C45.13 73.2666 48.78 77.4266 47.88 78.3266C46.98 79.2266 44.88 78.7766 44.88 78.7766" fill="white"/>
<path d="M46.04 79.3866C45.6139 79.3853 45.1888 79.3451 44.77 79.2666C44.7055 79.2524 44.6445 79.2256 44.5904 79.1877C44.5363 79.1498 44.4903 79.1015 44.455 79.0457C44.4196 78.99 44.3957 78.9277 44.3846 78.8626C44.3734 78.7976 44.3753 78.7309 44.39 78.6666C44.403 78.6025 44.4287 78.5416 44.4656 78.4876C44.5025 78.4336 44.5499 78.3876 44.6049 78.3521C44.6599 78.3167 44.7214 78.2927 44.7858 78.2814C44.8502 78.2702 44.9163 78.2719 44.98 78.2866C45.46 78.3866 46.98 78.5466 47.53 77.9766C47.7 77.5466 46.38 75.4566 44.76 73.5966C44.7122 73.5517 44.6741 73.4974 44.648 73.4372C44.6219 73.3771 44.6085 73.3121 44.6085 73.2466C44.6085 73.181 44.6219 73.1161 44.648 73.0559C44.6741 72.9957 44.7122 72.9414 44.76 72.8966C44.8065 72.8497 44.8618 72.8125 44.9227 72.7871C44.9837 72.7617 45.049 72.7487 45.115 72.7487C45.181 72.7487 45.2464 72.7617 45.3073 72.7871C45.3682 72.8125 45.4235 72.8497 45.47 72.8966C46.95 74.5866 49.27 77.5666 48.2 78.6366C47.6014 79.1518 46.8291 79.4199 46.04 79.3866Z" fill="#093269"/>
<path d="M61.57 116.547C61.4894 116.547 61.4101 116.526 61.34 116.487C61.19 116.417 46.85 108.757 41.63 105.917C41.5711 105.886 41.519 105.844 41.4768 105.793C41.4346 105.742 41.4032 105.683 41.3845 105.619C41.3658 105.556 41.3602 105.489 41.368 105.423C41.3759 105.358 41.3969 105.294 41.43 105.237C41.4604 105.179 41.502 105.128 41.5523 105.087C41.6026 105.046 41.6607 105.015 41.723 104.996C41.7854 104.977 41.8509 104.971 41.9156 104.978C41.9803 104.985 42.043 105.005 42.1 105.037C47.33 107.877 61.66 115.527 61.81 115.607C61.8679 115.638 61.919 115.681 61.9604 115.732C62.0018 115.783 62.0327 115.842 62.0513 115.905C62.0699 115.968 62.0758 116.034 62.0687 116.1C62.0616 116.165 62.0417 116.229 62.01 116.287C61.9677 116.366 61.9042 116.433 61.8266 116.479C61.7489 116.524 61.6602 116.548 61.57 116.547Z" fill="#093269"/>
<path d="M35.59 151.307C35.5291 151.308 35.4686 151.297 35.412 151.275C35.3553 151.252 35.3037 151.219 35.26 151.177C35.17 151.097 33.07 149.117 30.9 141.817C30.8652 141.688 30.8811 141.551 30.9443 141.434C31.0076 141.317 31.1134 141.228 31.24 141.187C31.3673 141.152 31.5029 141.168 31.6185 141.232C31.7341 141.295 31.8206 141.401 31.86 141.527C33.93 148.527 35.86 150.427 35.93 150.437C35.9769 150.483 36.0141 150.538 36.0394 150.599C36.0648 150.66 36.0779 150.726 36.0779 150.792C36.0779 150.858 36.0648 150.923 36.0394 150.984C36.0141 151.045 35.9769 151.1 35.93 151.147C35.8866 151.194 35.8343 151.233 35.776 151.26C35.7176 151.288 35.6544 151.304 35.59 151.307Z" fill="white"/>
<path d="M153.42 123.817C153.346 123.817 153.272 123.802 153.205 123.771C153.137 123.739 153.078 123.694 153.03 123.637C152.63 123.187 113.59 78.4865 108.68 74.9865C106.79 73.6265 95.08 78.2365 70.59 96.4765C70.4794 96.5449 70.3472 96.5694 70.2195 96.5451C70.0917 96.5209 69.9777 96.4496 69.8999 96.3454C69.8221 96.2413 69.7861 96.1117 69.7991 95.9823C69.8121 95.853 69.873 95.7332 69.97 95.6465C70.06 95.5865 78.51 89.2965 87.47 83.5365C105.86 71.6965 108.47 73.5365 109.28 74.1465C114.28 77.7165 152.19 121.147 153.8 122.957C153.896 123.054 153.95 123.185 153.95 123.322C153.95 123.458 153.896 123.589 153.8 123.687C153.694 123.776 153.559 123.823 153.42 123.817Z" fill="#D5E6FB"/>
<path d="M181.73 116.287C181.64 116.287 181.551 116.264 181.473 116.22C181.394 116.176 181.328 116.113 181.28 116.037C173.13 102.617 163.71 88.5866 162.05 88.3366C160.37 88.5766 146.61 99.6066 138.34 106.497C138.233 106.572 138.101 106.605 137.971 106.587C137.841 106.57 137.722 106.504 137.639 106.403C137.555 106.302 137.513 106.173 137.521 106.042C137.528 105.911 137.585 105.787 137.68 105.697C139.89 103.857 159.36 87.6966 161.94 87.3066C162.79 87.1666 166.48 89.6966 182.17 115.507C182.24 115.625 182.26 115.766 182.226 115.899C182.192 116.032 182.108 116.146 181.99 116.217C181.912 116.264 181.822 116.289 181.73 116.287Z" fill="#D5E6FB"/>
<path d="M141.05 87.6165C140.203 87.6165 139.375 87.3652 138.671 86.8945C137.967 86.4238 137.418 85.7547 137.095 84.9721C136.771 84.1894 136.687 83.3284 136.853 82.4978C137.019 81.6673 137.428 80.9047 138.027 80.3066C138.627 79.7084 139.39 79.3016 140.221 79.1375C141.052 78.9735 141.913 79.0597 142.695 79.3852C143.477 79.7107 144.144 80.2608 144.614 80.966C145.083 81.6711 145.332 82.4996 145.33 83.3465C145.327 84.4799 144.875 85.566 144.073 86.3665C143.271 87.167 142.183 87.6165 141.05 87.6165ZM141.05 80.0965C140.407 80.0965 139.779 80.2871 139.244 80.6442C138.71 81.0014 138.293 81.5089 138.047 82.1028C137.801 82.6967 137.737 83.3501 137.862 83.9806C137.988 84.611 138.297 85.1901 138.752 85.6446C139.206 86.0991 139.786 86.4087 140.416 86.5341C141.046 86.6595 141.7 86.5951 142.294 86.3491C142.888 86.1031 143.395 85.6866 143.752 85.1521C144.109 84.6177 144.3 83.9893 144.3 83.3465C144.3 82.4846 143.958 81.6579 143.348 81.0484C142.739 80.4389 141.912 80.0965 141.05 80.0965Z" fill="#D5E6FB"/>
<path d="M39.62 79.9365C39.8406 80.4854 40.2085 80.9626 40.6832 81.3155C41.1579 81.6685 41.7209 81.8834 42.31 81.9365C42.8925 81.9721 43.4757 81.8775 44.0171 81.6595C44.5585 81.4416 45.0446 81.1058 45.44 80.6765" fill="white"/>
<path d="M42.6 82.3965H42.26C41.5843 82.3409 40.9369 82.1007 40.3884 81.7022C39.84 81.3036 39.4116 80.762 39.15 80.1365C39.1023 80.0119 39.106 79.8734 39.1604 79.7515C39.2148 79.6296 39.3153 79.5343 39.44 79.4865C39.5646 79.4388 39.7031 79.4425 39.825 79.4969C39.9469 79.5513 40.0422 79.6519 40.09 79.7765C40.281 80.2293 40.5929 80.6209 40.9915 80.9084C41.3901 81.1958 41.86 81.3682 42.35 81.4065C42.8578 81.4345 43.3656 81.3504 43.8374 81.1603C44.3092 80.9702 44.7334 80.6788 45.08 80.3065C45.1265 80.2597 45.1818 80.2225 45.2427 80.1971C45.3036 80.1717 45.369 80.1586 45.435 80.1586C45.501 80.1586 45.5663 80.1717 45.6273 80.1971C45.6882 80.2225 45.7435 80.2597 45.79 80.3065C45.8366 80.3522 45.8735 80.4066 45.8988 80.4667C45.9241 80.5268 45.9371 80.5913 45.9371 80.6565C45.9371 80.7217 45.9241 80.7863 45.8988 80.8464C45.8735 80.9065 45.8366 80.9609 45.79 81.0065C45.3779 81.4393 44.8833 81.7852 44.3355 82.0239C43.7876 82.2626 43.1975 82.3893 42.6 82.3965Z" fill="#093269"/>
<path d="M28.22 85.3166C26.2085 85.3172 24.225 84.8444 22.43 83.9366C21.5374 83.5405 20.7873 82.881 20.28 82.0466C20.0058 81.5392 19.8974 80.9587 19.97 80.3866C19.1641 80.5038 18.3417 80.3638 17.62 79.9866C16.5737 79.3988 15.6771 78.5775 15 77.5866C14.7579 77.3094 14.6231 76.9546 14.62 76.5866C14.6602 76.2331 14.8272 75.9063 15.09 75.6666L15.76 74.9366C16.9933 73.695 18.0712 72.3081 18.97 70.8066C19.5133 69.7241 19.9616 68.5965 20.31 67.4366C20.6 66.5666 20.9 65.6666 21.31 64.8066C24.01 58.7066 29 57.7166 33.54 57.5466C36.4 57.4466 40.21 58.3466 41.94 61.1966C42.053 61.1124 42.1777 61.045 42.31 60.9966C42.8529 60.7961 43.4529 60.8177 43.98 61.0566C44.7264 61.4785 45.3238 62.1213 45.69 62.8966C47.3783 65.9452 48.1362 69.4218 47.87 72.8966C47.8663 72.9628 47.8492 73.0276 47.8197 73.087C47.7902 73.1464 47.749 73.1992 47.6985 73.2422C47.648 73.2852 47.5893 73.3175 47.526 73.3372C47.4626 73.3568 47.396 73.3634 47.33 73.3566C47.1991 73.3463 47.0775 73.285 46.9914 73.1858C46.9053 73.0867 46.8617 72.9576 46.87 72.8266C47.1159 69.5605 46.4034 66.2937 44.82 63.4266C44.5371 62.8451 44.0836 62.3637 43.52 62.0466C43.2378 61.9321 42.9222 61.9321 42.64 62.0466C42.557 62.0747 42.4806 62.1193 42.4153 62.1777C42.35 62.2362 42.2971 62.3072 42.26 62.3866C42.2217 62.4745 42.1588 62.5495 42.0791 62.6027C41.9993 62.6559 41.9059 62.685 41.81 62.6866C41.713 62.6845 41.6185 62.6553 41.5372 62.6022C41.4559 62.5492 41.391 62.4745 41.35 62.3866C40.05 59.4766 36.35 58.5466 33.55 58.6666C27.49 58.8866 24.2 60.8166 22.21 65.3266C21.854 66.1568 21.5403 67.0046 21.27 67.8666C20.8872 69.0595 20.402 70.2171 19.82 71.3266C18.8855 72.9017 17.7566 74.3531 16.46 75.6466L15.8 76.3766C15.7085 76.4619 15.6339 76.5637 15.58 76.6766C15.6288 76.8175 15.7112 76.9445 15.82 77.0466C16.4018 77.9164 17.1748 78.6415 18.08 79.1666C18.4908 79.3929 18.9542 79.5065 19.4231 79.4959C19.892 79.4854 20.3498 79.3511 20.75 79.1066C20.8553 79.0351 20.9839 79.0066 21.1096 79.0267C21.2353 79.0468 21.3486 79.1141 21.4264 79.2148C21.5041 79.3156 21.5406 79.4422 21.5282 79.5688C21.5159 79.6955 21.4557 79.8127 21.36 79.8966C21.1416 80.1254 21.0046 80.4199 20.9703 80.7344C20.9359 81.0489 21.0061 81.3659 21.17 81.6366C21.5985 82.2597 22.1949 82.7486 22.89 83.0466C24.7442 83.9867 26.8146 84.418 28.89 84.2966C28.956 84.2911 29.0224 84.2991 29.0852 84.32C29.148 84.3409 29.2059 84.3744 29.2555 84.4183C29.305 84.4622 29.3451 84.5157 29.3734 84.5756C29.4017 84.6354 29.4175 84.7004 29.42 84.7666C29.4241 84.8323 29.4151 84.8981 29.3937 84.9603C29.3722 85.0225 29.3387 85.0799 29.295 85.1292C29.2514 85.1784 29.1984 85.2185 29.1392 85.2473C29.08 85.276 29.0157 85.2927 28.95 85.2966L28.22 85.3166Z" fill="#093269"/>
<path d="M144.19 94.9866H316C323.47 94.9866 327.44 100.177 324.85 106.577L286.21 202.187C283.63 208.587 275.47 213.777 268 213.777H96.18C88.71 213.777 84.75 208.587 87.34 202.187L125.97 106.577C128.56 100.177 136.71 94.9866 144.19 94.9866Z" fill="white"/>
<path d="M268 214.297H96.18C92.25 214.297 89.02 212.857 87.32 210.297C85.82 208.047 85.61 205.047 86.82 202.047L125.45 106.437C128.11 99.8666 136.45 94.5266 144.15 94.5266H316C319.94 94.5266 323.17 95.9666 324.86 98.4766C326.41 100.767 326.58 103.737 325.33 106.827L286.69 202.427C284.04 208.947 275.65 214.297 268 214.297ZM144.19 95.5066C136.92 95.5066 128.96 100.507 126.45 106.777L87.82 202.377C86.71 205.137 86.82 207.767 88.19 209.767C89.69 211.987 92.6 213.267 96.19 213.267H268C275.27 213.267 283.22 208.207 285.74 201.997L324.37 106.387C325.49 103.627 325.37 101.007 324.01 99.0066C322.51 96.7766 319.59 95.5066 316.01 95.5066H144.19Z" fill="#093269"/>
<path d="M257.51 36.5266H228.51C228.442 36.528 228.375 36.5157 228.312 36.4907C228.249 36.4657 228.191 36.4283 228.143 36.3808C228.094 36.3333 228.056 36.2767 228.03 36.2141C228.003 36.1516 227.99 36.0844 227.99 36.0166V7.04662C227.968 6.96923 227.964 6.88777 227.979 6.80864C227.994 6.72952 228.026 6.65489 228.075 6.59064C228.123 6.52638 228.186 6.47426 228.258 6.43837C228.33 6.40247 228.41 6.38379 228.49 6.38379C228.57 6.38379 228.65 6.40247 228.722 6.43837C228.794 6.47426 228.857 6.52638 228.905 6.59064C228.954 6.65489 228.986 6.72952 229.001 6.80864C229.016 6.88777 229.012 6.96923 228.99 7.04662V35.4966H257.5C257.577 35.4745 257.659 35.4707 257.738 35.4854C257.817 35.5001 257.892 35.533 257.956 35.5815C258.02 35.63 258.072 35.6927 258.108 35.7647C258.144 35.8368 258.163 35.9161 258.163 35.9966C258.163 36.0771 258.144 36.1565 258.108 36.2285C258.072 36.3006 258.02 36.3633 257.956 36.4118C257.892 36.4602 257.817 36.4931 257.738 36.5078C257.659 36.5226 257.577 36.5187 257.5 36.4966L257.51 36.5266Z" fill="#093269"/>
<path d="M155.48 26.0466C154.687 26.0241 153.916 25.7848 153.249 25.3546C152.583 24.9244 152.047 24.3199 151.7 23.6066C150.53 21.3566 147.28 9.60657 146.7 4.92657C146.521 3.87659 146.76 2.79824 147.365 1.9219C147.971 1.04556 148.895 0.440706 149.94 0.236563C152.21 -0.393437 155.32 0.236566 156.15 2.10657C156.83 3.64657 158.03 6.54656 158.03 6.54656L157.08 6.94657C157.08 6.94657 155.82 4.04657 155.18 2.51657C154.65 1.29657 152.18 0.666565 150.18 1.22656C149.376 1.37047 148.662 1.82678 148.193 2.49574C147.725 3.1647 147.54 3.99191 147.68 4.79656C148.32 9.79656 151.56 21.1266 152.6 23.1266C152.894 23.7651 153.39 24.2887 154.012 24.616C154.635 24.9433 155.347 25.056 156.04 24.9366C156.548 24.7713 156.979 24.4285 157.254 23.9712C157.53 23.5139 157.631 22.9726 157.54 22.4466C157.41 18.6666 152.31 4.84656 152.26 4.70656C152.236 4.64293 152.225 4.5752 152.228 4.50733C152.231 4.43946 152.247 4.37283 152.276 4.31135C152.305 4.24988 152.346 4.19478 152.396 4.14931C152.447 4.10384 152.506 4.06891 152.57 4.04656C152.697 4.00082 152.838 4.00656 152.961 4.06258C153.084 4.1186 153.181 4.22048 153.23 4.34656C153.44 4.92656 158.43 18.4666 158.57 22.4066C158.676 23.1692 158.506 23.9446 158.089 24.5922C157.673 25.2398 157.038 25.7168 156.3 25.9366C156.032 26.0071 155.757 26.044 155.48 26.0466Z" fill="#093269"/>
<path d="M296.13 126.586H237.28C236.667 126.625 236.054 126.507 235.499 126.243C234.944 125.979 234.466 125.577 234.11 125.077C233.764 124.471 233.572 123.789 233.551 123.091C233.53 122.394 233.681 121.702 233.99 121.077L235.99 116.247C236.636 114.806 237.659 113.566 238.951 112.658C240.243 111.75 241.756 111.207 243.33 111.086H302.19C302.803 111.052 303.414 111.173 303.968 111.437C304.522 111.7 305.001 112.099 305.36 112.597C305.706 113.202 305.898 113.884 305.919 114.582C305.94 115.279 305.789 115.971 305.48 116.597L303.48 121.437C302.832 122.877 301.807 124.116 300.514 125.023C299.22 125.929 297.705 126.47 296.13 126.586ZM243.35 112.047C241.977 112.158 240.66 112.636 239.536 113.431C238.412 114.227 237.522 115.309 236.96 116.567L234.96 121.407C234.709 121.879 234.577 122.406 234.577 122.942C234.577 123.477 234.709 124.004 234.96 124.476C235.234 124.822 235.589 125.094 235.994 125.268C236.399 125.443 236.841 125.514 237.28 125.476H296.13C297.494 125.376 298.805 124.912 299.929 124.133C301.053 123.354 301.947 122.288 302.52 121.047L304.52 116.217C304.772 115.742 304.904 115.214 304.904 114.677C304.904 114.139 304.772 113.611 304.52 113.137C304.254 112.782 303.903 112.499 303.499 112.316C303.096 112.132 302.652 112.053 302.21 112.086L243.35 112.047Z" fill="#D5E6FB"/>
</svg>
