<svg width="375" height="300" viewBox="0 0 375 300" fill="none" xmlns="http://www.w3.org/2000/svg">
<path d="M248.2 67.2801C248.2 83.8101 220.8 97.2201 187 97.2201C153.2 97.2201 125.8 83.8101 125.8 67.2801C125.8 50.7501 153.2 31.0701 187 31.0701C220.8 31.0701 248.2 50.7401 248.2 67.2801Z" fill="#1264D1"/>
<path d="M187 97.72C153 97.72 125.3 84.0601 125.3 67.28C125.3 58.96 132.09 49.72 143.46 42.55C155.71 34.83 171.17 30.55 187 30.55C202.83 30.55 218.29 34.81 230.54 42.55C241.91 49.72 248.7 59 248.7 67.28C248.7 84.0601 221 97.72 187 97.72ZM187 31.57C153.38 31.57 126.3 51.1 126.3 67.28C126.3 83.46 153.53 96.72 187 96.72C220.47 96.72 247.7 83.51 247.7 67.28C247.7 51.05 220.62 31.57 187 31.57Z" fill="#093269"/>
<path d="M187 107.48C260.631 107.48 320.32 94.3531 320.32 78.1601C320.32 61.9671 260.631 48.8401 187 48.8401C113.369 48.8401 53.68 61.9671 53.68 78.1601C53.68 94.3531 113.369 107.48 187 107.48Z" fill="white"/>
<path d="M187 108C151.35 108 117.83 104.94 92.62 99.4001C67.18 93.7901 53.17 86.2501 53.17 78.1601C53.17 70.0701 67.17 62.5401 92.62 56.9501C117.83 51.4001 151.35 48.3501 187 48.3501C222.65 48.3501 256.17 51.3501 281.38 56.9501C306.82 62.5401 320.83 70.0701 320.83 78.1601C320.83 86.2501 306.83 93.7901 281.38 99.3801C256.17 104.92 222.65 108 187 108ZM187 49.3701C113.76 49.3701 54.17 62.3001 54.17 78.1801C54.17 94.0601 113.76 107 187 107C260.24 107 319.83 94.0501 319.83 78.1601C319.83 62.2701 260.24 49.3501 187 49.3501V49.3701Z" fill="#093269"/>
<path d="M187 107.48C260.631 107.48 320.32 95.535 320.32 80.8C320.32 66.065 260.631 54.12 187 54.12C113.369 54.12 53.68 66.065 53.68 80.8C53.68 95.535 113.369 107.48 187 107.48Z" fill="white"/>
<path d="M187 108C112 108 53.17 96 53.17 80.8C53.17 65.6 112 53.62 187 53.62C262 53.62 320.83 65.56 320.83 80.8C320.83 96.04 262 108 187 108ZM187 54.64C151.42 54.64 118 57.42 92.82 62.45C68.26 67.34 54.17 74 54.17 80.8C54.17 87.6 68.26 94.26 92.82 99.17C117.97 104.17 151.42 106.98 187 106.98C222.58 106.98 256 104.21 281.18 99.17C305.74 94.26 319.83 87.56 319.83 80.8C319.83 74.04 305.74 67.34 281.18 62.43C256 57.4 222.58 54.62 187 54.62V54.64Z" fill="#093269"/>
<path d="M157.67 103.14L100.18 263.08H273.82L216.33 103.14H157.67Z" fill="#1264D1"/>
<path d="M187 107.48C203.198 107.48 216.33 105.537 216.33 103.14C216.33 100.743 203.198 98.8 187 98.8C170.801 98.8 157.67 100.743 157.67 103.14C157.67 105.537 170.801 107.48 187 107.48Z" fill="#093269"/>
<path d="M187 108C175 108 157.16 106.71 157.16 103.15C157.16 99.59 175 98.28 187 98.28C199 98.28 216.84 99.57 216.84 103.14C216.84 106.71 199 108 187 108ZM187 99.32C169.41 99.32 158.19 101.59 158.19 103.15C158.19 104.71 169.41 107 187 107C204.59 107 215.81 104.74 215.81 103.18C215.81 101.62 204.59 99.31 187 99.31V99.32Z" fill="#093269"/>
<path d="M187 80.8001C188.817 80.8001 190.29 80.021 190.29 79.0601C190.29 78.0991 188.817 77.3201 187 77.3201C185.183 77.3201 183.71 78.0991 183.71 79.0601C183.71 80.021 185.183 80.8001 187 80.8001Z" fill="#D5E6FB"/>
<path d="M143.17 82.5401C144.987 82.5401 146.46 81.761 146.46 80.8001C146.46 79.8391 144.987 79.0601 143.17 79.0601C141.353 79.0601 139.88 79.8391 139.88 80.8001C139.88 81.761 141.353 82.5401 143.17 82.5401Z" fill="#D5E6FB"/>
<path d="M230.83 82.5401C232.647 82.5401 234.12 81.761 234.12 80.8001C234.12 79.8391 232.647 79.0601 230.83 79.0601C229.013 79.0601 227.54 79.8391 227.54 80.8001C227.54 81.761 229.013 82.5401 230.83 82.5401Z" fill="#D5E6FB"/>
<path d="M92.97 88.6601C94.787 88.6601 96.26 87.881 96.26 86.9201C96.26 85.9591 94.787 85.1801 92.97 85.1801C91.153 85.1801 89.68 85.9591 89.68 86.9201C89.68 87.881 91.153 88.6601 92.97 88.6601Z" fill="#D5E6FB"/>
<path d="M281.03 87.5C282.847 87.5 284.32 86.721 284.32 85.76C284.32 84.799 282.847 84.02 281.03 84.02C279.213 84.02 277.74 84.799 277.74 85.76C277.74 86.721 279.213 87.5 281.03 87.5Z" fill="#D5E6FB"/>
<path d="M264.13 101.18C265.947 101.18 267.42 100.401 267.42 99.4401C267.42 98.4791 265.947 97.7001 264.13 97.7001C262.313 97.7001 260.84 98.4791 260.84 99.4401C260.84 100.401 262.313 101.18 264.13 101.18Z" fill="#D5E6FB"/>
<path d="M113.18 101.18C114.997 101.18 116.47 100.401 116.47 99.4401C116.47 98.4791 114.997 97.7001 113.18 97.7001C111.363 97.7001 109.89 98.4791 109.89 99.4401C109.89 100.401 111.363 101.18 113.18 101.18Z" fill="#D5E6FB"/>
<path d="M172.61 166.49C172.525 166.491 172.441 166.469 172.368 166.427C172.294 166.385 172.232 166.324 172.19 166.25C167.499 158.648 165.76 149.589 167.3 140.79C167.311 140.724 167.335 140.662 167.371 140.605C167.406 140.549 167.452 140.5 167.507 140.461C167.561 140.423 167.622 140.395 167.687 140.381C167.752 140.366 167.819 140.364 167.885 140.375C167.951 140.386 168.013 140.41 168.07 140.446C168.126 140.481 168.175 140.527 168.214 140.582C168.252 140.636 168.28 140.697 168.294 140.762C168.309 140.827 168.311 140.894 168.3 140.96C166.785 149.51 168.457 158.32 173 165.72C173.068 165.833 173.089 165.969 173.059 166.097C173.029 166.226 172.951 166.338 172.84 166.41C172.771 166.454 172.692 166.482 172.61 166.49Z" fill="#093269"/>
<path d="M167.59 141.63C168.882 141.63 169.93 140.582 169.93 139.29C169.93 137.998 168.882 136.95 167.59 136.95C166.298 136.95 165.25 137.998 165.25 139.29C165.25 140.582 166.298 141.63 167.59 141.63Z" fill="#093269"/>
<path d="M167.59 142.14C167.026 142.14 166.475 141.973 166.007 141.66C165.538 141.347 165.173 140.901 164.957 140.381C164.741 139.86 164.685 139.287 164.795 138.734C164.905 138.181 165.176 137.673 165.575 137.275C165.973 136.876 166.481 136.605 167.034 136.495C167.587 136.385 168.16 136.441 168.681 136.657C169.201 136.873 169.647 137.238 169.96 137.707C170.273 138.175 170.44 138.726 170.44 139.29C170.437 140.045 170.136 140.768 169.602 141.302C169.068 141.836 168.345 142.137 167.59 142.14ZM167.59 137.47C167.23 137.47 166.878 137.577 166.579 137.777C166.28 137.977 166.046 138.261 165.909 138.594C165.771 138.926 165.735 139.292 165.805 139.645C165.875 139.998 166.049 140.322 166.303 140.577C166.558 140.832 166.882 141.005 167.235 141.075C167.588 141.145 167.954 141.109 168.286 140.972C168.619 140.834 168.903 140.6 169.103 140.301C169.303 140.002 169.41 139.65 169.41 139.29C169.41 138.807 169.218 138.344 168.877 138.003C168.536 137.662 168.073 137.47 167.59 137.47Z" fill="#093269"/>
<path d="M230.3 216.91C230.58 217.01 241.09 211 239.3 207.06C237.51 203.12 230.85 211.83 229.82 213.25" fill="white"/>
<path d="M230.22 217.4H230.14C230.016 217.357 229.913 217.267 229.853 217.149C229.794 217.032 229.782 216.896 229.82 216.77C229.848 216.68 229.902 216.6 229.975 216.539C230.048 216.479 230.136 216.441 230.23 216.43C230.94 216.16 237.23 212.5 238.73 209.2C238.889 208.908 238.983 208.585 239.003 208.253C239.024 207.922 238.972 207.589 238.85 207.28C238.58 206.68 238.25 206.58 238.03 206.56C236.19 206.4 232.36 210.64 230.23 213.56C230.191 213.613 230.142 213.658 230.086 213.693C230.03 213.727 229.968 213.75 229.903 213.76C229.838 213.77 229.771 213.768 229.707 213.752C229.644 213.737 229.583 213.709 229.53 213.67C229.477 213.631 229.432 213.582 229.397 213.526C229.363 213.47 229.34 213.408 229.33 213.343C229.32 213.278 229.323 213.211 229.338 213.147C229.353 213.084 229.381 213.023 229.42 212.97C230.36 211.68 235.24 205.26 238.13 205.58C238.494 205.625 238.838 205.769 239.126 205.997C239.413 206.224 239.633 206.526 239.76 206.87C240.39 208.26 239.84 209.93 238.12 211.87C235.87 214.31 231.14 217.4 230.22 217.4Z" fill="#093269"/>
<path d="M166.38 206.59C166.24 207.18 159.31 222.11 165.25 219.16C171.19 216.21 170.8 202.58 170.8 202.58" fill="#093269"/>
<path d="M163.94 220.06C163.569 220.071 163.21 219.934 162.94 219.68C161.65 218.48 162.44 214.77 165.57 207.28C165.75 206.85 165.87 206.56 165.9 206.46C165.937 206.33 166.024 206.22 166.143 206.155C166.261 206.089 166.4 206.073 166.53 206.11C166.658 206.141 166.769 206.221 166.839 206.334C166.908 206.446 166.93 206.581 166.9 206.71C166.9 206.83 166.79 207.02 166.52 207.71C162.88 216.44 163.15 218.51 163.64 218.97C163.85 219.16 164.36 219.08 165.04 218.74C170.62 215.97 170.31 202.74 170.31 202.63C170.307 202.562 170.318 202.495 170.342 202.431C170.366 202.367 170.402 202.309 170.449 202.26C170.495 202.211 170.551 202.171 170.613 202.144C170.675 202.116 170.742 202.101 170.81 202.1C170.944 202.104 171.072 202.158 171.17 202.25C171.267 202.342 171.328 202.466 171.34 202.6C171.34 203.17 171.67 216.6 165.5 219.66C165.019 219.914 164.484 220.051 163.94 220.06Z" fill="#093269"/>
<path d="M192.92 221.05C192.61 221.29 191.24 241.32 195.66 235.98C200.08 230.64 200.72 220.44 200.72 220.44" fill="#093269"/>
<path d="M194.34 237.41C194.24 237.42 194.14 237.42 194.04 237.41C193.29 237.23 192.78 236.41 192.44 234.85C191.81 231.92 191.78 221.33 192.6 220.68C192.71 220.598 192.847 220.561 192.983 220.578C193.119 220.595 193.244 220.663 193.33 220.77C193.381 220.853 193.409 220.948 193.409 221.045C193.409 221.142 193.381 221.238 193.33 221.32C192.99 222.65 192.38 235.42 194.18 236.39C194.37 236.49 194.76 236.24 195.18 235.7C199.45 230.55 200.12 220.55 200.18 220.45C200.195 220.317 200.258 220.195 200.358 220.106C200.458 220.018 200.587 219.969 200.72 219.97C200.788 219.974 200.855 219.991 200.917 220.021C200.978 220.051 201.034 220.092 201.079 220.143C201.125 220.194 201.16 220.254 201.182 220.319C201.205 220.383 201.214 220.452 201.21 220.52C201.21 220.94 200.51 230.95 196.03 236.35C195.84 236.637 195.591 236.879 195.299 237.062C195.008 237.245 194.681 237.364 194.34 237.41Z" fill="#093269"/>
<path d="M216.06 224.43C215.364 225.345 214.489 226.108 213.488 226.674C212.488 227.239 211.383 227.595 210.24 227.72C206.18 228.29 181.32 221.06 170.65 214.85C160.23 208.79 152.31 199.62 154.29 190.96C154.34 190.75 154.39 190.55 154.45 190.34C156.06 184.71 163 175.06 168.98 168.77C172.4 165.19 175.49 162.69 177.11 162.65C178.33 162.65 181.02 163.65 184.5 165.5C189.01 167.974 193.308 170.817 197.35 174C199.04 175.3 200.73 176.7 202.4 178.19C205.097 180.568 207.642 183.113 210.02 185.81C212.437 188.55 214.603 191.502 216.49 194.63C227.19 212.67 216.06 224.43 216.06 224.43Z" fill="white"/>
<path d="M177.18 162.65C178.43 162.65 181.09 163.65 184.5 165.5C189.01 167.974 193.308 170.817 197.35 174C199.04 175.3 200.73 176.7 202.4 178.19C205.097 180.568 207.643 183.113 210.02 185.81C212.437 188.55 214.603 191.502 216.49 194.63C227.19 212.69 216.06 224.45 216.06 224.45C215.364 225.365 214.489 226.128 213.488 226.694C212.488 227.259 211.383 227.615 210.24 227.74C210.06 227.757 209.88 227.757 209.7 227.74C204.35 227.74 180.92 220.81 170.7 214.83C160.28 208.77 152.36 199.6 154.34 190.94C154.39 190.73 154.44 190.53 154.5 190.32C156.11 184.69 163.05 175.04 169.03 168.75C172.45 165.17 175.54 162.67 177.16 162.63H177.23L177.18 162.65ZM177.23 161.63H177.13C175.31 161.63 172.34 163.84 168.31 168.06C162.43 174.25 155.25 184.06 153.54 190.06C153.48 190.28 153.42 190.5 153.37 190.72C151.88 197.21 155.53 207.18 170.2 215.72C180.51 221.72 203.94 228.72 209.75 228.72C209.976 228.737 210.204 228.737 210.43 228.72C211.699 228.576 212.926 228.178 214.038 227.549C215.149 226.92 216.123 226.074 216.9 225.06C217.8 224.06 227.9 211.89 217.4 194.06C215.485 190.868 213.286 187.856 210.83 185.06C208.422 182.33 205.843 179.755 203.11 177.35C201.45 175.86 199.73 174.44 198.01 173.11C193.92 169.9 189.572 167.034 185.01 164.54C182.95 163.43 179.19 161.54 177.22 161.54L177.23 161.63Z" fill="#093269"/>
<path d="M203.19 214.82C203.19 214.82 207.63 206.42 212.02 203.32C216.41 200.22 229.35 207.32 231.52 211.38C233.69 215.44 228 227.06 228 227.06C228 227.06 207.87 215 203.19 214.82Z" fill="white"/>
<path d="M228 227.56C227.908 227.558 227.818 227.53 227.74 227.48C227.54 227.36 207.74 215.48 203.21 215.32C203.126 215.318 203.043 215.295 202.97 215.253C202.896 215.211 202.835 215.152 202.79 215.08C202.751 215.004 202.73 214.92 202.73 214.835C202.73 214.75 202.751 214.666 202.79 214.59C202.98 214.24 207.34 206.04 211.79 202.91C213.14 201.96 215.21 201.8 217.94 202.45C223.38 203.73 230.35 208.04 232.02 211.15C234.28 215.37 228.72 226.79 228.48 227.28C228.449 227.342 228.405 227.397 228.352 227.442C228.299 227.487 228.237 227.52 228.17 227.54L228 227.56ZM204 214.42C209.34 215.42 224.79 224.57 227.77 226.35C229.43 222.83 232.68 214.6 231.09 211.62C229.7 209.03 223.23 204.74 217.66 203.42C215.26 202.85 213.41 202.96 212.32 203.73C208.76 206.23 205.11 212.42 204 214.42Z" fill="#093269"/>
<path d="M213.92 205.37C213.92 205.37 206.33 195.37 204.01 196.67C201.69 197.97 204.01 205.56 211.38 206.49" fill="white"/>
<path d="M211.38 207H211.32C209.317 206.815 207.42 206.016 205.889 204.71C204.359 203.405 203.269 201.659 202.77 199.71C202.44 198.09 202.77 196.8 203.77 196.25C206.29 194.8 212.49 202.64 214.33 205.08C214.41 205.186 214.444 205.319 214.425 205.451C214.406 205.582 214.336 205.7 214.23 205.78C214.123 205.857 213.99 205.89 213.86 205.871C213.729 205.852 213.611 205.784 213.53 205.68C210.01 201.02 205.47 196.42 204.27 197.12C203.72 197.43 203.53 198.35 203.76 199.51C204.216 201.254 205.2 202.814 206.576 203.977C207.953 205.14 209.655 205.85 211.45 206.01C211.581 206.025 211.701 206.091 211.783 206.194C211.866 206.297 211.904 206.429 211.89 206.56C211.873 206.683 211.812 206.795 211.718 206.876C211.624 206.957 211.504 207.001 211.38 207Z" fill="#093269"/>
<path d="M214.8 203.05C214.8 203.05 215.39 197.73 216.14 198.05C216.89 198.37 218.66 203.94 218.66 203.94" fill="white"/>
<path d="M218.66 204.48C218.556 204.481 218.454 204.448 218.369 204.387C218.285 204.326 218.222 204.239 218.19 204.14C217.634 202.311 216.935 200.529 216.1 198.81C215.699 200.212 215.431 201.648 215.3 203.1C215.285 203.233 215.219 203.354 215.115 203.437C215.011 203.521 214.878 203.56 214.745 203.545C214.612 203.53 214.491 203.464 214.408 203.36C214.324 203.256 214.285 203.123 214.3 202.99C214.66 199.78 215.14 197.99 215.73 197.66C215.828 197.611 215.936 197.585 216.045 197.585C216.154 197.585 216.262 197.611 216.36 197.66C217.13 198.05 218.3 201.24 219.14 203.85C219.178 203.976 219.166 204.112 219.107 204.229C219.047 204.347 218.944 204.437 218.82 204.48H218.66Z" fill="#093269"/>
<path d="M226.62 208.88C226.62 208.88 230.62 205.88 231.68 206.41C232.74 206.94 228.68 211.5 228.68 211.5" fill="white"/>
<path d="M228.7 212C228.579 212.001 228.462 211.959 228.37 211.88C228.271 211.792 228.21 211.668 228.201 211.535C228.191 211.403 228.234 211.272 228.32 211.17C229.93 209.35 231.26 207.45 231.32 206.83C230.76 206.83 228.74 207.89 226.89 209.28C226.837 209.319 226.778 209.348 226.714 209.364C226.65 209.381 226.584 209.384 226.519 209.375C226.454 209.366 226.392 209.344 226.335 209.31C226.279 209.277 226.229 209.233 226.19 209.18C226.151 209.127 226.122 209.068 226.106 209.004C226.089 208.941 226.086 208.874 226.095 208.809C226.104 208.744 226.126 208.682 226.16 208.625C226.193 208.569 226.237 208.519 226.29 208.48C227.58 207.48 230.69 205.32 231.89 205.97C232 206.03 232.094 206.114 232.165 206.216C232.236 206.319 232.282 206.437 232.3 206.56C232.52 207.75 230.09 210.65 229.04 211.83C228.999 211.881 228.947 211.922 228.888 211.952C228.83 211.981 228.765 211.998 228.7 212Z" fill="#093269"/>
<path d="M156.33 199.25C156.22 199.52 149.62 213.42 152.33 213.25C155.04 213.08 162.33 200.45 162.33 200.45" fill="white"/>
<path d="M152.31 213.79C152.139 213.796 151.968 213.758 151.816 213.679C151.664 213.6 151.534 213.483 151.44 213.34C150.59 212.07 152.05 207.34 155.79 199.24L155.87 199.05C155.896 198.989 155.933 198.934 155.98 198.887C156.027 198.84 156.083 198.803 156.144 198.778C156.205 198.753 156.271 198.741 156.337 198.741C156.403 198.741 156.469 198.754 156.53 198.78C156.591 198.806 156.646 198.843 156.693 198.89C156.74 198.937 156.777 198.993 156.802 199.054C156.827 199.115 156.839 199.181 156.839 199.247C156.839 199.314 156.826 199.379 156.8 199.44L156.7 199.66C152.6 208.51 151.81 212.36 152.28 212.79C154.11 212.7 159.15 205.05 161.9 200.24C161.932 200.183 161.975 200.133 162.027 200.093C162.079 200.052 162.138 200.023 162.202 200.006C162.265 199.989 162.331 199.986 162.396 199.995C162.461 200.004 162.524 200.026 162.58 200.06C162.693 200.127 162.776 200.235 162.812 200.362C162.847 200.489 162.832 200.624 162.77 200.74C161.53 202.9 155.23 213.65 152.37 213.74L152.31 213.79Z" fill="#093269"/>
<path d="M181.55 214.24C181.33 214.44 174.69 236.18 180.1 230.85C185.51 225.52 189.02 214.85 189.02 214.85" fill="white"/>
<path d="M178.74 232.19C178.644 232.205 178.546 232.205 178.45 232.19C178.224 232.109 178.026 231.967 177.876 231.78C177.726 231.593 177.63 231.368 177.6 231.13C176.79 227.8 180.79 214.31 181.21 213.91C181.256 213.863 181.31 213.826 181.37 213.801C181.43 213.776 181.495 213.763 181.56 213.763C181.625 213.763 181.69 213.776 181.75 213.801C181.81 213.826 181.864 213.863 181.91 213.91C181.986 213.989 182.033 214.09 182.046 214.198C182.059 214.307 182.035 214.416 181.98 214.51C181.12 216.39 177.4 230.46 178.72 231.2C178.72 231.2 179.01 231.2 179.72 230.5C184.97 225.32 188.48 214.83 188.52 214.72C188.539 214.657 188.571 214.598 188.613 214.548C188.656 214.497 188.708 214.456 188.767 214.426C188.826 214.396 188.89 214.378 188.956 214.374C189.022 214.369 189.088 214.378 189.15 214.4C189.275 214.445 189.378 214.537 189.438 214.656C189.497 214.775 189.509 214.913 189.47 215.04C189.32 215.47 185.84 225.86 180.42 231.22C179.998 231.738 179.4 232.083 178.74 232.19Z" fill="#093269"/>
<path d="M231.46 225.81C227.2 222.45 212.08 214.2 204.79 213.33C197.5 212.46 192.28 218.56 198.44 228.39C204.6 238.22 217.19 239.54 223.26 239.53C229.33 239.52 235.72 229.17 231.46 225.81Z" fill="white"/>
<path d="M223.19 240C217.72 240 204.45 238.88 198.02 228.62C193.89 222.05 195.21 218.01 196.36 216.2C197.98 213.63 201.17 212.36 204.85 212.8C212.3 213.69 227.59 222.09 231.77 225.39C233.39 226.67 233.77 228.96 232.84 231.68C231.46 235.68 227.4 240 223.26 240H223.19ZM203.43 213.72C202.222 213.649 201.016 213.887 199.926 214.412C198.835 214.937 197.897 215.731 197.2 216.72C195.46 219.48 196.06 223.62 198.86 228.08C205 238 217.88 239 223.19 239H223.26C226.84 239 230.62 235 231.89 231.35C232.69 229.06 232.42 227.17 231.15 226.17C227 223 212 214.69 204.73 213.83C204.299 213.774 203.865 213.747 203.43 213.75V213.72Z" fill="#093269"/>
<path d="M225 233.9C225 233.9 220.65 217.9 202.93 220.48L225 233.9Z" fill="white"/>
<path d="M225 234.4C224.891 234.402 224.785 234.367 224.698 234.302C224.612 234.237 224.549 234.145 224.52 234.04C224.3 233.4 220 218.54 203 221C202.868 221.017 202.734 220.982 202.627 220.901C202.521 220.821 202.45 220.702 202.43 220.57C202.413 220.439 202.449 220.306 202.529 220.201C202.61 220.096 202.729 220.027 202.86 220.01C220.78 217.44 225.44 233.63 225.48 233.79C225.514 233.919 225.496 234.055 225.431 234.171C225.366 234.287 225.258 234.373 225.13 234.41L225 234.4Z" fill="#093269"/>
<path d="M218.66 211.56H212.79C212.657 211.56 212.53 211.507 212.436 211.414C212.343 211.32 212.29 211.193 212.29 211.06C212.293 210.928 212.346 210.803 212.439 210.709C212.532 210.616 212.658 210.563 212.79 210.56H218.66C218.793 210.56 218.92 210.613 219.014 210.707C219.107 210.8 219.16 210.927 219.16 211.06C219.16 211.193 219.107 211.32 219.014 211.414C218.92 211.507 218.793 211.56 218.66 211.56Z" fill="#093269"/>
<path d="M216.73 213.75C216.634 213.75 216.54 213.721 216.46 213.668C216.38 213.614 216.317 213.539 216.28 213.45L214.34 209.12C214.314 209.06 214.3 208.995 214.298 208.929C214.297 208.863 214.309 208.797 214.333 208.736C214.357 208.675 214.393 208.619 214.439 208.572C214.485 208.524 214.54 208.486 214.6 208.46C214.66 208.434 214.725 208.42 214.791 208.419C214.857 208.417 214.923 208.429 214.984 208.453C215.045 208.478 215.101 208.513 215.148 208.559C215.196 208.605 215.234 208.66 215.26 208.72L217.19 213.04C217.244 213.161 217.248 213.298 217.201 213.422C217.154 213.545 217.061 213.645 216.94 213.7C216.874 213.731 216.803 213.748 216.73 213.75Z" fill="#093269"/>
<path d="M227.89 214.72H222C221.868 214.717 221.742 214.664 221.649 214.571C221.556 214.478 221.503 214.352 221.5 214.22C221.5 214.087 221.553 213.96 221.646 213.866C221.74 213.773 221.867 213.72 222 213.72H227.87C228.003 213.72 228.13 213.773 228.224 213.866C228.317 213.96 228.37 214.087 228.37 214.22C228.37 214.349 228.32 214.473 228.231 214.567C228.141 214.66 228.019 214.715 227.89 214.72Z" fill="#093269"/>
<path d="M226 216.9C225.905 216.901 225.812 216.873 225.732 216.822C225.652 216.77 225.589 216.697 225.55 216.61L223.61 212.28C223.556 212.158 223.552 212.019 223.6 211.895C223.648 211.77 223.743 211.669 223.865 211.615C223.987 211.561 224.126 211.557 224.25 211.605C224.375 211.653 224.476 211.748 224.53 211.87L226.46 216.2C226.514 216.321 226.518 216.458 226.471 216.582C226.424 216.705 226.331 216.805 226.21 216.86C226.144 216.888 226.072 216.901 226 216.9Z" fill="#093269"/>
<path d="M210 185.79C207.76 187.06 204.69 187.37 203.51 189.66C202.91 190.83 203 192.24 202.61 193.5C202.307 194.432 201.753 195.262 201.008 195.899C200.264 196.536 199.358 196.955 198.39 197.11C198.075 197.192 197.743 197.186 197.431 197.093C197.119 196.999 196.838 196.822 196.62 196.58C196.31 196.09 196.45 195.44 196.25 194.9C195.78 193.65 193.9 193.73 192.81 194.5C191.72 195.27 190.94 196.5 189.71 197.01C189.024 197.244 188.29 197.295 187.578 197.16C186.867 197.025 186.202 196.708 185.65 196.24C184.554 195.292 183.686 194.11 183.11 192.78C182.467 191.722 182.199 190.479 182.35 189.25C182.552 188.509 182.921 187.825 183.43 187.25C185.695 184.476 188.945 182.684 192.5 182.25C196.23 181.81 198.91 181.87 201.65 178.96C201.9 178.69 202.15 178.4 202.38 178.11C205.079 180.507 207.624 183.072 210 185.79Z" fill="#D5E6FB"/>
<path d="M177.46 180.05C175.4 180.88 172.99 181.41 171.75 183.25C170.51 185.09 170.84 187.44 169.69 189.25C168.43 191.19 165.87 191.79 163.56 191.89C160.443 192.035 157.321 191.732 154.29 190.99C154.34 190.78 154.39 190.58 154.45 190.37C156.06 184.74 163 175.09 168.98 168.8C172.806 168.973 176.475 170.375 179.44 172.8C180.253 173.398 180.856 174.238 181.16 175.2C181.67 177.38 179.51 179.23 177.46 180.05Z" fill="#D5E6FB"/>
<path d="M197.35 174C196.162 174.853 194.817 175.462 193.393 175.793C191.968 176.124 190.492 176.171 189.05 175.93C187.359 175.672 185.791 174.888 184.57 173.69C182.24 171.24 183.27 168.35 184.5 165.52C189.01 167.988 193.308 170.824 197.35 174Z" fill="#D5E6FB"/>
<path d="M130.45 204.48C130.394 204.49 130.336 204.49 130.28 204.48C130.217 204.459 130.16 204.425 130.111 204.381C130.061 204.337 130.022 204.284 129.994 204.224C129.966 204.164 129.95 204.099 129.948 204.033C129.945 203.967 129.956 203.902 129.98 203.84L161.86 115.59C161.905 115.465 161.998 115.364 162.118 115.308C162.238 115.251 162.375 115.245 162.5 115.29C162.563 115.311 162.62 115.345 162.669 115.389C162.719 115.433 162.758 115.486 162.786 115.546C162.814 115.606 162.83 115.671 162.832 115.737C162.835 115.803 162.824 115.868 162.8 115.93L130.92 204.18C130.88 204.271 130.814 204.348 130.731 204.402C130.647 204.455 130.549 204.482 130.45 204.48Z" fill="white"/>
<path d="M225.43 173.6C225.321 173.599 225.214 173.563 225.128 173.496C225.041 173.429 224.978 173.336 224.95 173.23L213.44 132.38C213.406 132.251 213.424 132.115 213.489 131.999C213.554 131.883 213.662 131.797 213.79 131.76C213.853 131.742 213.919 131.737 213.984 131.745C214.049 131.752 214.112 131.773 214.169 131.806C214.226 131.839 214.276 131.882 214.315 131.935C214.355 131.987 214.384 132.046 214.4 132.11L225.91 173C225.944 173.129 225.926 173.265 225.861 173.381C225.796 173.497 225.688 173.583 225.56 173.62L225.43 173.6Z" fill="white"/>
<path d="M251.33 244.74C251.223 244.739 251.12 244.705 251.034 244.642C250.948 244.579 250.883 244.491 250.85 244.39L246.91 231.84C246.872 231.713 246.885 231.576 246.947 231.458C247.009 231.34 247.114 231.251 247.24 231.21C247.366 231.172 247.502 231.186 247.618 231.248C247.734 231.31 247.821 231.415 247.86 231.54L251.81 244.09C251.848 244.216 251.834 244.352 251.772 244.468C251.71 244.584 251.605 244.671 251.48 244.71L251.33 244.74Z" fill="white"/>
<path d="M132.23 243.61H132.06C131.999 243.589 131.942 243.556 131.894 243.512C131.845 243.469 131.806 243.416 131.778 243.358C131.75 243.299 131.734 243.236 131.731 243.171C131.728 243.106 131.738 243.041 131.76 242.98L138.76 222.83C138.803 222.706 138.893 222.604 139.011 222.546C139.129 222.488 139.265 222.479 139.39 222.52C139.515 222.565 139.617 222.658 139.675 222.777C139.733 222.897 139.742 223.034 139.7 223.16L132.7 243.31C132.66 243.401 132.594 243.478 132.511 243.532C132.427 243.585 132.329 243.612 132.23 243.61Z" fill="white"/>
<path d="M192.47 137.45C192.35 137.446 192.236 137.397 192.15 137.314C192.063 137.231 192.01 137.12 192 137L189.79 119C189.782 118.936 189.786 118.87 189.803 118.808C189.82 118.745 189.85 118.686 189.89 118.635C189.93 118.584 189.98 118.541 190.036 118.509C190.093 118.478 190.155 118.457 190.22 118.45C190.351 118.433 190.484 118.469 190.589 118.549C190.694 118.63 190.763 118.749 190.78 118.88L192.99 136.88C193.007 137.011 192.971 137.144 192.891 137.249C192.81 137.354 192.691 137.423 192.56 137.44L192.47 137.45Z" fill="white"/>
<path d="M162.85 248.68H162.74C162.675 248.666 162.614 248.639 162.56 248.601C162.506 248.563 162.46 248.515 162.425 248.459C162.39 248.403 162.366 248.341 162.355 248.276C162.343 248.211 162.345 248.144 162.36 248.08L164.77 236.79C164.783 236.726 164.809 236.665 164.846 236.611C164.883 236.557 164.93 236.511 164.985 236.476C165.04 236.44 165.101 236.416 165.166 236.405C165.23 236.394 165.296 236.395 165.36 236.41C165.489 236.439 165.601 236.516 165.674 236.626C165.747 236.736 165.774 236.87 165.75 237L163.34 248.29C163.315 248.401 163.253 248.5 163.164 248.571C163.074 248.642 162.964 248.681 162.85 248.68Z" fill="white"/>
<path d="M207 119.44C206.888 119.439 206.779 119.402 206.691 119.333C206.602 119.264 206.539 119.168 206.51 119.06L202.68 103.25C202.649 103.117 202.673 102.978 202.745 102.863C202.817 102.747 202.932 102.666 203.065 102.635C203.198 102.605 203.337 102.628 203.452 102.7C203.568 102.772 203.649 102.887 203.68 103.02L207.52 118.83C207.547 118.958 207.524 119.092 207.455 119.204C207.386 119.316 207.277 119.397 207.15 119.43L207 119.44Z" fill="white"/>
<path d="M174.75 118H174.64C174.576 117.987 174.515 117.961 174.461 117.924C174.407 117.888 174.361 117.84 174.326 117.785C174.29 117.73 174.266 117.669 174.255 117.604C174.244 117.54 174.245 117.474 174.26 117.41L177.07 104.41C177.084 104.346 177.111 104.285 177.149 104.23C177.187 104.176 177.235 104.13 177.291 104.095C177.347 104.06 177.409 104.036 177.474 104.025C177.539 104.013 177.606 104.015 177.67 104.03C177.734 104.043 177.795 104.069 177.849 104.106C177.903 104.143 177.949 104.19 177.984 104.245C178.02 104.3 178.044 104.361 178.055 104.426C178.066 104.49 178.065 104.556 178.05 104.62L175.23 117.62C175.205 117.729 175.144 117.825 175.057 117.894C174.969 117.963 174.861 118.001 174.75 118Z" fill="white"/>
<path d="M216.33 42.7701C216.245 42.7716 216.161 42.7472 216.09 42.7001C201.45 34.6301 183.91 35.2501 183.73 35.2601C183.599 35.2582 183.474 35.2081 183.378 35.1196C183.282 35.031 183.222 34.9101 183.21 34.7801C183.207 34.7144 183.218 34.6488 183.24 34.5871C183.263 34.5254 183.298 34.4688 183.342 34.4205C183.387 34.3722 183.44 34.3332 183.5 34.3057C183.56 34.2781 183.624 34.2626 183.69 34.2601C183.87 34.2601 201.69 33.6201 216.57 41.8301C216.685 41.8954 216.77 42.0028 216.807 42.1296C216.845 42.2565 216.831 42.3929 216.77 42.5101C216.725 42.587 216.66 42.6511 216.583 42.6966C216.506 42.7421 216.419 42.7673 216.33 42.7701Z" fill="white"/>
</svg>
