<?xml version="1.0" standalone="no"?>
<!DOCTYPE svg PUBLIC "-//W3C//DTD SVG 20010904//EN"
 "http://www.w3.org/TR/2001/REC-SVG-20010904/DTD/svg10.dtd">
<svg version="1.0" xmlns="http://www.w3.org/2000/svg"
 width="409.000000pt" height="409.000000pt" viewBox="0 0 409.000000 409.000000"
 preserveAspectRatio="xMidYMid meet">
<metadata>
Created by potrace 1.11, written by Peter Selinger 2001-2013
</metadata>
<g transform="translate(0.000000,409.000000) scale(0.100000,-0.100000)"
fill="#000000" stroke="none">
<path d="M2165 4081 c-3 -5 -19 -9 -36 -9 -57 2 -68 -48 -14 -65 17 -5 37 -16
46 -23 8 -8 27 -14 41 -14 14 0 29 -7 32 -16 4 -11 15 -14 35 -11 19 3 35 0
43 -10 12 -14 64 -14 143 2 11 2 26 4 33 4 24 2 25 31 1 51 -67 55 -130 93
-140 83 -7 -7 -20 -6 -41 5 -22 10 -36 12 -47 5 -9 -6 -25 -7 -36 -2 -28 11
-53 11 -60 0z"/>
<path d="M1473 4050 c-39 -10 -86 -26 -103 -35 -43 -22 -121 -95 -114 -106 8
-14 114 -10 179 6 32 9 80 28 107 42 54 29 132 93 124 100 -14 14 -128 10
-193 -7z"/>
<path d="M1797 4050 c-58 -18 -86 -33 -123 -66 -28 -26 -55 -69 -48 -77 12
-12 139 5 215 29 79 25 192 91 186 109 -9 27 -150 31 -230 5z"/>
<path d="M2596 3985 c-6 -15 56 -68 94 -80 10 -3 21 -16 24 -29 4 -16 21 -30
56 -44 32 -13 48 -26 45 -34 -7 -19 5 -33 53 -57 24 -12 45 -30 48 -39 12 -38
23 -46 99 -73 110 -39 118 -38 110 9 -8 53 -35 145 -47 160 -6 6 -21 12 -34
12 -15 0 -35 15 -60 46 -31 37 -42 45 -63 41 -19 -4 -35 3 -63 29 -27 24 -48
34 -71 34 -17 0 -56 9 -85 20 -62 24 -98 25 -106 5z"/>
<path d="M1055 3882 c-28 -10 -73 -30 -100 -46 -71 -41 -177 -152 -208 -218
-25 -52 -32 -98 -15 -98 22 0 111 41 160 73 84 56 233 212 282 295 11 18 -59
15 -119 -6z"/>
<path d="M1410 3859 c-144 -20 -275 -104 -331 -211 -31 -61 -27 -67 39 -62 97
7 186 45 282 119 61 47 156 142 149 148 -11 10 -89 13 -139 6z"/>
<path d="M2439 3848 c-9 -16 -5 -24 24 -51 18 -18 37 -40 40 -50 4 -9 20 -20
36 -23 21 -4 31 -13 33 -28 2 -14 14 -25 37 -32 19 -6 38 -21 42 -32 7 -20 16
-22 84 -21 41 1 77 5 80 9 8 13 -34 133 -52 147 -8 6 -21 9 -28 7 -7 -3 -26 9
-43 26 -25 24 -35 29 -49 22 -13 -8 -24 -4 -46 14 -18 15 -36 22 -47 19 -10
-3 -36 -1 -59 4 -36 8 -43 7 -52 -11z"/>
<path d="M1974 3633 c-26 -49 -57 -106 -69 -128 -12 -22 -40 -74 -62 -115 -22
-41 -77 -144 -122 -227 l-82 -153 -385 0 c-277 0 -384 -3 -384 -11 0 -9 68
-136 200 -374 132 -237 181 -337 173 -348 -6 -6 -36 -61 -68 -122 -32 -60 -71
-132 -87 -158 -15 -26 -28 -49 -28 -51 0 -2 -19 -39 -43 -82 -91 -166 -147
-272 -147 -282 0 -6 145 -9 385 -9 212 0 387 -2 389 -4 4 -4 101 -182 166
-304 24 -44 53 -98 65 -120 12 -22 39 -71 59 -108 20 -37 45 -82 55 -100 10
-18 23 -43 30 -56 13 -23 14 -22 50 45 65 121 117 216 169 314 28 52 80 149
116 215 l65 120 373 2 c205 1 379 3 386 3 9 0 0 24 -26 73 -22 39 -59 108 -82
152 -24 44 -65 119 -91 168 -27 48 -49 88 -49 90 0 2 -27 52 -60 111 -33 59
-60 112 -60 118 0 9 133 270 150 293 4 6 29 51 55 100 114 215 139 262 157
293 l20 32 -29 1 c-15 1 -190 1 -388 0 l-360 -1 -34 62 c-18 35 -76 142 -129
238 -52 96 -111 204 -130 240 -54 101 -93 170 -97 170 -2 0 -25 -39 -51 -87z
m82 -465 c3 -12 18 -42 33 -67 15 -25 53 -93 83 -151 105 -196 101 -190 128
-191 14 0 125 0 248 -1 122 0 222 -4 222 -9 0 -4 -11 -28 -24 -51 -42 -78 -92
-172 -155 -290 l-62 -117 54 -98 c30 -54 71 -128 91 -165 20 -38 52 -97 71
-133 l36 -65 -252 -2 -251 -3 -57 -105 c-32 -58 -84 -155 -117 -217 -32 -61
-63 -112 -68 -113 -5 -1 -27 31 -48 72 -39 72 -138 253 -185 336 l-24 42 -244
0 c-135 0 -245 2 -245 4 0 3 13 29 29 58 16 29 70 129 120 222 l92 169 -123
225 c-68 124 -124 228 -126 231 -1 3 110 5 247 4 l249 -1 14 26 c7 15 62 118
123 229 111 205 123 218 141 161z"/>
<path d="M2000 2869 c-70 -86 -111 -228 -78 -267 34 -39 64 -167 70 -294 2
-47 3 -48 33 -48 l32 0 6 84 c7 105 31 196 64 249 21 34 24 48 19 86 -8 57
-56 158 -93 193 l-28 27 -25 -30z"/>
<path d="M1699 2564 c-40 -16 -64 -51 -74 -108 -8 -38 -7 -39 16 -32 53 15
128 18 163 6 20 -6 47 -26 60 -43 23 -31 27 -42 40 -99 6 -28 35 -40 37 -15 3
35 -4 88 -18 138 -32 120 -134 189 -224 153z"/>
<path d="M2295 2573 c-11 -2 -30 -6 -42 -9 -32 -6 -81 -58 -103 -107 -20 -44
-28 -81 -35 -154 -4 -37 -2 -43 14 -43 14 0 21 10 26 38 8 52 38 98 77 123 27
16 44 19 93 15 33 -2 72 -8 87 -11 27 -7 28 -6 22 26 -17 85 -74 136 -139 122z"/>
<path d="M1918 2203 c-11 -3 -18 -14 -18 -28 0 -27 22 -33 125 -33 112 0 135
6 135 34 0 16 -6 24 -17 25 -58 4 -211 6 -225 2z"/>
<path d="M1905 2061 c-14 -55 -65 -78 -116 -50 -18 9 -19 8 -13 -18 24 -105
112 -118 148 -21 23 64 25 110 4 113 -10 2 -19 -6 -23 -24z"/>
<path d="M1998 2067 c-8 -13 -13 -57 -13 -108 0 -71 3 -91 19 -108 26 -28 33
-27 56 12 36 59 17 217 -27 223 -15 3 -27 -4 -35 -19z"/>
<path d="M2118 2084 c-10 -9 3 -77 22 -122 23 -52 61 -71 97 -47 23 15 31 29
48 83 6 21 5 23 -13 13 -51 -27 -99 -7 -121 52 -10 26 -21 33 -33 21z"/>
<path d="M3206 3601 c-10 -16 3 -52 33 -93 22 -30 29 -48 25 -68 -5 -23 1 -33
40 -66 30 -25 43 -41 36 -48 -19 -19 -10 -42 29 -80 33 -33 39 -43 34 -70 -4
-30 -1 -33 83 -84 87 -53 115 -60 119 -32 2 8 7 33 13 55 28 107 22 152 -23
159 -14 2 -22 16 -31 55 -13 61 -25 75 -59 76 -19 0 -30 11 -52 55 -23 46 -33
56 -58 58 -18 2 -48 21 -77 48 -34 32 -56 44 -77 44 -16 0 -32 -4 -35 -9z"/>
<path d="M2847 3569 c-27 -15 -20 -48 17 -83 18 -17 36 -43 40 -58 4 -19 16
-30 41 -39 24 -9 35 -19 35 -34 0 -30 11 -41 53 -55 29 -9 38 -16 34 -30 -7
-29 5 -38 63 -44 30 -3 74 -9 98 -12 l42 -6 0 39 c0 46 -24 139 -41 159 -7 9
-22 13 -33 11 -16 -4 -29 5 -51 36 -31 42 -50 51 -71 35 -8 -6 -21 3 -37 24
-21 26 -34 33 -64 34 -21 0 -54 8 -73 17 -25 11 -41 12 -53 6z"/>
<path d="M558 3491 c-100 -107 -168 -271 -168 -406 0 -69 16 -135 32 -135 24
0 110 105 143 174 19 39 41 102 50 139 27 116 30 287 5 287 -4 0 -32 -26 -62
-59z"/>
<path d="M940 3491 c-100 -31 -198 -109 -240 -192 -23 -44 -40 -169 -24 -169
29 1 105 25 149 46 108 55 179 136 224 257 11 32 21 60 21 62 0 8 -103 4 -130
-4z"/>
<path d="M3221 3121 c-12 -22 -7 -55 14 -87 12 -19 13 -29 4 -46 -10 -19 -8
-25 24 -52 30 -27 34 -33 21 -44 -24 -21 -17 -35 33 -70 28 -20 31 -26 20 -42
-16 -27 -1 -40 103 -84 68 -29 87 -34 97 -24 19 20 52 173 41 192 -5 9 -20 16
-33 16 -20 0 -25 5 -25 24 0 12 -5 37 -11 55 -9 27 -16 31 -45 31 -29 0 -34 4
-34 23 0 36 -29 70 -55 65 -16 -3 -32 5 -55 29 -38 38 -83 45 -99 14z"/>
<path d="M717 3059 c-103 -24 -199 -103 -247 -203 -33 -70 -42 -130 -29 -201
14 -74 25 -81 83 -50 146 78 242 211 250 349 4 57 -3 117 -13 115 -3 -1 -23
-5 -44 -10z"/>
<path d="M3679 2998 c-7 -13 -9 -41 -5 -75 5 -41 3 -55 -8 -59 -26 -10 -26
-47 -1 -90 24 -41 24 -42 5 -47 -31 -8 -35 -35 -12 -83 22 -44 22 -44 2 -64
-11 -11 -20 -24 -20 -29 0 -10 24 -41 79 -101 22 -25 41 -48 41 -52 0 -5 8 -8
18 -8 24 0 142 155 142 187 0 16 -7 27 -20 30 -16 4 -18 11 -13 32 6 25 18 61
23 71 8 13 -23 50 -42 50 -19 0 -20 4 -13 56 7 59 -3 84 -35 84 -12 0 -21 10
-25 28 -11 54 -42 92 -75 92 -20 0 -33 -7 -41 -22z"/>
<path d="M250 2928 c-76 -132 -94 -327 -44 -486 18 -56 51 -113 70 -119 14 -5
68 97 84 157 17 62 14 223 -5 306 -19 88 -56 194 -67 194 -4 0 -21 -24 -38
-52z"/>
<path d="M3411 2594 c-21 -15 -23 -22 -18 -65 4 -35 2 -51 -9 -59 -21 -18 -17
-38 12 -73 19 -23 23 -32 13 -36 -14 -4 -29 -21 -29 -33 0 -3 12 -21 27 -38
22 -27 25 -35 15 -51 -18 -28 -15 -42 15 -64 15 -11 52 -41 84 -68 66 -55 61
-56 128 46 45 70 49 96 15 111 -19 9 -21 16 -16 68 l4 58 -31 6 c-28 6 -31 10
-31 44 0 53 -8 70 -35 70 -17 0 -30 11 -46 39 -12 21 -32 44 -46 50 -29 14
-24 14 -52 -5z"/>
<path d="M517 2509 c-61 -40 -104 -91 -136 -159 -22 -46 -26 -69 -26 -145 0
-76 4 -98 24 -138 45 -86 50 -87 118 -13 95 104 145 226 138 337 -5 67 -37
149 -58 149 -7 0 -34 -14 -60 -31z"/>
<path d="M3847 2332 c-9 -9 -21 -38 -28 -63 -10 -36 -18 -48 -42 -57 -29 -11
-29 -13 -25 -67 4 -52 3 -55 -18 -55 -32 0 -44 -28 -38 -84 5 -34 3 -46 -7
-46 -7 0 -20 -7 -30 -16 -16 -15 -15 -21 17 -112 19 -53 34 -98 34 -99 0 -18
198 100 207 124 3 8 0 25 -7 38 -11 21 -9 28 24 70 29 39 34 51 25 67 -6 10
-16 21 -24 24 -10 4 -7 16 15 51 29 45 30 70 3 86 -8 5 -13 29 -13 66 0 43 -5
62 -18 74 -24 22 -55 22 -75 -1z"/>
<path d="M134 2278 c-24 -76 -28 -266 -8 -342 23 -88 58 -150 106 -189 46 -37
107 -71 114 -64 10 10 21 115 18 174 -6 118 -58 261 -139 383 -66 100 -71 102
-91 38z"/>
<path d="M3421 2034 c-16 -12 -21 -25 -21 -60 0 -31 -4 -44 -14 -44 -30 0 -35
-24 -16 -68 19 -41 19 -42 0 -42 -27 0 -34 -36 -15 -76 16 -34 16 -35 -6 -53
l-22 -18 54 -87 c29 -49 59 -91 66 -93 18 -7 141 97 149 126 5 17 2 28 -11 37
-17 13 -18 15 -1 53 21 46 18 73 -10 85 -21 9 -21 11 -7 53 16 45 7 73 -22 73
-7 0 -19 23 -27 52 -12 42 -20 54 -45 64 -25 11 -34 10 -52 -2z"/>
<path d="M513 1958 c-128 -135 -124 -365 9 -496 23 -23 45 -42 49 -42 9 0 43
81 63 150 46 154 20 324 -61 405 -20 21 -25 19 -60 -17z"/>
<path d="M3760 1634 c-14 -9 -37 -33 -52 -55 -18 -26 -33 -37 -43 -33 -23 9
-42 -12 -54 -60 -8 -33 -15 -44 -28 -41 -32 5 -51 -14 -63 -64 -9 -39 -16 -49
-29 -46 -32 6 -44 -12 -47 -72 -2 -32 -6 -77 -8 -100 -5 -46 8 -59 47 -44 12
5 24 9 27 9 3 0 25 6 50 13 55 16 58 16 69 18 21 3 42 35 37 55 -4 17 4 27 39
50 48 29 69 71 44 86 -10 7 -1 20 35 54 46 42 47 46 33 66 -14 20 -14 26 3 66
21 48 19 83 -7 102 -21 15 -22 15 -53 -4z"/>
<path d="M229 1618 c-1 -2 -3 -25 -5 -53 -8 -111 50 -230 171 -350 77 -77 118
-105 177 -119 27 -6 27 -6 21 41 -13 106 -78 242 -160 333 -58 65 -196 165
-204 148z"/>
<path d="M3283 1488 c-6 -7 -16 -30 -23 -51 -6 -20 -16 -35 -21 -31 -21 12
-37 -17 -34 -62 2 -30 -1 -43 -9 -41 -28 10 -42 -12 -41 -62 1 -43 -2 -51 -17
-51 -24 0 -31 -36 -19 -90 6 -25 11 -62 11 -82 0 -20 5 -40 11 -43 5 -4 49 12
96 34 85 41 86 42 80 74 -4 25 1 39 24 67 33 39 36 56 12 82 -9 10 -12 18 -6
18 5 0 19 18 32 40 21 38 21 40 4 57 -14 14 -18 30 -15 66 3 36 0 53 -13 68
-20 22 -58 25 -72 7z"/>
<path d="M646 1408 c-46 -127 -10 -268 95 -377 43 -45 131 -101 158 -101 26 0
-32 248 -83 354 -33 67 -118 166 -145 166 -5 0 -16 -19 -25 -42z"/>
<path d="M3429 1016 c-35 -26 -49 -31 -67 -25 -20 7 -27 3 -54 -35 -27 -39
-34 -44 -62 -40 -27 4 -34 0 -59 -36 -16 -23 -36 -40 -45 -39 -35 3 -42 -3
-77 -66 -20 -36 -41 -67 -46 -71 -5 -3 -9 -14 -9 -25 0 -17 8 -19 98 -19 102
0 122 6 126 35 2 12 20 24 54 35 62 20 81 35 75 58 -3 13 10 24 49 42 44 21
54 31 56 55 2 18 18 44 38 64 33 34 40 54 28 85 -10 27 -58 19 -105 -18z"/>
<path d="M535 993 c26 -108 208 -261 375 -316 84 -28 170 -41 170 -26 0 21
-132 156 -220 223 -98 76 -247 146 -311 146 -18 0 -20 -4 -14 -27z"/>
<path d="M2989 981 c-23 -23 -47 -37 -55 -34 -19 7 -41 -13 -64 -58 -16 -30
-23 -36 -44 -32 -20 4 -31 -3 -62 -47 -20 -29 -42 -49 -49 -46 -21 8 -41 -15
-80 -89 -21 -38 -44 -78 -53 -88 -30 -34 -1 -39 99 -16 108 25 129 34 129 55
0 9 24 26 58 41 62 27 74 39 68 66 -3 12 7 23 34 37 52 27 72 48 65 71 -4 13
4 34 24 61 36 48 40 92 12 108 -30 16 -37 13 -82 -29z"/>
<path d="M986 923 c24 -104 113 -214 224 -276 66 -36 226 -94 235 -85 8 7 -51
114 -101 184 -66 94 -150 151 -273 188 -80 24 -93 22 -85 -11z"/>
<path d="M1740 799 c-161 -65 -170 -272 -15 -353 28 -15 31 -15 46 3 18 22 68
49 101 55 13 3 24 5 25 5 0 1 -13 16 -30 34 -48 51 -70 112 -71 194 -1 78 -5
82 -56 62z"/>
<path d="M1863 736 c2 -57 8 -81 30 -118 40 -68 56 -77 125 -66 55 8 76 17
210 88 45 23 78 33 113 34 27 1 49 4 49 7 0 13 -73 81 -97 90 -34 13 -118 11
-183 -4 -75 -18 -146 -12 -202 17 l-47 25 2 -73z"/>
<path d="M2331 619 c-76 -26 -104 -47 -126 -94 l-21 -42 26 -12 c15 -6 36 -20
48 -31 28 -27 36 -26 84 13 46 36 84 97 91 144 4 28 2 31 -24 35 -16 3 -51 -3
-78 -13z"/>
<path d="M957 559 c-86 -20 -161 -78 -196 -153 -38 -81 -38 -81 32 -82 70 -1
179 -40 335 -118 133 -67 238 -102 357 -121 43 -6 205 -8 211 -2 3 2 -2 22
-10 44 -8 22 -16 55 -19 74 -5 38 17 134 35 156 14 17 3 28 -42 41 -19 6 -144
44 -278 86 -253 79 -340 94 -425 75z m80 -96 c-5 -26 5 -30 23 -8 7 8 21 15
32 15 16 0 11 -9 -26 -52 -26 -30 -46 -63 -46 -75 0 -13 -6 -23 -14 -23 -22 0
-26 12 -16 56 4 21 11 55 14 75 4 23 12 36 22 36 11 0 14 -7 11 -24z m157 -36
c-6 -20 -5 -20 17 -6 13 8 32 13 42 11 20 -4 20 -9 -11 -114 -17 -62 -19 -63
-42 -48 -13 8 -13 15 3 58 9 28 17 53 17 57 0 4 -20 -9 -44 -29 -42 -34 -86
-48 -86 -26 0 5 11 17 24 25 15 10 28 33 35 60 9 36 14 42 31 38 16 -4 19 -11
14 -26z m190 -79 c4 -27 12 -48 17 -48 5 0 9 4 9 8 0 17 46 62 63 62 15 0 15
-3 -3 -32 -46 -78 -61 -112 -57 -129 5 -20 -9 -25 -31 -10 -13 8 -20 28 -21
64 -1 25 -16 21 -29 -8 -12 -25 -45 -34 -57 -15 -3 5 11 34 31 64 24 37 35 63
31 76 -4 17 -1 21 16 18 17 -2 24 -13 31 -50z m193 -66 c-10 -32 -19 -72 -19
-89 0 -29 -3 -32 -25 -31 -33 3 -38 18 -23 76 6 26 14 58 16 71 7 36 10 38 42
33 l28 -4 -19 -56z"/>
<path d="M2987 544 c-1 -1 -36 -4 -77 -8 -128 -10 -262 -44 -436 -111 -164
-64 -158 -59 -137 -98 25 -47 23 -150 -4 -204 l-21 -42 36 -12 c105 -35 390
48 552 161 89 61 243 110 332 105 27 -2 46 0 44 4 -2 3 -19 40 -39 82 -31 69
-39 78 -78 93 -35 14 -164 37 -172 30z m11 -113 l20 -49 -21 -6 c-12 -3 -23
-2 -25 2 -14 39 -31 57 -55 60 -32 4 -35 -13 -11 -60 13 -25 14 -32 2 -39 -22
-15 -32 -5 -60 62 l-27 64 22 7 c12 3 47 6 78 7 l56 1 21 -49z m-214 3 c10
-26 7 -32 -17 -38 -32 -8 -36 -66 -6 -107 23 -33 23 -34 -7 -43 -33 -10 -68
35 -67 85 1 40 0 41 -28 37 -28 -4 -30 -3 -33 34 -1 7 25 20 59 30 77 21 92
22 99 2z m-195 -97 c13 -58 6 -117 -14 -117 -8 0 -20 -3 -29 -6 -13 -5 -14 -1
-6 25 5 20 5 43 -1 61 l-10 29 -46 -20 c-37 -16 -48 -17 -55 -7 -16 26 -7 37
45 56 28 11 59 22 67 25 31 11 37 6 49 -46z m-94 -79 c3 -13 6 -50 8 -83 l2
-59 -31 -2 -31 -1 5 76 c4 68 12 90 34 91 4 0 10 -10 13 -22z"/>
<path d="M1965 429 c-122 -19 -206 -103 -208 -207 -2 -200 281 -293 435 -141
72 72 81 163 25 248 -47 71 -158 115 -252 100z"/>
<path d="M742 244 c-50 -35 -13 -97 90 -148 39 -20 76 -36 82 -36 7 0 11 13
10 30 -1 16 6 46 17 67 24 47 16 57 -68 83 -78 24 -102 25 -131 4z"/>
<path d="M3165 253 c-11 -2 -41 -11 -68 -19 l-47 -16 25 -30 c18 -22 25 -41
25 -74 0 -51 3 -52 83 -25 70 24 112 55 128 93 11 26 10 32 -9 51 -21 21 -86
30 -137 20z"/>
</g>
</svg>
